<?xml version="1.0" encoding="UTF-8" standalone="no"?>
<svg
   width="1373"
   height="1373"
   version="1.1"
   id="svg5"
   sodipodi:docname="simplex-monogram-1.svg"
   inkscape:version="1.3.2 (1:1.3.2+202311252150+091e20ef0f)"
   xmlns:inkscape="http://www.inkscape.org/namespaces/inkscape"
   xmlns:sodipodi="http://sodipodi.sourceforge.net/DTD/sodipodi-0.dtd"
   xmlns="http://www.w3.org/2000/svg"
   xmlns:svg="http://www.w3.org/2000/svg">
  <defs
     id="defs5" />
  <sodipodi:namedview
     id="namedview5"
     pagecolor="#ffffff"
     bordercolor="#666666"
     borderopacity="1.0"
     inkscape:showpageshadow="2"
     inkscape:pageopacity="0.0"
     inkscape:pagecheckerboard="0"
     inkscape:deskcolor="#d1d1d1"
     inkscape:zoom="0.302622"
     inkscape:cx="356.88087"
     inkscape:cy="807.93863"
     inkscape:window-width="1920"
     inkscape:window-height="1027"
     inkscape:window-x="0"
     inkscape:window-y="25"
     inkscape:window-maximized="1"
     inkscape:current-layer="svg5" />
  <g
     id="g1"
     transform="translate(-4.8601845,12.385362)">
    <path
       fill="#010101"
       d="m 820.56468,94.216176 184.68252,-0.007 Q 932.03414,199.57715 860.90798,306.35671 l -107.37006,156.9882 c -22.02752,32.08227 -44.74173,63.80344 -65.82799,96.51321 L 364.41724,94.664606 q 46.34599,0.15683 92.689,-0.1924 c 30.79918,-0.0859 61.70192,-0.68965 92.48034,0.48542 17.64984,28.761264 38.17521,55.875364 57.26207,83.695374 25.98784,37.88219 51.1706,76.82103 78.93736,113.40824 q 66.19797,-99.7291 134.77867,-197.845064 z"
       id="path2"
       style="stroke-width:1.47995" />
    <path
       fill="#010101"
       d="m 685.77712,731.20557 c 8.76127,7.67796 16.50434,22.88885 23.20703,32.76009 q 23.61549,35.13391 47.86885,69.83864 l 131.89273,188.6782 c 54.19562,76.7944 109.24967,153.3076 161.47697,231.4636 -21.7108,-2.2495 -44.724,-0.9176 -66.58282,-0.9176 l -118.95803,0.044 c -16.309,-17.7889 -40.49131,-56.4895 -55.33516,-77.7267 l -123.022,-178.00786 -1.99495,-1.6427 c -6.05297,2.4123 -154.77125,226.29846 -178.43707,257.42166 -60.21751,-0.6511 -120.55047,-0.2516 -180.77241,0.222 11.35858,-21.7108 28.72278,-42.578 42.78522,-62.6905 l 75.59416,-109.3976 Q 563.31901,905.31528 685.77712,731.20557 Z"
       id="path3"
       style="stroke-width:1.47995" />
    <path
       fill="#010101"
       d="m 65.11006,94.414496 q 89.70098,-0.58014 179.39013,0.92793 c 15.35888,18.795304 28.87079,40.079894 42.71715,60.033994 l 83.93809,121.96825 Q 499.3365,460.14315 625.39386,644.41269 c -26.46292,41.57612 -56.16691,81.4414 -84.00764,122.12807 l -194.49597,284.04594 -92.64461,137.2058 c -14.25929,21.1484 -28.00205,46.1299 -44.97704,65.0288 l -182.216831,0.1924 c 16.596103,-30.0577 41.704857,-61.9357 61.641208,-90.3359 L 184.56091,1023.5333 C 271.41894,897.10159 354.31217,767.69514 444.22629,643.41076 Q 394.49566,573.33679 346.19025,502.27423 266.91989,389.80576 189.57201,276.0068 C 172.11309,250.78557 67.486833,104.51957 65.11006,94.414496 Z"
       id="path4"
       style="stroke-width:1.47995" />
    <path
       fill="#010101"
       d="m 1121.9853,95.024226 q 90.8094,-0.68818 181.6337,-0.0606 L 1049.3643,468.94594 c -40.0325,59.06464 -81.92981,117.27829 -120.06804,177.57129 55.00962,82.27315 113.18624,162.88283 170.37134,243.65829 l 137.5166,195.90038 86.9173,122.0511 c 10.1524,14.4887 24.1526,29.9245 31.5671,45.8931 -25.1589,-1.6279 -50.614,-1.0507 -75.8176,-1.0952 L 1166.058,1252.7622 958.46601,952.62919 Q 887.97615,852.27407 819.14393,750.79419 C 795.37598,715.82454 770.60171,681.24116 748.2841,645.3288 821.70423,532.90029 899.83051,423.2274 975.02654,311.94732 l 99.02316,-146.13871 c 15.8947,-23.47786 30.4426,-48.49044 47.9356,-70.784344 z"
       id="path5"
       style="stroke-width:1.47995" />
  </g>
</svg>
