<?xml version="1.0" encoding="UTF-8" standalone="no"?>
<!-- Created with Inkscape (http://www.inkscape.org/) -->

<svg
   width="800"
   height="800"
   viewBox="0 0 211.66666 211.66667"
   version="1.1"
   id="svg1"
   inkscape:version="1.4 (1:1.4+202410161351+e7c3feb100)"
   sodipodi:docname="cabal-cuadrado.svg"
   xmlns:inkscape="http://www.inkscape.org/namespaces/inkscape"
   xmlns:sodipodi="http://sodipodi.sourceforge.net/DTD/sodipodi-0.dtd"
   xmlns="http://www.w3.org/2000/svg"
   xmlns:svg="http://www.w3.org/2000/svg">
  <sodipodi:namedview
     id="namedview1"
     pagecolor="#ffffff"
     bordercolor="#666666"
     borderopacity="1.0"
     inkscape:showpageshadow="2"
     inkscape:pageopacity="0.0"
     inkscape:pagecheckerboard="0"
     inkscape:deskcolor="#d1d1d1"
     inkscape:document-units="px"
     inkscape:zoom="0.51969075"
     inkscape:cx="396.38959"
     inkscape:cy="697.53022"
     inkscape:window-width="1920"
     inkscape:window-height="1027"
     inkscape:window-x="0"
     inkscape:window-y="25"
     inkscape:window-maximized="1"
     inkscape:current-layer="layer1" />
  <defs
     id="defs1" />
  <g
     inkscape:label="Layer 1"
     inkscape:groupmode="layer"
     id="layer1">
    <path
       d="M 190.06924,19.188868 V 170.82353 c 0,14.13332 -11.56363,25.69696 -25.69714,25.69696 H 23.931698 V 19.188868 Z"
       fill="#1f5e90"
       id="path1"
       style="stroke-width:0.0171244" />
    <path
       d="m 111.19759,60.489802 21.42012,21.177986 c 1.76382,1.740701 1.76382,4.588328 0,6.317727 l -21.38553,21.131745 -0.0115,25.0053 45.56064,-44.742087 c 2.5363,-2.501713 2.5363,-6.594115 -0.0115,-9.095827 L 111.19759,35.530906 V 60.490145 Z M 57.220956,80.284304 c -2.536132,2.501712 -2.536132,6.594114 0,9.095826 l 45.560804,44.7421 -0.0116,-25.00531 -21.396831,-21.131748 c -1.763819,-1.729227 -1.763819,-4.576853 0,-6.317726 L 102.79325,60.48946 V 35.530222 L 57.220956,80.283961 Z M 154.5038,149.97433 c -1.85613,0 -3.34338,1.49856 -3.34338,3.34321 v 26.86142 h 19.18332 v -4.95719 h -13.1425 v -25.24744 h -2.69761 z m -20.7283,0.43804 c -1.9599,0 -3.70077,1.25677 -4.34619,3.11272 l -9.01517,26.65404 h 6.34067 l 2.0635,-6.16788 h 11.85132 l 2.01743,6.16788 h 6.32937 L 138.9404,150.41254 h -5.16473 z m 0.94544,4.64604 4.44996,14.07613 h -8.81944 l 4.36931,-14.07613 z m -37.80207,-4.64604 v 29.76659 h 13.43071 c 5.79903,0 8.72731,-2.64008 8.72731,-6.83642 v -3.1819 c 0,-2.90516 -1.71776,-4.91112 -4.65751,-5.49917 2.444,-0.97987 3.5624,-2.36335 3.5624,-4.81883 v -3.07812 c 0,-4.03504 -2.45564,-6.35232 -8.49664,-6.35232 H 96.919042 Z m 6.02952,4.64604 h 5.81033 c 2.2135,0 3.1819,0.77232 3.1819,2.40941 v 2.64008 c 0,1.75218 -0.86462,2.77827 -3.21649,2.77827 h -5.77574 z m 0,12.33543 h 6.73248 c 2.39794,0 3.35485,0.98003 3.35485,2.99747 v 2.23645 c 0,2.19039 -1.16429,2.90516 -3.88502,2.90516 h -6.20231 z M 78.25424,150.41237 c -1.452495,0 -2.70926,0.91086 -3.181894,2.28252 l -9.291902,27.48407 h 6.329199 l 2.063669,-6.16789 h 11.851151 l 2.005958,6.16789 h 6.329371 l -10.07603,-29.76659 z m 1.821529,4.64604 4.449962,14.07613 h -8.830912 l 4.380779,-14.07613 z m -25.316625,-5.56836 c -7.758748,0.0807 -11.101957,3.22796 -11.101957,8.62336 v 13.40776 c 0,5.38376 3.343209,8.54272 11.101957,8.62337 v 0.0232 h 8.358276 v -2.16744 c 0,-1.61381 -1.325776,-2.95123 -2.939926,-2.95123 h -5.41835 v -0.0232 c -3.792896,-0.0923 -5.049488,-1.44102 -5.049488,-4.48455 v -11.44788 c 0,-3.04352 1.256764,-4.39242 5.049488,-4.49602 h 8.692545 v -2.1558 c 0,-1.62545 -1.31413,-2.9514 -2.951228,-2.9514 h -5.741317 z"
       fill="#fefefe"
       id="path2"
       style="stroke-width:0.0171244" />
  </g>
</svg>
