<?xml version="1.0" encoding="UTF-8" standalone="no"?>
<!-- Created with Inkscape (http://www.inkscape.org/) -->

<svg
   width="800"
   height="800"
   viewBox="0 0 211.66666 211.66667"
   version="1.1"
   id="svg1"
   xml:space="preserve"
   sodipodi:docname="cuota-simple.svg"
   inkscape:version="1.4 (1:1.4+202410161351+e7c3feb100)"
   xmlns:inkscape="http://www.inkscape.org/namespaces/inkscape"
   xmlns:sodipodi="http://sodipodi.sourceforge.net/DTD/sodipodi-0.dtd"
   xmlns="http://www.w3.org/2000/svg"
   xmlns:svg="http://www.w3.org/2000/svg"><sodipodi:namedview
     id="namedview1"
     pagecolor="#ffffff"
     bordercolor="#666666"
     borderopacity="1.0"
     inkscape:showpageshadow="2"
     inkscape:pageopacity="0.0"
     inkscape:pagecheckerboard="0"
     inkscape:deskcolor="#d1d1d1"
     inkscape:zoom="0.64605759"
     inkscape:cx="329.69197"
     inkscape:cy="293.31751"
     inkscape:window-width="1920"
     inkscape:window-height="1027"
     inkscape:window-x="0"
     inkscape:window-y="25"
     inkscape:window-maximized="1"
     inkscape:current-layer="layer-MC0" /><defs
     id="defs1"><clipPath
       clipPathUnits="userSpaceOnUse"
       id="clipPath3"><path
         d="M 0,239.433 H 420.945 V 0 H 0 Z"
         transform="translate(-186.5767,-140.84571)"
         id="path3" /></clipPath><clipPath
       clipPathUnits="userSpaceOnUse"
       id="clipPath5"><path
         d="M 0,239.433 H 420.945 V 0 H 0 Z"
         transform="translate(-244.22911,-154.29591)"
         id="path5" /></clipPath><clipPath
       clipPathUnits="userSpaceOnUse"
       id="clipPath7"><path
         d="M 0,239.433 H 420.945 V 0 H 0 Z"
         transform="translate(-270.31701,-140.84571)"
         id="path7" /></clipPath><clipPath
       clipPathUnits="userSpaceOnUse"
       id="clipPath9"><path
         d="M 0,239.433 H 420.945 V 0 H 0 Z"
         transform="translate(-300.22221,-128.6944)"
         id="path9" /></clipPath><clipPath
       clipPathUnits="userSpaceOnUse"
       id="clipPath11"><path
         d="M 0,239.433 H 420.945 V 0 H 0 Z"
         transform="translate(-319.60801,-135.8955)"
         id="path11" /></clipPath><clipPath
       clipPathUnits="userSpaceOnUse"
       id="clipPath13"><path
         d="M 0,239.433 H 420.945 V 0 H 0 Z"
         transform="translate(-185.87751,-82.752002)"
         id="path13" /></clipPath><clipPath
       clipPathUnits="userSpaceOnUse"
       id="clipPath15"><path
         d="M 0,239.433 H 420.945 V 0 H 0 Z"
         id="path15" /></clipPath><clipPath
       clipPathUnits="userSpaceOnUse"
       id="clipPath17"><path
         d="M 0,239.433 H 420.945 V 0 H 0 Z"
         transform="translate(-276.3892,-95.902405)"
         id="path17" /></clipPath><clipPath
       clipPathUnits="userSpaceOnUse"
       id="clipPath19"><path
         d="M 0,239.433 H 420.945 V 0 H 0 Z"
         transform="translate(-302.64311,-93.952202)"
         id="path19" /></clipPath><clipPath
       clipPathUnits="userSpaceOnUse"
       id="clipPath21"><path
         d="M 0,239.433 H 420.945 V 0 H 0 Z"
         id="path21" /></clipPath><clipPath
       clipPathUnits="userSpaceOnUse"
       id="clipPath23"><path
         d="M 0,239.433 H 420.945 V 0 H 0 Z"
         transform="translate(-339.18121,-96.5527)"
         id="path23" /></clipPath><clipPath
       clipPathUnits="userSpaceOnUse"
       id="clipPath25"><path
         d="M 0,239.433 H 420.945 V 0 H 0 Z"
         transform="translate(-70.532002,-129.3276)"
         id="path25" /></clipPath><clipPath
       clipPathUnits="userSpaceOnUse"
       id="clipPath27"><path
         d="M 0,239.433 H 420.945 V 0 H 0 Z"
         transform="translate(-132.603,-90.707702)"
         id="path27" /></clipPath><clipPath
       clipPathUnits="userSpaceOnUse"
       id="clipPath29"><path
         d="M 0,239.433 H 420.945 V 0 H 0 Z"
         transform="translate(-99.2077,-130.1485)"
         id="path29" /></clipPath></defs><g
     id="layer-MC0"
     transform="matrix(0.37712766,0,0,0.37712769,-1.0934561e-6,-1.5095736e-4)"><path
       id="path1"
       d="M 0,561.26034 H 561.25999 V 0.00134131 H 0 Z"
       style="fill:#ffffff;fill-opacity:1;fill-rule:nonzero;stroke:none;stroke-width:1.76791"
       sodipodi:insensitive="true" /><g
       id="g1"
       transform="matrix(1.3336662,0,0,1.3336662,-193.12898,212.92283)"><path
         id="path2"
         d="m 0,0 c 0,8.101 6.251,13.851 15.001,13.851 5.65,0 10.101,-2.451 12.051,-6.851 l -6.05,-3.25 c -1.45,2.55 -3.601,3.7 -6.051,3.7 -3.95,0 -7.05,-2.75 -7.05,-7.45 0,-4.7 3.1,-7.451 7.05,-7.451 2.45,0 4.601,1.1 6.051,3.7 l 6.05,-3.3 c -1.95,-4.3 -6.401,-6.801 -12.051,-6.801 C 6.251,-13.852 0,-8.101 0,0"
         style="fill:#557aad;fill-opacity:1;fill-rule:nonzero;stroke:none"
         transform="matrix(1.3333329,0,0,-1.3333329,248.76884,131.44972)"
         clip-path="url(#clipPath3)" /><path
         id="path4"
         d="m 0,0 v -26.901 h -7.4 v 3.2 c -2.051,-2.351 -5.051,-3.601 -8.351,-3.601 -6.751,0 -11.501,3.801 -11.501,12.102 V 0 h 7.801 v -14.051 c 0,-4.5 2,-6.5 5.45,-6.5 3.6,0 6.2,2.3 6.2,7.25 V 0 Z"
         style="fill:#557aad;fill-opacity:1;fill-rule:nonzero;stroke:none"
         transform="matrix(1.3333329,0,0,-1.3333329,325.63868,113.51613)"
         clip-path="url(#clipPath5)" /><path
         id="path6"
         d="m 0,0 c 0,4.65 -2.95,7.45 -6.85,7.45 -3.9,0 -6.9,-2.8 -6.9,-7.45 0,-4.65 3,-7.451 6.9,-7.451 C -2.95,-7.451 0,-4.65 0,0 m -21.65,0 c 0,8.101 6.25,13.851 14.8,13.851 C 1.7,13.851 7.901,8.101 7.901,0 7.901,-8.101 1.7,-13.852 -6.85,-13.852 c -8.55,0 -14.8,5.751 -14.8,13.852"
         style="fill:#557aad;fill-opacity:1;fill-rule:nonzero;stroke:none"
         transform="matrix(1.3333329,0,0,-1.3333329,360.42255,131.44972)"
         clip-path="url(#clipPath7)" /><path
         id="path8"
         d="m 0,0 c -1.6,-1.149 -3.95,-1.7 -6.351,-1.7 -6.349,0 -10.05,3.251 -10.05,9.651 v 11.05 h -4.15 v 6.001 h 4.15 v 6.55 h 7.8 v -6.55 H -1.9 V 19.001 H -8.601 V 8.051 c 0,-2.3 1.25,-3.55 3.351,-3.55 1.149,0 2.3,0.35 3.15,1 z"
         style="fill:#557aad;fill-opacity:1;fill-rule:nonzero;stroke:none"
         transform="matrix(1.3333329,0,0,-1.3333329,400.29613,147.65146)"
         clip-path="url(#clipPath9)" /><path
         id="path10"
         d="m 0,0 v 2.75 h -5.351 c -3.65,0 -4.8,-1.351 -4.8,-3.15 0,-1.951 1.65,-3.25 4.4,-3.25 C -3.15,-3.65 -0.9,-2.45 0,0 M 7.8,6.85 V -8.501 H 0.5 v 3.351 c -1.45,-2.451 -4.251,-3.751 -8.201,-3.751 -6.3,0 -10.05,3.501 -10.05,8.15 0,4.751 3.35,8.051 11.55,8.051 L 0,7.3 c 0,3.35 -2,5.301 -6.201,5.301 -2.85,0 -5.8,-0.951 -7.75,-2.5 l -2.8,5.45 c 2.95,2.099 7.3,3.25 11.601,3.25 C 3.05,18.801 7.8,15 7.8,6.85"
         style="fill:#557aad;fill-opacity:1;fill-rule:nonzero;stroke:none"
         transform="matrix(1.3333329,0,0,-1.3333329,426.14385,138.04999)"
         clip-path="url(#clipPath11)" /><path
         id="path12"
         d="M 0,0 2.85,6.5 C 5.35,4.95 9,4 12.301,4 c 3.2,0 4.25,0.7 4.25,1.85 0,3.65 -16.001,-0.5 -16.001,10.35 0,5.101 4.7,9.001 13.201,9.001 3.8,0 8,-0.8 10.7,-2.3 l -2.85,-6.451 c -2.701,1.5 -5.401,2 -7.8,2 -3.2,0 -4.351,-0.899 -4.351,-1.899 0,-3.75 15.951,0.3 15.951,-10.451 0,-5 -4.6,-8.901 -13.401,-8.901 C 7.4,-2.801 2.649,-1.65 0,0"
         style="fill:#202c4d;fill-opacity:1;fill-rule:nonzero;stroke:none"
         transform="matrix(1.3333329,0,0,-1.3333329,247.83658,208.90797)"
         clip-path="url(#clipPath13)" /><path
         id="path14"
         d="m 215.062,107.503 h 9.501 V 80.401 h -9.501 z m -1.05,8.051 c 0,2.849 2.3,5.05 5.801,5.05 3.5,0 5.8,-2.05 5.8,-4.901 0,-3 -2.3,-5.2 -5.8,-5.2 -3.501,0 -5.801,2.2 -5.801,5.051"
         style="fill:#202c4d;fill-opacity:1;fill-rule:nonzero;stroke:none"
         transform="matrix(1.3333329,0,0,-1.3333329,-1.5620343e-5,319.24393)"
         clip-path="url(#clipPath15)" /><path
         id="path16"
         d="M 0,0 V -15.501 H -9.5 V -1.55 c 0,3.901 -1.601,5.55 -4.101,5.55 -2.75,0 -4.75,-1.85 -4.75,-6.05 v -13.451 h -9.501 V -1.55 c 0,3.901 -1.549,5.55 -4.1,5.55 -2.8,0 -4.8,-1.85 -4.8,-6.05 v -13.451 h -9.501 v 27.102 h 9.051 v -2.85 c 2.05,2.199 4.9,3.3 8.1,3.3 3.701,0 6.851,-1.351 8.751,-4.25 2.15,2.7 5.5,4.25 9.401,4.25 C -4.65,12.051 0,8.4 0,0"
         style="fill:#202c4d;fill-opacity:1;fill-rule:nonzero;stroke:none"
         transform="matrix(1.3333329,0,0,-1.3333329,368.51881,191.3741)"
         clip-path="url(#clipPath17)" /><path
         id="path18"
         d="m 0,0 c 0,4.101 -2.5,6.45 -5.7,6.45 -3.2,0 -5.701,-2.349 -5.701,-6.45 0,-4.101 2.501,-6.45 5.701,-6.45 3.2,0 5.7,2.349 5.7,6.45 m 9.601,0 c 0,-8.601 -5.951,-14.001 -13.301,-14.001 -3.151,0 -5.7,0.95 -7.551,2.851 v -12.101 h -9.501 v 36.802 h 9.051 v -2.7 c 1.8,2.15 4.45,3.15 8.001,3.15 7.35,0 13.301,-5.4 13.301,-14.001"
         style="fill:#202c4d;fill-opacity:1;fill-rule:nonzero;stroke:none"
         transform="matrix(1.3333329,0,0,-1.3333329,403.52399,193.97437)"
         clip-path="url(#clipPath19)" /><path
         id="path20"
         d="m 316.331,117.504 h 9.501 V 80.401 h -9.501 z"
         style="fill:#202c4d;fill-opacity:1;fill-rule:nonzero;stroke:none"
         transform="matrix(1.3333329,0,0,-1.3333329,-1.5620343e-5,319.24393)"
         clip-path="url(#clipPath21)" /><path
         id="path22"
         d="M 0,0 H 11.101 C 10.601,2.85 8.5,4.649 5.55,4.649 2.6,4.649 0.55,2.85 0,0 M 19.851,-5.001 H 0.149 c 0.801,-2.75 3.151,-4.35 6.651,-4.35 2.65,0 4.4,0.75 6.251,2.35 l 5,-5.2 C 15.45,-15.102 11.65,-16.602 6.5,-16.602 c -9.65,0 -15.901,5.951 -15.901,14.051 0,8.151 6.35,13.951 14.901,13.951 8.001,0 14.501,-5.1 14.501,-14.05 0,-0.701 -0.1,-1.601 -0.15,-2.351"
         style="fill:#202c4d;fill-opacity:1;fill-rule:nonzero;stroke:none"
         transform="matrix(1.3333329,0,0,-1.3333329,452.24145,190.50704)"
         clip-path="url(#clipPath23)" /></g><g
       id="g2"
       transform="matrix(1.1088422,0,0,1.1088422,-31.812314,-7.8077179)"><path
         id="path24"
         d="m 0,0 30.737,30.737 c 1.257,1.257 3.296,1.257 4.553,0 L 82.345,-16.318 49.332,-49.332 c -1.258,-1.257 -3.296,-1.257 -4.554,0 L 0,-4.554 C -1.257,-3.296 -1.257,-1.257 0,0"
         style="fill:#557aad;fill-opacity:1;fill-rule:nonzero;stroke:none"
         transform="matrix(2.7566131,0,0,-2.7566131,149.68104,154.5252)"
         clip-path="url(#clipPath25)" /><path
         id="path26"
         d="m 0,0 -8.196,-8.196 -51.36,51.359 8.197,8.196 z"
         style="fill:#ffffff;fill-opacity:1;fill-rule:nonzero;stroke:none"
         transform="matrix(2.7566131,0,0,-2.7566131,320.78681,260.98532)"
         clip-path="url(#clipPath27)" /><path
         id="path28"
         d="m 0,0 c -0.482,-0.482 -0.451,-1.272 0.062,-1.719 3.353,-2.917 7.531,-4.375 11.714,-4.375 4.575,0 9.145,1.745 12.635,5.235 l 6.489,6.489 22.767,-22.766 6.87,6.87 c 9.667,9.667 10.223,25.422 0.793,35.319 -4.935,5.18 -11.54,7.773 -18.133,7.779 -6.402,-0.006 -12.816,-2.451 -17.701,-7.336 z"
         style="fill:#202c4d;fill-opacity:1;fill-rule:nonzero;stroke:none"
         transform="matrix(2.7566131,0,0,-2.7566131,228.72885,152.26228)"
         clip-path="url(#clipPath29)" /></g></g></svg>
