<?xml version="1.0" encoding="UTF-8" standalone="no"?>
<!-- Uploaded to: SVG Repo, www.svgrepo.com, Generator: SVG Repo Mixer Tools -->

<svg
   width="800px"
   height="800px"
   viewBox="0 -9 58 58"
   fill="none"
   version="1.1"
   id="svg39"
   sodipodi:docname="diners.svg"
   inkscape:version="1.4 (1:1.4+202410161351+e7c3feb100)"
   xmlns:inkscape="http://www.inkscape.org/namespaces/inkscape"
   xmlns:sodipodi="http://sodipodi.sourceforge.net/DTD/sodipodi-0.dtd"
   xmlns="http://www.w3.org/2000/svg"
   xmlns:svg="http://www.w3.org/2000/svg">
  <defs
     id="defs39" />
  <sodipodi:namedview
     id="namedview39"
     pagecolor="#ffffff"
     bordercolor="#666666"
     borderopacity="1.0"
     inkscape:showpageshadow="2"
     inkscape:pageopacity="0.0"
     inkscape:pagecheckerboard="0"
     inkscape:deskcolor="#d1d1d1"
     inkscape:zoom="0.50036982"
     inkscape:cx="379.71914"
     inkscape:cy="442.67258"
     inkscape:window-width="1920"
     inkscape:window-height="1027"
     inkscape:window-x="0"
     inkscape:window-y="25"
     inkscape:window-maximized="1"
     inkscape:current-layer="svg39" />
  <rect
     style="fill:#ffffff;fill-rule:evenodd;stroke-width:0.529079;stroke-linecap:square;paint-order:fill markers stroke"
     id="rect39"
     width="58.102024"
     height="58"
     x="-4.8849813e-15"
     y="-9"
     ry="0" />
  <g
     id="g39"
     transform="translate(-0.48687845,0.78445719)">
    <path
       fill-rule="evenodd"
       clip-rule="evenodd"
       d="m 4.0002771,24.222883 c 0,-1.009992 -0.5276834,-0.943681 -1.0324733,-0.954239 v -0.292027 c 0.4376932,0.02125 0.8864983,0.02125 1.3253504,0.02125 0.471467,0 1.111571,-0.02125 1.9431793,-0.02125 2.9084256,0 4.4926865,1.942085 4.4926865,3.930908 0,1.113 -0.651524,3.90889 -4.6277556,3.90889 -0.5723381,0 -1.1009097,-0.02213 -1.6285932,-0.02213 -0.5050217,0 -1.0000775,0.01045 -1.5048674,0.02213 v -0.292157 c 0.6731948,-0.06799 0.9998457,-0.09 1.0324733,-0.853547 z m 1.1007033,5.267564 c 0,0.865138 0.6183815,0.965828 1.1684441,0.965828 2.4267353,0 3.2231158,-1.830321 3.2231158,-3.503683 0,-2.100201 -1.3476006,-3.61622 -3.5150147,-3.61622 -0.4614755,0 -0.67389,0.03284 -0.8765452,0.04494 z"
       fill="#1a1919"
       id="path1"
       style="stroke-width:1.28759" />
    <path
       fill-rule="evenodd"
       clip-rule="evenodd"
       d="m 11.12251,30.524389 h 0.21284 c 0.314432,0 0.539246,0 0.539246,-0.371472 v -3.043496 c 0,-0.493407 -0.168159,-0.561651 -0.584311,-0.785694 v -0.179232 c 0.527915,-0.158762 1.157421,-0.370572 1.201843,-0.404435 0.07905,-0.04506 0.145499,-0.05704 0.202667,-0.05704 0.05498,0 0.07817,0.06746 0.07817,0.158246 v 4.311651 c 0,0.371472 0.247476,0.371472 0.562422,0.371472 h 0.19005 v 0.292156 c -0.381902,0 -0.775651,-0.02214 -1.178669,-0.02214 -0.404304,0 -0.808997,0.01045 -1.224247,0.02214 z m 1.201586,-6.570485 c -0.292541,0 -0.55032,-0.269495 -0.55032,-0.561393 0,-0.281339 0.270011,-0.540148 0.55032,-0.540148 0.291513,0 0.550578,0.236662 0.550578,0.540148 0,0.303744 -0.247734,0.561393 -0.550578,0.561393 z"
       fill="#1a1919"
       id="path2"
       style="stroke-width:1.28759" />
    <path
       fill-rule="evenodd"
       clip-rule="evenodd"
       d="m 14.592845,27.17689 c 0,-0.414735 -0.123996,-0.527013 -0.651009,-0.740754 v -0.213227 c 0.482076,-0.157086 0.942263,-0.303743 1.482024,-0.540019 0.03399,0 0.06657,0.02254 0.06657,0.11228 v 0.730325 c 0.641225,-0.459671 1.191673,-0.842604 1.945303,-0.842604 0.953339,0 1.290174,0.696591 1.290174,1.572674 v 2.897225 c 0,0.3716 0.247862,0.3716 0.561909,0.3716 h 0.202667 v 0.292156 c -0.394391,0 -0.78698,-0.02214 -1.1909,-0.02214 -0.404563,0 -0.809256,0.01029 -1.213561,0.02214 V 30.52439 h 0.202668 c 0.31456,0 0.538216,0 0.538216,-0.3716 v -2.907655 c 0,-0.640967 -0.391173,-0.955141 -1.032139,-0.955141 -0.359754,0 -0.932608,0.291383 -1.304337,0.539632 v 3.323164 c 0,0.3716 0.248249,0.3716 0.56281,0.3716 h 0.201767 v 0.292156 c -0.392848,0 -0.78608,-0.02214 -1.191158,-0.02214 -0.403405,0 -0.808225,0.01029 -1.212145,0.02214 V 30.52439 h 0.20254 c 0.314174,0 0.538602,0 0.538602,-0.3716 v -2.975899"
       fill="#1a1919"
       id="path3"
       style="stroke-width:1.28759" />
    <path
       fill-rule="evenodd"
       clip-rule="evenodd"
       d="m 20.344158,27.716909 c -0.02291,0.10108 -0.02291,0.269238 0,0.651397 0.06618,1.066645 0.75286,1.94234 1.650444,1.94234 0.618563,0 1.101798,-0.337092 1.516661,-0.751827 l 0.156831,0.157215 c -0.516842,0.685003 -1.156778,1.269443 -2.077025,1.269443 -1.786414,0 -2.145655,-1.730661 -2.145655,-2.449013 0,-2.201663 1.482157,-2.853574 2.26759,-2.853574 0.910849,0 1.88865,0.572853 1.899079,1.763752 0,0.06825 0,0.134812 -0.01045,0.202412 l -0.10159,0.06785 z m 1.988824,-0.359755 c 0.280183,0 0.313016,-0.14627 0.313016,-0.281597 0,-0.571823 -0.347909,-1.032396 -0.977158,-1.032396 -0.684487,0 -1.156521,0.504479 -1.291074,1.313993 z"
       fill="#1a1919"
       id="path4"
       style="stroke-width:1.28759" />
    <path
       fill-rule="evenodd"
       clip-rule="evenodd"
       d="m 23.870889,30.524389 h 0.303488 c 0.313272,0 0.538215,0 0.538215,-0.3716 v -3.155388 c 0,-0.347524 -0.415249,-0.416025 -0.583925,-0.505769 v -0.167905 c 0.819813,-0.348424 1.269315,-0.640837 1.372065,-0.640837 0.06567,0 0.0994,0.03387 0.0994,0.146658 v 1.011022 h 0.0237 c 0.279923,-0.437911 0.752471,-1.15768 1.437216,-1.15768 0.280698,0 0.639678,0.190823 0.639678,0.595514 0,0.302972 -0.212325,0.573883 -0.526754,0.573883 -0.349327,0 -0.349327,-0.270911 -0.742817,-0.270911 -0.190565,0 -0.819685,0.259194 -0.819685,0.933509 v 2.637904 c 0,0.3716 0.224429,0.3716 0.539118,0.3716 h 0.628219 v 0.292155 c -0.617661,-0.01184 -1.087763,-0.02214 -1.571256,-0.02214 -0.460575,0 -0.932478,0.01029 -1.336657,0.02214 v -0.292155"
       fill="#1a1919"
       id="path5"
       style="stroke-width:1.28759" />
    <path
       fill-rule="evenodd"
       clip-rule="evenodd"
       d="m 28.194644,29.254687 c 0.146402,0.741271 0.594743,1.371164 1.41623,1.371164 0.661567,0 0.908529,-0.404821 0.908529,-0.797667 0,-1.325968 -2.447852,-0.898744 -2.447852,-2.706919 0,-0.629633 0.505768,-1.438245 1.741346,-1.438245 0.358726,0 0.841575,0.101858 1.279231,0.326663 l 0.07893,1.144675 h -0.258163 c -0.112281,-0.707148 -0.504868,-1.111325 -1.224506,-1.111325 -0.449244,0 -0.875568,0.257905 -0.875568,0.741012 0,1.314894 2.605069,0.909816 2.605069,2.673311 0,0.740755 -0.594614,1.527993 -1.931655,1.527993 -0.448857,0 -0.977674,-0.157474 -1.369617,-0.38216 l -0.124124,-1.291847 0.202151,-0.05665"
       fill="#1a1919"
       id="path6"
       style="stroke-width:1.28759" />
    <path
       fill-rule="evenodd"
       clip-rule="evenodd"
       d="M 41.559914,25.008961 H 41.27986 c -0.213741,-1.312834 -1.14609,-1.841393 -2.403173,-1.841393 -1.293135,0 -3.168135,0.864235 -3.168135,3.559822 0,2.269649 1.617867,3.898461 3.347111,3.898461 1.11094,0 2.03402,-0.76406 2.258191,-1.944145 l 0.25842,0.06709 -0.25842,1.640402 c -0.471776,0.292412 -1.741348,0.596157 -2.48339,0.596157 -2.627087,0 -4.289248,-1.696282 -4.289248,-4.223323 0,-2.303125 2.055394,-3.954727 4.256799,-3.954727 0.90943,0 1.785255,0.292928 2.650262,0.596415 l 0.111635,1.605248"
       fill="#1a1919"
       id="path7"
       style="stroke-width:1.28759" />
    <path
       fill-rule="evenodd"
       clip-rule="evenodd"
       d="m 41.965507,30.524389 h 0.212582 c 0.315591,0 0.539762,0 0.539762,-0.371472 v -6.254508 c 0,-0.730841 -0.168162,-0.752987 -0.595514,-0.876856 v -0.179877 c 0.449112,-0.145754 0.921274,-0.347522 1.15768,-0.483364 0.121934,-0.06631 0.212581,-0.123738 0.245673,-0.123738 0.06863,0 0.0909,0.06824 0.0909,0.158502 v 7.759841 c 0,0.371472 0.247349,0.371472 0.561393,0.371472 h 0.190178 v 0.292155 c -0.380742,0 -0.773846,-0.02214 -1.178411,-0.02214 -0.404176,0 -0.808094,0.01045 -1.224246,0.02214 v -0.292155"
       fill="#1a1919"
       id="path8"
       style="stroke-width:1.28759" />
    <path
       fill-rule="evenodd"
       clip-rule="evenodd"
       d="m 49.177086,30.198111 c 0,0.202926 0.122836,0.213483 0.313273,0.213483 0.135455,0 0.30323,-0.01055 0.450401,-0.01055 v 0.236402 c -0.483364,0.04443 -1.40477,0.28044 -1.61851,0.347909 l -0.05601,-0.03425 v -0.909817 c -0.673157,0.550062 -1.190386,0.944067 -1.988954,0.944067 -0.60633,0 -1.234935,-0.394005 -1.234935,-1.336141 v -2.87623 c 0,-0.292413 -0.04468,-0.573239 -0.67277,-0.628606 v -0.213999 c 0.404691,-0.01102 1.301375,-0.07816 1.447774,-0.07816 0.12464,0 0.12464,0.07816 0.12464,0.325763 v 2.897482 c 0,0.337221 0,1.302148 0.97703,1.302148 0.381129,0 0.886641,-0.291255 1.358158,-0.683844 v -3.022124 c 0,-0.224428 -0.53886,-0.34791 -0.942522,-0.459673 v -0.202024 c 1.009863,-0.06851 1.6395,-0.157731 1.751778,-0.157731 0.09065,0 0.09065,0.07816 0.09065,0.202153 v 4.143748"
       fill="#1a1919"
       id="path9"
       style="stroke-width:1.28759" />
    <path
       fill-rule="evenodd"
       clip-rule="evenodd"
       d="m 51.411455,26.491759 c 0.449114,-0.381128 1.05583,-0.808869 1.673492,-0.808869 1.303177,0 2.089514,1.135663 2.089514,2.359653 0,1.470951 -1.07875,2.942934 -2.685673,2.942934 -0.830242,0 -1.268412,-0.270524 -1.560955,-0.394004 l -0.335934,0.258421 -0.235502,-0.123095 c 0.100429,-0.662598 0.157086,-1.313994 0.157086,-1.999513 v -4.828877 c 0,-0.730841 -0.169189,-0.752987 -0.596028,-0.876856 v -0.179877 c 0.449758,-0.145754 0.921019,-0.347522 1.156778,-0.483364 0.123995,-0.06631 0.213483,-0.123738 0.247735,-0.123738 0.06683,0 0.08948,0.0685 0.08948,0.158502 z m 0,3.055214 c 0,0.426581 0.404692,1.14609 1.156907,1.14609 1.201587,0 1.706839,-1.179569 1.706839,-2.179646 0,-1.212788 -0.919988,-2.223424 -1.795812,-2.223424 -0.417311,0 -0.764834,0.270009 -1.067934,0.52856 z"
       fill="#1a1919"
       id="path10"
       style="stroke-width:1.28759" />
    <path
       fill-rule="evenodd"
       clip-rule="evenodd"
       d="m 9.01806,36.326435 0.012234,-0.01211 v -2.291151 c 0,-0.501519 -0.3488104,-0.574912 -0.5320358,-0.574912 H 8.3635758 v -0.183355 c 0.2877788,0 0.5688609,0.02421 0.8557377,0.02421 0.2505673,0 0.5021641,-0.02421 0.751828,-0.02421 v 0.183355 H 9.880239 c -0.2575195,0 -0.5447823,0.0488 -0.5447823,0.776162 v 2.780696 c 0,0.214258 0.00602,0.427999 0.036056,0.617664 H 9.1392314 L 5.9923422,34.114086 v 2.518543 c 0,0.532162 0.1033964,0.714618 0.5740114,0.714618 h 0.104033 v 0.183739 c -0.2627986,0 -0.5253404,-0.02383 -0.7881389,-0.02383 -0.2743866,0 -0.5559073,0.02383 -0.8312086,0.02383 v -0.183739 h 0.085832 c 0.4215471,0 0.5499208,-0.287264 0.5499208,-0.774749 v -2.574937 c 0,-0.341987 -0.2820363,-0.549288 -0.5559339,-0.549288 H 5.05104 v -0.183355 c 0.2318062,0 0.4705528,0.02421 0.7023208,0.02421 0.1839979,0 0.3611709,-0.02421 0.5443963,-0.02421 l 2.7203087,3.061522"
       fill="#1a1919"
       id="path11"
       style="stroke-width:1.28759" />
    <path
       fill-rule="evenodd"
       clip-rule="evenodd"
       d="m 9.3715052,37.648411 -0.2515967,-0.0087 -3.101566,-3.456814 v 2.449526 c 0.00738,0.531393 0.088073,0.682555 0.5482599,0.68835 h 0.1309477 v 0.236145 h -0.027174 c -0.2643434,0 -0.5273998,-0.02446 -0.7881389,-0.02446 -0.2736142,0 -0.5544907,0.02446 -0.8314017,0.02446 H 5.024003 V 37.320805 H 5.1369 c 0.403868,-0.0022 0.5193653,-0.261898 0.5237433,-0.74861 V 33.998322 C 5.6595083,33.672817 5.3925282,33.474784 5.1311067,33.474784 H 5.0240044 v -0.23666 h 0.026833 c 0.2336468,0 0.4728057,0.02383 0.7021269,0.02383 0.1823235,0 0.3588535,-0.02383 0.564869,-0.01428 l 2.6859294,3.023281 v -2.247899 c -0.00306,-0.485297 -0.327436,-0.544268 -0.505253,-0.54826 H 8.3367872 v -0.23666 h 0.027038 c 0.2886795,0 0.5700194,0.02383 0.8554797,0.02383 0.2487646,0 0.4992034,-0.02383 0.7518284,-0.02383 h 0.026909 v 0.23666 H 9.8802249 c -0.2523684,0.0065 -0.5111761,0.02872 -0.5186441,0.749511 v 2.780697 c 0,0.213999 0.0067,0.427354 0.036056,0.612767 l 0.00567,0.03065 z M 9.1394802,37.5951 h 0.2022816 c -0.027298,-0.183869 -0.032194,-0.386793 -0.032194,-0.590106 v -2.780693 c 0,-0.733545 0.3074784,-0.802688 0.5706634,-0.803203 h 0.064378 V 33.29105 c -0.2409096,0.0019 -0.4822068,0.02408 -0.7253051,0.02408 -0.2799237,0 -0.5519928,-0.02214 -0.8281835,-0.02408 l -6.429e-4,0.130048 h 0.1080317 c 0.1878602,5.15e-4 0.5581734,0.08395 0.5581734,0.601952 l -0.00806,2.310337 -0.011973,0.01184 -0.020856,0.01969 -2.7179912,-3.073884 c -0.1815511,0 -0.3583391,0.02408 -0.5447827,0.02408 -0.2239139,0 -0.4534408,-0.02214 -0.6750621,-0.02408 l -0.00116,0.130048 h 0.054362 c 0.2866321,5.15e-4 0.5815563,0.219279 0.5815563,0.57723 v 2.573908 c 0,0.48903 -0.1362279,0.801274 -0.5757622,0.802947 l -0.058999,-0.0016 v 0.131205 c 0.2646537,-0.002 0.5374183,-0.02458 0.8043368,-0.02458 0.2549445,0 0.5093743,0.02254 0.761615,0.02458 v -0.129616 h -0.07726 C 6.0855969,37.373438 5.9664941,37.163857 5.9661079,36.632466 v -2.587042 z m -0.1211624,-1.268798 0.019187,-0.01764 z m -0.014552,-0.01211 v -0.0022 l -0.00489,-0.0039 z"
       fill="#1a1919"
       id="path12"
       style="stroke-width:1.28759" />
    <path
       fill-rule="evenodd"
       clip-rule="evenodd"
       d="m 10.887007,33.57033 c -0.458899,0 -0.476795,0.1106 -0.568344,0.556114 h -0.183484 c 0.02408,-0.171123 0.05434,-0.342116 0.0734,-0.519288 0.02446,-0.171895 0.03669,-0.342373 0.03669,-0.51916 h 0.146529 c 0.04919,0.183482 0.201895,0.176787 0.367739,0.176787 h 3.1523 c 0.165842,0 0.318295,-0.006 0.330784,-0.189533 l 0.146014,0.02499 c -0.0237,0.164553 -0.04866,0.329753 -0.06645,0.495081 -0.01209,0.164941 -0.01209,0.329496 -0.01209,0.494437 l -0.183611,0.06799 c -0.01249,-0.225846 -0.04275,-0.587403 -0.452333,-0.587403 h -1.002395 v 3.251443 c 0,0.471519 0.214257,0.525469 0.507185,0.525469 h 0.116527 v 0.183611 c -0.238465,0 -0.666461,-0.02356 -0.99583,-0.02356 -0.367223,0 -0.79535,0.02356 -1.033941,0.02356 v -0.183611 h 0.116657 c 0.336835,0 0.507056,-0.03012 0.507056,-0.512723 v -3.264187 h -1.002392"
       fill="#1a1919"
       id="path13"
       style="stroke-width:1.28759" />
    <path
       fill-rule="evenodd"
       clip-rule="evenodd"
       d="m 13.295976,37.556991 c -0.24091,0 -0.668393,-0.02421 -0.996472,-0.02421 -0.36658,0 -0.794191,0.02421 -1.033813,0.02421 h -0.02615 v -0.236144 h 0.142795 c 0.336835,-0.0078 0.472162,-0.01224 0.47976,-0.486328 v -3.23792 H 10.887 v -0.05356 h 1.028022 v 3.291486 c 0,0.490705 -0.197776,0.540276 -0.532681,0.540663 h -0.09051 v 0.129146 c 0.241039,-0.0016 0.652814,-0.02408 1.007675,-0.02408 0.318165,0 0.726463,0.02241 0.968659,0.02408 v -0.129146 h -0.08923 c -0.295761,-3.87e-4 -0.533581,-0.073 -0.533581,-0.553282 v -3.278867 h 1.02879 c 0.409972,0.0016 0.464309,0.350098 0.477055,0.577488 l 0.132368,-0.0488 c 0,-0.159662 6.42e-4,-0.319453 0.01147,-0.480016 0.01815,-0.157988 0.04031,-0.313273 0.06321,-0.469844 l -0.09284,-0.01558 c -0.02846,0.177947 -0.200737,0.187474 -0.353833,0.185158 h -3.183972 c -0.143954,1.28e-4 -0.300526,-0.0067 -0.355506,-0.177304 H 10.27115 c -9.02e-4,0.168934 -0.01249,0.332975 -0.03554,0.495855 -0.01828,0.167903 -0.04634,0.32911 -0.06851,0.491089 h 0.130434 c 0.08022,-0.426322 0.132622,-0.563968 0.589461,-0.558044 v 0.05356 c -0.452719,0.0089 -0.442804,0.0846 -0.542462,0.536155 l -0.0045,0.02086 h -0.235402 l 0.0032,-0.03167 c 0.02498,-0.170477 0.05601,-0.342244 0.07378,-0.519675 0.0255,-0.169576 0.03694,-0.339024 0.03694,-0.514266 v -0.02703 h 0.194172 l 0.0047,0.01918 c 0.04107,0.154125 0.154255,0.155284 0.310182,0.157989 h 3.183972 c 0.170222,-0.0026 0.294218,-0.005 0.304646,-0.164943 l 0.002,-0.02884 0.02781,0.0056 0.172795,0.0273 -0.0045,0.02703 c -0.02433,0.164039 -0.04816,0.328466 -0.0667,0.492378 -0.01137,0.163782 -0.01137,0.32795 -0.01137,0.49315 v 0.01854 l -0.01776,0.0071 -0.216316,0.07919 -0.0013,-0.03541 c -0.01687,-0.229963 -0.04043,-0.562551 -0.42684,-0.562551 h -0.975361 v 3.225304 c 0.0059,0.460831 0.188759,0.49315 0.480272,0.498945 h 0.142924 v 0.236145 h -0.02587"
       fill="#1a1919"
       id="path14"
       style="stroke-width:1.28759" />
    <path
       fill-rule="evenodd"
       clip-rule="evenodd"
       d="m 14.583831,37.347243 h 0.08615 c 0.219278,0 0.452206,-0.03001 0.452206,-0.348167 v -3.201742 c 0,-0.318552 -0.232928,-0.348811 -0.452206,-0.348811 h -0.08615 v -0.183611 c 0.3716,0 1.008705,0.02421 1.52104,0.02421 0.514266,0 1.149053,-0.02421 1.56456,-0.02421 -0.01067,0.262799 -0.0049,0.667104 0.01328,0.935439 l -0.184257,0.04866 c -0.02936,-0.397476 -0.102626,-0.714483 -0.744622,-0.714483 h -0.848528 v 1.600227 h 0.725949 c 0.366578,0 0.44641,-0.207046 0.482719,-0.537444 h 0.183225 c -0.01224,0.238722 -0.01867,0.477055 -0.01867,0.715133 0,0.232669 0.0065,0.464695 0.01867,0.69659 l -0.183225,0.03645 c -0.0363,-0.366192 -0.0546,-0.604399 -0.476798,-0.604399 h -0.73187 v 1.423183 c 0,0.397869 0.352931,0.397869 0.74436,0.397869 0.733674,0 1.057247,-0.04931 1.240731,-0.745133 l 0.170477,0.0421 c -0.07931,0.324604 -0.152194,0.647533 -0.207046,0.97188 -0.391686,0 -1.094457,-0.02356 -1.64336,-0.02356 -0.55135,0 -1.277941,0.02356 -1.626624,0.02356 v -0.183739"
       fill="#1a1919"
       id="path15"
       style="stroke-width:1.28759" />
    <path
       fill-rule="evenodd"
       clip-rule="evenodd"
       d="m 17.853301,37.556991 c -0.392074,0 -1.09536,-0.0255 -1.64362,-0.0255 -0.550577,0 -1.277039,0.0255 -1.626107,0.0255 h -0.02563 v -0.236144 h 0.111768 c 0.221082,-0.0038 0.422334,-0.02318 0.425166,-0.321901 V 33.797334 C 15.092155,33.49861 14.890792,33.478782 14.66971,33.47479 h -0.111765 v -0.236659 h 0.02563 c 0.373404,0 1.009091,0.02383 1.521297,0.02383 0.513751,0 1.148408,-0.02383 1.56456,-0.02383 h 0.02703 l -9.01e-4,0.0282 c -0.004,0.09143 -0.0065,0.200093 -0.0065,0.315075 0,0.211295 0.0065,0.442805 0.01841,0.616761 l 0.0011,0.02177 -0.0206,0.0063 -0.214902,0.05614 -9.02e-4,-0.03143 c -0.03605,-0.396581 -0.08923,-0.685003 -0.718478,-0.691053 H 15.92995 l -5.16e-4,1.547948 h 0.701484 c 0.352285,-0.0038 0.41525,-0.183739 0.45684,-0.513363 l 0.0013,-0.02459 h 0.234986 l -3.86e-4,0.02807 c -0.01184,0.238721 -0.01905,0.476283 -0.01905,0.71436 0,0.231124 0.0072,0.463148 0.01905,0.695431 l 3.86e-4,0.02214 -0.02214,0.0051 -0.21284,0.04224 -0.0013,-0.02858 c -0.04236,-0.373145 -0.04506,-0.577746 -0.450659,-0.582123 h -0.707148 v 1.397559 c 8.99e-4,0.371472 0.321126,0.369412 0.719379,0.371472 0.735992,-0.0045 1.030724,-0.04043 1.214849,-0.725948 l 0.0061,-0.02471 0.02575,0.0042 0.195843,0.05085 -0.0056,0.02524 c -0.07931,0.323317 -0.152194,0.646503 -0.207434,0.969948 l -0.0047,0.02176 z m -0.02266,-0.05278 c 0.05343,-0.309023 0.123093,-0.61766 0.198031,-0.925268 l -0.120261,-0.03039 c -0.182968,0.683585 -0.537702,0.744747 -1.259014,0.74011 -0.38512,0 -0.770112,0 -0.772173,-0.424521 v -1.449835 h 0.75994 c 0.426841,-0.0045 0.469845,0.252884 0.500361,0.600535 l 0.131981,-0.02703 c -0.01184,-0.225331 -0.0179,-0.451562 -0.0179,-0.675476 0,-0.229449 0.006,-0.458512 0.0179,-0.689122 h -0.131981 c -0.03437,0.319194 -0.134166,0.54195 -0.50654,0.538087 H 15.877223 V 33.50699 h 0.876598 c 0.635429,-0.0051 0.740755,0.323832 0.768438,0.708309 l 0.131723,-0.0358 c -0.01068,-0.17241 -0.0179,-0.394006 -0.0179,-0.59809 0,-0.104555 0.0027,-0.203827 0.0064,-0.290353 -0.415251,0.0019 -1.0351,0.02408 -1.537521,0.02408 -0.502163,0 -1.120339,-0.02214 -1.494386,-0.02408 v 0.130047 h 0.05923 c 0.217347,5.15e-4 0.477442,0.03824 0.478858,0.376237 v 3.201612 c -0.0013,0.337352 -0.261511,0.374563 -0.478858,0.376236 h -0.05923 v 0.129017 c 0.355763,-0.0011 1.062269,-0.02409 1.599196,-0.02409 0.539504,0 1.227081,0.02293 1.620958,0.02409 z"
       fill="#1a1919"
       id="path16"
       style="stroke-width:1.28759" />
    <path
       fill-rule="evenodd"
       clip-rule="evenodd"
       d="m 18.886212,33.912187 c 0,-0.445638 -0.244771,-0.46392 -0.434435,-0.46392 h -0.110349 v -0.183355 c 0.195716,0 0.574656,0.02421 0.947801,0.02421 0.365935,0 0.659765,-0.02421 0.983596,-0.02421 0.768953,0 1.454985,0.207433 1.454985,1.075916 0,0.549676 -0.366965,0.885353 -0.849556,1.075918 l 1.044499,1.563659 c 0.171637,0.258549 0.292928,0.331042 0.593196,0.366838 v 0.183739 c -0.202153,0 -0.397739,-0.02357 -0.598732,-0.02357 -0.189407,0 -0.385894,0.02357 -0.574398,0.02357 -0.471004,-0.617017 -0.874666,-1.276782 -1.271632,-1.980713 h -0.402761 v 1.308715 c 0,0.470489 0.219535,0.488259 0.499589,0.488259 h 0.110861 v 0.183739 c -0.349068,0 -0.702128,-0.02357 -1.051195,-0.02357 -0.293316,0 -0.580707,0.02357 -0.886254,0.02357 v -0.183739 h 0.110349 c 0.226874,0 0.434435,-0.103397 0.434435,-0.329111 z m 0.782215,1.417647 h 0.298595 c 0.611866,0 0.941363,-0.23164 0.941363,-0.953209 0,-0.543367 -0.348424,-0.891792 -0.89295,-0.891792 -0.183482,0 -0.26164,0.01881 -0.347008,0.02472 z"
       fill="#1a1919"
       id="path17"
       style="stroke-width:1.28759" />
    <path
       fill-rule="evenodd"
       clip-rule="evenodd"
       d="m 22.515951,37.556991 c -0.204985,0 -0.399284,-0.02446 -0.600278,-0.02446 -0.186317,0 -0.381772,0.02446 -0.594613,0.01428 -0.468943,-0.615343 -0.870674,-1.271504 -1.265323,-1.969125 h -0.361171 v 1.280001 c 0.0067,0.460061 0.191081,0.456583 0.473578,0.46315 h 0.13713 v 0.236145 h -0.02703 c -0.349326,0 -0.704446,-0.02446 -1.05081,-0.02446 -0.291897,0 -0.579032,0.02446 -0.885995,0.02446 h -0.02652 v -0.236145 h 0.136872 c 0.219794,-0.0016 0.405594,-0.09748 0.406494,-0.302842 V 33.91205 c -0.0047,-0.433277 -0.216703,-0.431215 -0.406494,-0.437269 h -0.136873 v -0.236658 h 0.02652 c 0.197774,0 0.57517,0.02383 0.9478,0.02383 0.364905,0 0.657964,-0.02383 0.983725,-0.02383 0.7705,0.0016 1.47958,0.213743 1.481383,1.101669 0,0.551479 -0.364521,0.896168 -0.835781,1.088407 l 1.026213,1.537524 c 0.170994,0.253529 0.277348,0.316879 0.574654,0.355119 l 0.02227,0.0035 V 37.55701 Z M 19.66817,35.523745 h 0.417568 l 0.0076,0.01365 c 0.397998,0.702127 0.799599,1.362149 1.249486,1.967319 0.186057,0 0.382416,-0.02458 0.572852,-0.02458 0.194943,0 0.383704,0.02138 0.573497,0.02408 v -0.134166 c -0.286491,-0.03491 -0.421045,-0.12142 -0.587918,-0.37469 l -1.063943,-1.590956 0.03012,-0.01224 c 0.478601,-0.188634 0.833333,-0.515041 0.833464,-1.052355 -1.31e-4,-0.847884 -0.659766,-1.0445 -1.427948,-1.048749 -0.321898,0 -0.6156,0.02486 -0.983724,0.02486 -0.358983,0 -0.721699,-0.02293 -0.921662,-0.02486 v 0.130048 h 0.08421 c 0.189789,5.15e-4 0.45967,0.03193 0.45967,0.490961 v 3.105945 c 0,0.245158 -0.229707,0.356664 -0.45967,0.357178 h -0.08421 v 0.129018 c 0.293829,-0.0011 0.572852,-0.02408 0.859858,-0.02408 0.341342,0 0.686418,0.02293 1.024413,0.02408 V 37.37519 h -0.0837 c -0.278379,-5.14e-4 -0.527015,-0.03502 -0.527015,-0.517484 v -1.333952 z m 0,-0.167774 h -0.02703 v -1.871266 l 0.02331,-0.0017 c 0.08382,-0.0067 0.166099,-0.02357 0.350998,-0.02357 0.556629,0 0.919089,0.361558 0.919604,0.918831 -0.0016,0.729681 -0.351386,0.977672 -0.968016,0.977802 z m 0.298852,-0.05202 c 0.605042,-0.0059 0.909945,-0.215802 0.915868,-0.925783 -0.0036,-0.533967 -0.335162,-0.865266 -0.867455,-0.867583 -0.164941,0 -0.242969,0.01532 -0.320869,0.02292 v 1.770447 z"
       fill="#1a1919"
       id="path18"
       style="stroke-width:1.28759" />
    <path
       fill-rule="evenodd"
       clip-rule="evenodd"
       d="m 26.665237,36.326435 0.01067,-0.01211 v -2.291151 c 0,-0.501519 -0.347265,-0.574912 -0.530749,-0.574912 h -0.13391 v -0.183355 c 0.287263,0 0.567446,0.02421 0.85548,0.02421 0.25121,0 0.499846,-0.02421 0.752345,-0.02421 v 0.183355 h -0.09206 c -0.256876,0 -0.54388,0.0488 -0.54388,0.776162 v 2.780696 c 0,0.214258 0.0059,0.427999 0.03605,0.617664 h -0.231382 l -3.147148,-3.508707 v 2.518542 c 0,0.532163 0.103261,0.714619 0.573754,0.714619 h 0.104169 v 0.183739 c -0.26267,0 -0.525855,-0.02383 -0.788524,-0.02383 -0.275933,0 -0.556502,0.02383 -0.831403,0.02383 v -0.183739 h 0.08498 c 0.421946,0 0.550963,-0.287264 0.550963,-0.774749 V 33.99755 c 0,-0.341987 -0.281468,-0.549288 -0.55637,-0.549288 h -0.07958 v -0.183355 c 0.231381,0 0.471519,0.02421 0.703286,0.02421 0.181679,0 0.359755,-0.02421 0.543494,-0.02421 l 2.719795,3.061522"
       fill="#1a1919"
       id="path19"
       style="stroke-width:1.28759" />
    <path
       fill-rule="evenodd"
       clip-rule="evenodd"
       d="m 27.018939,37.648411 -0.250953,-0.0086 -3.102082,-3.456429 v 2.449013 c 0.0072,0.532292 0.0877,0.682682 0.548517,0.688478 h 0.129532 v 0.236144 h -0.02652 c -0.264216,0 -0.526499,-0.0255 -0.788397,-0.0255 -0.272843,0 -0.555212,0.0255 -0.830501,0.0255 h -0.0273 v -0.236186 h 0.112405 c 0.403663,-0.0016 0.51929,-0.261898 0.523281,-0.750025 v -2.573394 c -7.73e-4,-0.325761 -0.267177,-0.522638 -0.528689,-0.522638 h -0.106997 v -0.236659 h 0.0273 c 0.233313,0 0.472548,0.02383 0.703286,0.02383 0.179492,0 0.356407,-0.02383 0.561392,-0.01597 l 2.686833,3.024954 V 34.02302 c -0.0016,-0.485296 -0.32718,-0.545427 -0.504868,-0.54826 H 25.983971 V 33.2381 h 0.02665 c 0.288681,0 0.570406,0.02383 0.856124,0.02383 0.248893,0 0.499202,-0.02383 0.751185,-0.02383 h 0.02703 v 0.23666 h -0.117945 c -0.252241,0.006 -0.511949,0.02872 -0.518001,0.749511 v 2.780698 c 0,0.213998 0.0052,0.425936 0.03657,0.613282 l 0.0028,0.03012 z m -0.231253,-0.05331 h 0.200221 c -0.02679,-0.18271 -0.03206,-0.386793 -0.03206,-0.590106 v -2.780693 c 3.86e-4,-0.733545 0.309538,-0.801529 0.571179,-0.803203 h 0.06425 v -0.130048 c -0.240523,0.0019 -0.482077,0.02408 -0.724532,0.02408 -0.280825,0 -0.553152,-0.02214 -0.829599,-0.02408 V 33.4211 h 0.108032 c 0.188375,0.0016 0.558431,0.08394 0.558431,0.601952 l -0.0087,2.310337 -0.01102,0.01184 -0.01918,0.02008 -2.71915,-3.074269 c -0.181808,0 -0.35911,0.02408 -0.543623,0.02408 -0.226746,0 -0.455165,-0.02214 -0.677148,-0.02408 v 0.130048 h 0.05356 c 0.28765,0.0016 0.581609,0.218376 0.581609,0.576329 v 2.573394 c 0,0.490445 -0.138032,0.802688 -0.576201,0.804362 l -0.05895,-5.16e-4 v 0.129791 c 0.263958,-0.0017 0.536156,-0.02433 0.804363,-0.02433 0.256233,0 0.510275,0.02254 0.762901,0.02433 v -0.129275 h -0.07752 c -0.480918,-5.16e-4 -0.600793,-0.210524 -0.602211,-0.742816 v -2.585882 z m -0.123094,-1.268798 0.01983,-0.01764 z m -0.01455,-0.01211 v -0.0015 l -0.0046,-0.0047 z"
       fill="#1a1919"
       id="path20"
       style="stroke-width:1.28759" />
    <path
       fill-rule="evenodd"
       clip-rule="evenodd"
       d="m 28.601525,36.657089 c -0.06155,0.207046 -0.135326,0.36761 -0.135326,0.476153 0,0.183871 0.25752,0.214129 0.458514,0.214129 h 0.06824 v 0.183483 c -0.245416,-0.01314 -0.494825,-0.02356 -0.740756,-0.02356 -0.22005,0 -0.438813,0.01045 -0.659507,0.02356 v -0.183483 h 0.03721 c 0.23782,0 0.440231,-0.140864 0.530878,-0.397611 l 0.977931,-2.804259 c 0.07983,-0.226746 0.189919,-0.532164 0.227132,-0.758782 0.194297,-0.06696 0.439842,-0.188376 0.55547,-0.262671 0.01893,-0.0061 0.03027,-0.01249 0.0488,-0.01249 0.01854,0 0.02989,0 0.04326,0.01918 0.01804,0.04841 0.0358,0.103519 0.05485,0.152323 l 1.124975,3.196849 c 0.0734,0.213225 0.146014,0.439328 0.22417,0.623713 0.07456,0.171377 0.202926,0.243741 0.405337,0.243741 h 0.03657 v 0.183484 c -0.2753,-0.01313 -0.551103,-0.02356 -0.843003,-0.02356 -0.299623,0 -0.606201,0.01044 -0.9178,0.02357 v -0.183487 h 0.06734 c 0.139704,0 0.379583,-0.02421 0.379583,-0.177173 0,-0.07893 -0.05523,-0.244001 -0.12348,-0.440487 l -0.238073,-0.70857 h -1.38713 z m 0.892307,-2.707561 h -0.01274 l -0.56796,1.729759 h 1.141842 z"
       fill="#1a1919"
       id="path21"
       style="stroke-width:1.28759" />
    <path
       fill-rule="evenodd"
       clip-rule="evenodd"
       d="m 31.857475,37.556991 c -0.274645,-0.01171 -0.55019,-0.02538 -0.841189,-0.02538 -0.299624,0 -0.604526,0.01365 -0.916382,0.02538 l -0.02819,0.0013 V 37.31957 h 0.09412 c 0.141637,0 0.351644,-0.03167 0.352159,-0.14949 0.0013,-0.06966 -0.05344,-0.237047 -0.120777,-0.431474 l -0.23267,-0.69143 H 28.81643 l -0.190048,0.617662 c -0.06155,0.207816 -0.135842,0.369282 -0.134684,0.468685 0.002,0.149234 0.230222,0.186058 0.43302,0.186058 h 0.09399 v 0.238721 l -0.02781,-0.0013 c -0.244257,-0.01171 -0.493665,-0.02538 -0.73818,-0.02538 -0.218119,0 -0.439071,0.01365 -0.657962,0.02538 l -0.02846,0.0013 v -0.238721 h 0.06348 c 0.227132,-5.15e-4 0.416795,-0.130304 0.505124,-0.378553 l 0.978832,-2.805163 c 0.07893,-0.226231 0.189921,-0.530232 0.242713,-0.774489 0.191723,-0.06502 0.437655,-0.188376 0.554955,-0.262157 0.01712,-0.006 0.03399,-0.01391 0.05858,-0.01391 0.01494,-9.01e-4 0.0479,0.0031 0.06772,0.03502 0.01738,0.05023 0.03682,0.104943 0.05523,0.154256 l 1.125231,3.196461 c 0.07198,0.213999 0.145114,0.439716 0.225202,0.62088 0.0707,0.162881 0.182968,0.227133 0.379328,0.227648 h 0.06181 v 0.238722 z m -1.732334,-0.05434 c 0.302328,-0.01067 0.599249,-0.02241 0.891145,-0.02241 0.283401,0 0.549934,0.01171 0.815438,0.02241 v -0.127986 h -0.0089 c -0.209621,0.0013 -0.353704,-0.08085 -0.428643,-0.261126 -0.07957,-0.184641 -0.153867,-0.411517 -0.225973,-0.625515 l -1.125232,-3.196719 c -0.01854,-0.0488 -0.03592,-0.103395 -0.0519,-0.146788 -0.006,-0.006 -0.0047,-0.006 -0.0096,-0.006 h -0.01147 c -0.01236,0 -0.0197,0.0038 -0.03541,0.0076 -0.117559,0.07636 -0.362588,0.196875 -0.544397,0.244515 -0.03722,0.23164 -0.147302,0.536929 -0.226745,0.763417 l -0.977803,2.804517 c -0.09297,0.265632 -0.307865,0.416667 -0.555856,0.416152 h -0.01029 v 0.127987 c 0.209621,-0.01066 0.421044,-0.0224 0.63324,-0.0224 0.236404,0 0.477443,0.01171 0.711399,0.0224 v -0.127987 h -0.0394 c -0.199577,-0.0026 -0.477699,-0.02446 -0.484651,-0.241039 5.14e-4,-0.121161 0.07544,-0.277605 0.135326,-0.484136 l 0.02602,0.0076 -0.02602,-0.0084 0.201251,-0.65307 h 1.425114 l 0.244773,0.72582 c 0.06863,0.196617 0.124252,0.359496 0.124252,0.448727 -0.009,0.187216 -0.266276,0.200995 -0.40495,0.204472 h -0.04069 z m -1.249228,-1.797101 0.585085,-1.783065 h 0.03284 v 0.02703 l -0.0065,0.0017 0.0065,-0.0017 v -0.02703 h 0.01828 l 0.580835,1.783065 z m 0.07315,-0.05344 h 1.069867 l -0.531777,-1.637568 z m 0.51813,-1.694734 0.01416,-0.0045 z"
       fill="#1a1919"
       id="path22"
       style="stroke-width:1.28759" />
    <path
       fill-rule="evenodd"
       clip-rule="evenodd"
       d="m 32.127871,33.57033 c -0.458385,0 -0.476798,0.1106 -0.568861,0.556114 h -0.18374 c 0.02408,-0.171123 0.05536,-0.342116 0.07429,-0.519288 0.02383,-0.171895 0.03567,-0.342373 0.03567,-0.51916 h 0.147816 c 0.0479,0.183482 0.200993,0.176787 0.365936,0.176787 h 3.1541 c 0.164169,0 0.316878,-0.006 0.328982,-0.189533 l 0.146142,0.02499 c -0.02266,0.164553 -0.047,0.329753 -0.06618,0.495081 -0.0134,0.164941 -0.0134,0.329496 -0.0134,0.494437 l -0.182582,0.06799 c -0.0108,-0.225846 -0.04159,-0.587403 -0.451947,-0.587403 H 33.91196 v 3.251443 c 0,0.471519 0.214127,0.525469 0.507055,0.525469 h 0.116786 v 0.183611 c -0.238722,0 -0.665817,-0.02356 -0.996602,-0.02356 -0.365935,0 -0.794833,0.02356 -1.033168,0.02356 v -0.183611 h 0.116399 c 0.336835,0 0.507314,-0.03012 0.507314,-0.512723 v -3.264189 h -1.00188"
       fill="#1a1919"
       id="path23"
       style="stroke-width:1.28759" />
    <path
       fill-rule="evenodd"
       clip-rule="evenodd"
       d="m 34.535937,37.556991 c -0.240138,0 -0.66865,-0.02421 -0.997117,-0.02421 -0.365033,0 -0.793032,0.02421 -1.032524,0.02421 h -0.02703 v -0.236144 h 0.143178 c 0.337092,-0.0078 0.472161,-0.01224 0.480274,-0.486328 l -3.86e-4,-3.23792 h -0.974453 v -0.05356 h 1.028276 v 3.291486 c 0,0.490705 -0.198034,0.539118 -0.533709,0.540276 h -0.09 v 0.129918 c 0.241554,-0.002 0.652169,-0.02446 1.006387,-0.02446 0.319452,0 0.728525,0.0224 0.96969,0.02446 V 37.3748 h -0.08973 c -0.294474,-0.0011 -0.532551,-0.07198 -0.532938,-0.552895 v -3.278864 h 1.028272 c 0.410615,0.0016 0.464051,0.350098 0.475897,0.577488 l 0.132752,-0.0488 c 0,-0.159662 9e-4,-0.319453 0.01339,-0.479373 0.01648,-0.157473 0.03966,-0.313916 0.06181,-0.469844 l -0.09232,-0.01622 c -0.02795,0.177945 -0.200608,0.18786 -0.352545,0.185156 h -3.18526 c -0.14421,0.0015 -0.300139,-0.0067 -0.355634,-0.177689 H 31.5123 C 31.511,33.282821 31.49891,33.44712 31.47484,33.61 c -0.01661,0.168546 -0.04609,0.330269 -0.06941,0.491091 h 0.131465 c 0.0802,-0.426325 0.133136,-0.564742 0.591006,-0.558046 v 0.05356 c -0.453232,0.0078 -0.443189,0.08459 -0.542979,0.536153 l -0.0045,0.02086 h -0.235995 l 0.0038,-0.03027 c 0.02575,-0.171893 0.05575,-0.34366 0.07364,-0.519674 0.02498,-0.170993 0.03631,-0.340442 0.03631,-0.515683 v -0.02703 h 0.194041 l 0.0051,0.01918 c 0.04275,0.154125 0.153996,0.155284 0.31044,0.157988 h 3.185259 c 0.169062,-0.0026 0.292414,-0.005 0.30323,-0.164427 l 0.001,-0.02935 0.02846,0.0056 0.17344,0.0273 -0.0041,0.02703 c -0.02524,0.164041 -0.04841,0.328466 -0.06683,0.492378 -0.01249,0.163783 -0.01249,0.328208 -0.01249,0.493151 v 0.01854 l -0.0179,0.0071 -0.216315,0.07919 -9.02e-4,-0.03541 C 35.32464,33.929267 35.3003,33.596679 34.914029,33.596679 h -0.975741 v 3.225305 c 0.0061,0.46083 0.189149,0.493149 0.480403,0.498944 h 0.142537 v 0.236145 h -0.02537"
       fill="#1a1919"
       id="path24"
       style="stroke-width:1.28759" />
    <path
       fill-rule="evenodd"
       clip-rule="evenodd"
       d="m 35.854438,37.347243 h 0.08562 c 0.220181,0 0.451561,-0.03001 0.451561,-0.348167 v -3.201742 c 0,-0.318552 -0.23138,-0.348811 -0.451561,-0.348811 h -0.08562 v -0.183611 c 0.238462,0 0.604527,0.02421 0.903636,0.02421 0.306319,0 0.673156,-0.02421 0.960933,-0.02421 v 0.183611 h -0.08575 c -0.220953,0 -0.453234,0.03026 -0.453234,0.348811 v 3.201742 c 0,0.318165 0.232281,0.348167 0.453234,0.348167 h 0.08575 v 0.183739 c -0.293571,0 -0.660665,-0.02357 -0.965825,-0.02357 -0.300012,0 -0.660282,0.02357 -0.898744,0.02357 v -0.183739"
       fill="#1a1919"
       id="path25"
       style="stroke-width:1.28759" />
    <path
       fill-rule="evenodd"
       clip-rule="evenodd"
       d="m 37.719136,37.556991 c -0.295504,0 -0.660923,-0.0255 -0.965827,-0.0255 -0.299238,0 -0.660023,0.0255 -0.898871,0.0255 h -0.02615 v -0.236144 h 0.112019 c 0.220179,-0.0038 0.423362,-0.02318 0.424779,-0.321901 v -3.201612 c -0.0013,-0.298724 -0.2046,-0.318552 -0.424779,-0.322544 h -0.112019 v -0.236659 h 0.02615 c 0.238848,0 0.606458,0.02383 0.903636,0.02383 0.304646,0 0.671353,-0.02383 0.961062,-0.02383 h 0.02538 v 0.236659 h -0.11099 c -0.223784,0.004 -0.424779,0.02383 -0.426838,0.322544 v 3.201612 c 0.002,0.298722 0.203054,0.318167 0.426838,0.321901 h 0.110987 v 0.236144 z m -0.02782,-0.05278 V 37.37468 h -0.05782 c -0.219277,0 -0.4786,-0.03837 -0.4786,-0.375723 V 33.79734 c 0,-0.337993 0.259323,-0.375721 0.4786,-0.376236 h 0.05782 v -0.130047 c -0.281726,0.0019 -0.635686,0.02408 -0.933251,0.02408 -0.290095,0 -0.639807,-0.02214 -0.876984,-0.02408 v 0.130047 h 0.05924 c 0.21696,5.15e-4 0.477443,0.03824 0.478214,0.376236 v 3.201612 c -7.71e-4,0.337353 -0.261254,0.375723 -0.478214,0.375723 h -0.05924 v 0.129531 c 0.235501,-0.0026 0.581094,-0.02408 0.872219,-0.02408 0.296276,0 0.649724,0.02254 0.938016,0.02408 z"
       fill="#1a1919"
       id="path26"
       style="stroke-width:1.28759" />
    <path
       fill-rule="evenodd"
       clip-rule="evenodd"
       d="m 40.156045,33.173235 c 1.30292,0 2.341369,0.807582 2.341369,2.109343 0,1.4058 -1.008706,2.340211 -2.309951,2.340211 -1.296226,0 -2.285874,-0.880202 -2.285874,-2.194454 0,-1.270602 0.983724,-2.2551 2.254456,-2.2551 z m 0.09231,4.180444 c 1.186007,0 1.392795,-1.045785 1.392795,-1.936933 0,-0.893206 -0.481561,-1.974532 -1.496702,-1.974532 -1.069222,0 -1.387389,0.953595 -1.387389,1.771864 0,1.093816 0.501519,2.139601 1.491296,2.139601 z"
       fill="#1a1919"
       id="path27"
       style="stroke-width:1.28759" />
    <path
       fill-rule="evenodd"
       clip-rule="evenodd"
       d="m 37.874293,35.428335 c 0.0025,-1.285282 0.997502,-2.279563 2.281366,-2.281625 v 0.05344 c -1.25631,0 -2.228189,0.971107 -2.229605,2.22819 0.0025,1.299444 0.977931,2.166512 2.261538,2.166899 1.288112,-3.87e-4 2.282267,-0.921406 2.283812,-2.313557 -0.0011,-1.285538 -1.023255,-2.080373 -2.315745,-2.081532 v -0.05344 c 1.312191,0.0012 2.365445,0.816853 2.367763,2.134967 -0.0012,1.420478 -1.021966,2.364545 -2.33583,2.366863 -1.307299,-0.0022 -2.310724,-0.891404 -2.313299,-2.220205 z m 0.855865,-0.214257 c 0.0019,-0.82239 0.322802,-1.799032 1.414042,-1.799032 1.037803,0.0022 1.521683,1.103729 1.523743,2.0017 -0.002,0.891148 -0.211681,1.962043 -1.419448,1.962043 v -0.0519 c 1.162058,-9.01e-4 1.363952,-1.019006 1.365756,-1.910152 0,-0.885352 -0.476671,-1.946205 -1.470051,-1.947879 -1.048492,0.0011 -1.358289,0.931191 -1.360993,1.745211 3.86e-4,1.088663 0.4974,2.111275 1.465288,2.11282 v 0.0519 c -1.014371,-9.01e-4 -1.516406,-1.06446 -1.518337,-2.164711 z"
       fill="#1a1919"
       id="path28"
       style="stroke-width:1.28759" />
    <path
       fill-rule="evenodd"
       clip-rule="evenodd"
       d="m 46.615667,36.326435 0.01274,-0.01211 v -2.291151 c 0,-0.501519 -0.349583,-0.574912 -0.532808,-0.574912 H 45.96259 v -0.183355 c 0.286361,0 0.568217,0.02421 0.85458,0.02421 0.25121,0 0.501776,-0.02421 0.752599,-0.02421 v 0.183355 h -0.09192 c -0.256103,0 -0.544525,0.0488 -0.544525,0.776162 v 2.780696 c 0,0.214258 0.0065,0.427999 0.03746,0.617664 H 46.73824 l -3.14805,-3.508707 v 2.518542 c 0,0.532163 0.10442,0.714619 0.574012,0.714619 h 0.104806 v 0.183739 c -0.263057,0 -0.525342,-0.02383 -0.78814,-0.02383 -0.275416,0 -0.556628,0.02383 -0.831789,0.02383 v -0.183739 h 0.08588 c 0.422461,0 0.549933,-0.287264 0.549933,-0.774749 V 33.99755 c 0,-0.341987 -0.280179,-0.549288 -0.556628,-0.549288 h -0.07919 v -0.183355 c 0.232283,0 0.470359,0.02421 0.703158,0.02421 0.182967,0 0.359239,-0.02421 0.543367,-0.02421 l 2.72005,3.061522"
       fill="#1a1919"
       id="path29"
       style="stroke-width:1.28759" />
    <path
       fill-rule="evenodd"
       clip-rule="evenodd"
       d="m 46.971044,37.648411 -0.252884,-0.0086 -3.101567,-3.456429 v 2.449141 c 0.0072,0.532164 0.08795,0.681782 0.546844,0.687192 h 0.131721 v 0.237302 h -0.02601 c -0.264602,0 -0.526886,-0.02446 -0.788397,-0.02446 -0.273871,0 -0.555212,0.02446 -0.832303,0.02446 h -0.02498 v -0.237302 h 0.111246 c 0.40276,-0.0011 0.518901,-0.260741 0.523796,-0.747453 v -2.574826 c -2.63e-4,-0.325762 -0.267441,-0.522637 -0.529982,-0.522637 h -0.105066 v -0.23666 h 0.02498 c 0.234343,0 0.472677,0.02383 0.703544,0.02383 0.181293,0 0.356921,-0.02383 0.564224,-0.01428 l 2.685288,3.023282 V 34.02311 c -0.002,-0.485296 -0.327567,-0.544268 -0.505899,-0.54826 h -0.16095 v -0.23666 h 0.02795 c 0.287134,0 0.569117,0.02382 0.853934,0.02382 0.250052,0 0.499459,-0.02382 0.753372,-0.02382 h 0.02575 v 0.23666 H 47.47758 c -0.251853,0.0064 -0.511947,0.02961 -0.51697,0.749511 v 2.780697 c 0,0.213998 0.0049,0.427353 0.03451,0.613282 l 0.0052,0.03013 z m -0.232798,-0.05331 h 0.200351 c -0.02587,-0.183869 -0.03193,-0.386793 -0.03193,-0.590106 v -2.780693 c 0,-0.734703 0.308638,-0.801529 0.57092,-0.803203 h 0.06618 v -0.130048 c -0.242585,0.0019 -0.48298,0.02408 -0.727237,0.02408 -0.278378,0 -0.551607,-0.02214 -0.828311,-0.02408 V 33.4211 h 0.107385 c 0.188761,0.0016 0.557786,0.0851 0.557786,0.601952 l -0.0065,2.310337 -0.01184,0.01184 -0.01944,0.02008 -2.719793,-3.074269 c -0.180908,0 -0.358853,0.02408 -0.543882,0.02408 -0.22533,0 -0.454906,-0.02214 -0.677147,-0.02408 v 0.130048 h 0.05369 c 0.287265,0.0016 0.582509,0.218376 0.582509,0.576329 v 2.574809 c 0,0.48903 -0.136485,0.801273 -0.576329,0.802947 l -0.05988,-5.16e-4 v 0.129791 c 0.265375,-0.0017 0.537314,-0.02433 0.805907,-0.02433 0.254945,0 0.508344,0.02254 0.761615,0.02433 v -0.129275 h -0.07893 c -0.479512,-5.17e-4 -0.599773,-0.210525 -0.599773,-0.742688 v -2.587042 z m -0.122579,-1.268798 0.01943,-0.01764 z m -0.01416,-0.01211 v -0.0015 l -0.0048,-0.0047 z"
       fill="#1a1919"
       id="path30"
       style="stroke-width:1.28759" />
    <path
       fill-rule="evenodd"
       clip-rule="evenodd"
       d="m 48.551442,36.657089 c -0.05988,0.207046 -0.133653,0.36761 -0.133653,0.476153 0,0.183871 0.257391,0.214129 0.457742,0.214129 h 0.06824 v 0.183483 c -0.244774,-0.01314 -0.49547,-0.02356 -0.740242,-0.02356 -0.220051,0 -0.439714,0.01045 -0.658864,0.02356 v -0.183483 h 0.03476 c 0.239622,0 0.442032,-0.140864 0.531392,-0.397611 l 0.979861,-2.804259 c 0.07893,-0.226746 0.189534,-0.532164 0.224686,-0.758782 0.196358,-0.06696 0.440229,-0.188376 0.557917,-0.262671 0.01712,-0.0061 0.02948,-0.01249 0.04841,-0.01249 0.01776,0 0.02935,0 0.04184,0.01918 0.01853,0.04841 0.03682,0.103519 0.05523,0.152323 l 1.124588,3.196849 c 0.07287,0.213225 0.146657,0.439328 0.226488,0.623713 0.0734,0.171377 0.20151,0.243741 0.403019,0.243741 h 0.03774 v 0.183484 c -0.275544,-0.01312 -0.550833,-0.02356 -0.844405,-0.02356 -0.298853,0 -0.604915,0.01044 -0.917027,0.02356 v -0.183487 h 0.06772 c 0.139706,0 0.379457,-0.02421 0.379457,-0.177173 0,-0.07893 -0.05486,-0.244001 -0.123096,-0.440488 l -0.238332,-0.708565 h -1.387001 z m 0.893722,-2.707561 h -0.01224 l -0.569892,1.729759 h 1.144675 z"
       fill="#1a1919"
       id="path31"
       style="stroke-width:1.28759" />
    <path
       fill-rule="evenodd"
       clip-rule="evenodd"
       d="m 51.807778,37.556991 c -0.275418,-0.0109 -0.549804,-0.02458 -0.841316,-0.02458 -0.298209,0 -0.604529,0.01365 -0.91587,0.02458 l -0.02703,0.0013 V 37.32074 h 0.09297 c 0.142023,0 0.352544,-0.03297 0.352803,-0.150649 0.0015,-0.06966 -0.05369,-0.236403 -0.122451,-0.431474 l -0.231768,-0.691441 h -1.349145 l -0.188762,0.617662 c -0.06155,0.209363 -0.133782,0.369153 -0.133009,0.46817 0,0.149749 0.229192,0.187732 0.431216,0.187732 h 0.09347 v 0.237562 l -0.02757,-0.0013 c -0.244128,-0.0109 -0.494436,-0.02458 -0.737793,-0.02458 -0.219021,0 -0.438298,0.01365 -0.658864,0.02458 l -0.02652,0.0013 V 37.32074 h 0.06129 c 0.227907,-0.0011 0.418472,-0.131722 0.507958,-0.379712 l 0.977417,-2.805163 c 0.07842,-0.226231 0.188762,-0.530232 0.242453,-0.773588 0.191982,-0.06669 0.437527,-0.189277 0.556372,-0.263058 0.01571,-0.006 0.03284,-0.01339 0.05781,-0.01339 0.01584,-0.0013 0.0479,0.0024 0.06669,0.0358 0.01854,0.04816 0.03657,0.103645 0.0564,0.152968 l 1.123817,3.196332 c 0.07365,0.213998 0.146528,0.439844 0.225844,0.622168 0.07198,0.161594 0.182581,0.225973 0.37804,0.227647 h 0.06309 v 0.237562 z m -1.732464,-0.05394 c 0.30233,-0.01102 0.599636,-0.02293 0.891148,-0.02293 0.284044,0 0.549933,0.01184 0.816593,0.02254 l -6.43e-4,-0.127986 h -0.01015 c -0.207046,5.14e-4 -0.351258,-0.081 -0.427484,-0.261126 -0.0806,-0.184641 -0.153225,-0.411645 -0.226487,-0.624872 l -1.124589,-3.197362 c -0.01803,-0.0488 -0.03746,-0.103395 -0.05178,-0.145757 -0.0051,-0.0071 -0.0047,-0.0071 -0.0084,-0.0071 h -0.0121 c -0.01312,0 -0.01982,0.0041 -0.03437,0.0083 -0.11962,0.07481 -0.364135,0.197388 -0.544656,0.243871 -0.03786,0.23151 -0.148975,0.536413 -0.227647,0.763418 l -0.978703,2.804515 c -0.09309,0.265632 -0.306577,0.416668 -0.556629,0.416154 h -0.0089 v 0.127986 c 0.210523,-0.01066 0.420529,-0.02254 0.633113,-0.02254 0.236661,0 0.478471,0.01184 0.713201,0.02254 v -0.127986 h -0.04133 c -0.198676,-0.0026 -0.477312,-0.02383 -0.485167,-0.241555 0.0016,-0.120646 0.07687,-0.276575 0.136743,-0.483621 l 0.02459,0.0076 -0.02459,-0.0084 0.200995,-0.65307 h 1.424598 l 0.245545,0.72569 c 0.06722,0.196746 0.122965,0.359498 0.122965,0.448856 -0.0087,0.187089 -0.265761,0.200996 -0.404563,0.204471 h -0.04119 z m -1.248711,-1.797745 0.586886,-1.782938 h 0.03167 v 0.02717 l -0.007,0.0017 0.007,-0.0017 v -0.02717 h 0.01854 l 0.577873,1.782938 z m 0.07379,-0.05317 h 1.06922 L 49.437957,34.01546 Z m 0.519288,-1.694737 0.01211,-0.0045 z"
       fill="#1a1919"
       id="path32"
       style="stroke-width:1.28759" />
    <path
       fill-rule="evenodd"
       clip-rule="evenodd"
       d="m 53.349934,36.931606 c 0,0.245673 0.169833,0.318035 0.365935,0.34353 0.250181,0.01828 0.525468,0.01828 0.807453,-0.013 0.256361,-0.03077 0.476283,-0.176532 0.585986,-0.330527 0.09708,-0.134169 0.152194,-0.305419 0.189664,-0.439588 h 0.176786 c -0.06734,0.348425 -0.152709,0.691055 -0.226103,1.038964 -0.536669,0 -1.076173,-0.02356 -1.613101,-0.02356 -0.538345,0 -1.075661,0.02356 -1.61336,0.02356 v -0.183741 h 0.08472 c 0.220437,0 0.459673,-0.03001 0.459673,-0.408943 v -3.140966 c 0,-0.318552 -0.239236,-0.349067 -0.459673,-0.349067 h -0.08472 v -0.183355 c 0.323444,0 0.641738,0.02421 0.965182,0.02421 0.312243,0 0.617145,-0.02421 0.929775,-0.02421 v 0.183355 h -0.153612 c -0.232281,0 -0.414605,0.0066 -0.414605,0.330396 v 3.152943"
       fill="#1a1919"
       id="path33"
       style="stroke-width:1.28759" />
    <path
       fill-rule="evenodd"
       clip-rule="evenodd"
       d="m 55.249914,37.556991 c -0.53899,0 -1.077332,-0.02446 -1.61336,-0.02446 -0.537701,0 -1.075532,0.02446 -1.61452,0.02446 h -0.02575 v -0.236144 h 0.111508 c 0.220952,-0.0054 0.430831,-0.02086 0.433406,-0.382675 V 33.796174 C 52.538677,33.49861 52.329642,33.478782 52.10779,33.47479 h -0.111508 v -0.236659 h 0.02575 c 0.325504,0 0.643541,0.02383 0.965828,0.02383 0.311213,0 0.6156,-0.02383 0.930162,-0.02383 h 0.02458 v 0.236659 h -0.178204 c -0.237047,0.006 -0.384219,-0.0047 -0.389498,0.303745 v 3.152943 c 0.0015,0.228547 0.151294,0.289579 0.342373,0.316877 0.107509,0.0075 0.221339,0.01137 0.338896,0.01137 0.14949,0 0.304645,-0.007 0.462634,-0.02357 0.249021,-0.02961 0.463149,-0.173568 0.568861,-0.319196 0.09437,-0.130819 0.147687,-0.298208 0.18464,-0.431216 l 0.0051,-0.0202 h 0.23035 l -0.0052,0.03219 c -0.06914,0.349324 -0.153353,0.690281 -0.22739,1.038704 l -0.0049,0.02061 z m -0.02241,-0.05278 c 0.0707,-0.331943 0.15052,-0.656545 0.216704,-0.986171 h -0.126054 c -0.03746,0.133009 -0.09205,0.297049 -0.18786,0.430057 -0.114339,0.158247 -0.34057,0.307737 -0.605687,0.34057 -0.15979,0.01622 -0.318809,0.02446 -0.468428,0.02446 -0.118459,0 -0.232668,-0.0052 -0.344045,-0.01312 -0.198678,-0.02177 -0.390916,-0.107123 -0.390659,-0.36851 V 33.77854 c 0,-0.339797 0.2149,-0.357437 0.442934,-0.357437 h 0.125926 v -0.130048 c -0.301039,0.0019 -0.598217,0.02486 -0.902476,0.02486 -0.315719,0 -0.625516,-0.02293 -0.938273,-0.02486 v 0.130048 h 0.05819 c 0.217993,0 0.484783,0.03824 0.484783,0.375076 v 3.141997 c 0,0.39555 -0.265632,0.436497 -0.484783,0.436497 h -0.05819 v 0.129531 c 0.527915,-0.0011 1.056217,-0.02408 1.586965,-0.02408 0.53139,0 1.061882,0.02293 1.590956,0.02408 z"
       fill="#1a1919"
       id="path34"
       style="stroke-width:1.28759" />
    <path
       fill-rule="evenodd"
       clip-rule="evenodd"
       d="m 17.228944,11.688501 c 0,-5.7166771 4.634194,-10.3508071 10.350486,-10.3508071 5.716678,0 10.350874,4.63413 10.350874,10.3508071 0,5.716551 -4.634196,10.351003 -10.350874,10.351003 -5.716292,0 -10.350486,-4.634452 -10.350486,-10.351003"
       fill="#fffffe"
       id="path35"
       style="stroke-width:1.28759" />
    <path
       fill-rule="evenodd"
       clip-rule="evenodd"
       d="M 33.839346,11.484675 C 33.835097,8.8340256 32.178344,6.5733896 29.843671,5.6781355 V 17.290841 c 2.334673,-0.896426 3.991426,-3.155002 3.995675,-5.806166 z m -8.449475,5.803848 V 5.6792943 c -2.332613,0.8980869 -3.98692,3.1555038 -3.993101,5.8053807 0.0061,2.649362 1.660488,4.906521 3.993101,5.803848 z M 27.61793,1.6692632 c -5.420788,0.00209 -9.812528,4.3947526 -9.81343,9.8154118 9.02e-4,5.420144 4.392642,9.812013 9.81343,9.812914 5.420659,-9.01e-4 9.813427,-4.39277 9.814716,-9.812914 C 37.431417,6.0640158 33.038589,1.6713491 27.61793,1.6692632 Z M 27.59385,22.223888 c -5.931705,0.02833 -10.813892,-4.777376 -10.813892,-10.627192 0,-6.3932722 4.882187,-10.81530887 10.813892,-10.81415016 h 2.779797 C 36.235308,0.78138673 41.58502,5.2013508 41.58502,11.596696 c 0,5.847755 -5.349712,10.627192 -11.211373,10.627192 z"
       fill="#0069aa"
       id="path36"
       style="stroke-width:1.28759" />
    <path
       fill-rule="evenodd"
       clip-rule="evenodd"
       d="m 2.9553913,37.347243 h 0.085832 c 0.2197672,0 0.4520371,-0.03001 0.4520371,-0.348167 v -3.201742 c 0,-0.318552 -0.2322699,-0.348811 -0.4520371,-0.348811 h -0.085832 v -0.183611 c 0.2382829,0 0.6049523,0.02421 0.905233,0.02421 0.3053667,0 0.6715726,-0.02421 0.9589001,-0.02421 v 0.183611 H 4.73323 c -0.2188402,0 -0.4515735,0.03026 -0.4515735,0.348811 v 3.201742 c 0,0.318165 0.2327333,0.348167 0.4515735,0.348167 h 0.086294 v 0.183739 c -0.2931089,0 -0.6607052,-0.02357 -0.9651449,-0.02357 -0.3000489,0 -0.6607053,0.02357 -0.8989882,0.02357 v -0.183739"
       fill="#1a1919"
       id="path37"
       style="stroke-width:1.28759" />
    <path
       fill-rule="evenodd"
       clip-rule="evenodd"
       d="m 4.8194857,37.556991 c -0.2956583,0 -0.6614005,-0.02446 -0.9656084,-0.02446 -0.2991219,0 -0.6586193,0.02446 -0.8985246,0.02446 h -0.026601 v -0.236144 h 0.1119699 c 0.2218532,-0.0054 0.4235813,-0.02318 0.4254353,-0.321901 V 33.797334 C 3.4643015,33.498095 3.2625736,33.478782 3.0407203,33.47479 H 2.9287509 v -0.236659 h 0.026602 c 0.2399052,0 0.6063428,0.02383 0.905233,0.02383 0.3039761,0 0.6699501,-0.02383 0.9589,-0.02383 h 0.027298 V 33.47479 H 4.7343505 c -0.222085,0.004 -0.4249719,0.02331 -0.4261307,0.322544 v 3.201612 c 0.00116,0.298722 0.2040457,0.316492 0.4261307,0.321901 H 4.846784 v 0.236144 z m -0.026383,-0.05228 2.317e-4,-0.130047 h -0.058985 c -0.2186211,0 -0.4784071,-0.03837 -0.4797976,-0.375721 V 33.79733 c 0.00138,-0.337994 0.2611765,-0.375721 0.4797976,-0.375721 h 0.058753 v -0.130563 c -0.2819969,2.58e-4 -0.6361764,0.02485 -0.9325172,0.02485 -0.2903275,0 -0.6417389,-0.02293 -0.8783993,-0.02485 v 0.130563 h 0.058534 c 0.2179132,0 0.4781754,0.03774 0.4781754,0.375721 v 3.201612 c 0,0.337351 -0.2602622,0.375721 -0.4781754,0.375721 h -0.058534 v 0.130047 c 0.2366605,-0.002 0.581814,-0.02458 0.871691,-0.02458 0.2977313,0 0.6509838,0.02293 0.9392256,0.02458 z"
       fill="#1a1919"
       id="path38"
       style="stroke-width:1.28759" />
    <path
       fill-rule="evenodd"
       clip-rule="evenodd"
       d="m 55.401207,33.091472 c 0.368768,0 0.643799,0.283143 0.643799,0.644958 0,0.361558 -0.275031,0.64174 -0.643799,0.64174 -0.367867,0 -0.643285,-0.280182 -0.643285,-0.64174 0,-0.361815 0.275418,-0.644958 0.643285,-0.644958 z m 0,1.167079 c 0.28868,0 0.509245,-0.245416 0.509245,-0.522121 0,-0.27709 -0.21799,-0.524438 -0.509245,-0.524438 -0.289582,0 -0.509888,0.247348 -0.509888,0.524438 0,0.276705 0.220306,0.522121 0.509888,0.522121 z m -0.319969,-0.18271 v -0.03129 c 0.07867,-0.01136 0.09349,-0.0094 0.09349,-0.0573 v -0.477053 c 0,-0.06709 -0.0067,-0.09027 -0.0909,-0.08653 v -0.03284 h 0.329496 c 0.113052,0 0.217347,0.05408 0.217347,0.171122 0,0.09568 -0.06283,0.166616 -0.152194,0.194171 l 0.105965,0.147557 c 0.04931,0.06669 0.105452,0.129534 0.141635,0.151809 v 0.02035 h -0.125153 c -0.06012,0 -0.113438,-0.126313 -0.231381,-0.29589 h -0.07121 v 0.213226 c 0,0.04209 0.01481,0.04005 0.09387,0.05138 v 0.03129 z m 0.217089,-0.339411 h 0.07584 c 0.08305,0 0.12142,-0.06271 0.12142,-0.164169 0,-0.102369 -0.05924,-0.138674 -0.12554,-0.138674 h -0.07172 z"
       fill="#1a1919"
       id="path39"
       style="stroke-width:1.28759" />
  </g>
</svg>
