<?xml version="1.0" encoding="UTF-8" standalone="no"?>
<svg
   width="1024"
   height="1024"
   version="1.1"
   id="svg2"
   sodipodi:docname="hoodie2.svg"
   inkscape:version="1.3.2 (1:1.3.2+202311252150+091e20ef0f)"
   xmlns:inkscape="http://www.inkscape.org/namespaces/inkscape"
   xmlns:sodipodi="http://sodipodi.sourceforge.net/DTD/sodipodi-0.dtd"
   xmlns="http://www.w3.org/2000/svg"
   xmlns:svg="http://www.w3.org/2000/svg">
  <defs
     id="defs2" />
  <sodipodi:namedview
     id="namedview2"
     pagecolor="#ffffff"
     bordercolor="#666666"
     borderopacity="1.0"
     inkscape:showpageshadow="2"
     inkscape:pageopacity="0.0"
     inkscape:pagecheckerboard="0"
     inkscape:deskcolor="#d1d1d1"
     inkscape:zoom="0.40576172"
     inkscape:cx="381.99759"
     inkscape:cy="646.93141"
     inkscape:window-width="1920"
     inkscape:window-height="1027"
     inkscape:window-x="0"
     inkscape:window-y="25"
     inkscape:window-maximized="1"
     inkscape:current-layer="svg2" />
  <path
     d="m 507.08711,42.993622 c 2.00168,-0.238746 4.12817,-0.183527 6.14215,-0.161308 37.8495,0.417641 76.41193,13.835255 103.15242,41.238367 41.54368,42.572129 31.82742,108.426289 42.12139,162.200379 1.02117,5.33656 2.26738,10.65799 4.17545,15.75534 4.79194,12.79583 10.09825,21.47861 9.86376,35.69369 47.12607,17.42703 94.54337,38.2277 120.92456,83.73788 15.51328,26.76223 23.5115,58.46391 29.90233,88.46835 7.95473,37.34743 12.59349,75.21111 17.08758,113.09748 q 10.797,90.75559 16.27822,181.98679 l 3.17603,54.13528 c 1.32468,21.84548 2.75622,44.03513 1.57431,65.92223 -0.5399,9.98289 -1.85324,20.96709 -4.84016,30.48477 -1.24526,3.96839 -3.60435,7.43565 -4.40239,11.57138 -1.87497,9.72382 -1.55633,20.22864 -4.20854,29.75294 -0.57015,2.04707 -0.71955,4.63309 -1.53175,6.53171 -0.64958,1.51947 -1.68116,2.51606 -3.26397,3.03137 -4.19815,1.36533 -9.04587,1.54404 -13.41988,2.08205 -8.30647,1.02211 -16.64225,1.92888 -24.93548,3.04362 -10.44335,1.39943 -20.87348,3.89557 -31.36884,4.78443 -1.50717,0.12286 -3.40674,0.21746 -4.69928,-0.74696 -4.54232,-3.38501 -8.72817,-24.75585 -10.80644,-31.25069 -1.8088,-5.65425 -5.29591,-9.89495 -8.22232,-14.92894 -2.74486,-4.7248 -4.62646,-9.85903 -6.058,-15.11617 -4.85906,-17.83549 -6.64138,-36.45862 -9.09219,-54.74041 q -4.92526,-36.47848 -9.08275,-73.05341 c -2.27211,-20.04142 -4.17072,-40.36461 -7.44509,-60.27081 -1.22163,9.74083 -0.36025,19.41169 -0.25908,29.18562 q 0.18911,34.25082 2.24753,68.44112 c 1.18096,19.77572 3.91827,45.01755 -1.53176,64.24771 -1.85891,6.56197 -5.61171,11.6612 -9.92143,16.83134 -0.20802,8.26203 -0.72617,37.37201 -5.83013,42.56769 -4.27851,4.35511 -15.75061,5.29307 -21.7046,6.60357 q -19.70292,4.24637 -39.59683,7.48859 -19.89297,3.24127 -39.92589,5.46988 -20.03196,2.2286 -40.1509,3.4389 -20.1199,1.20927 -40.27479,1.39847 c -15.29486,0.51057 -30.82138,-0.0379 -46.10963,-0.73755 -45.02039,-2.06883 -88.23481,-7.87531 -132.44393,-16.38319 -6.37854,-1.22729 -19.53556,-2.06219 -24.41355,-6.00032 -5.20891,-4.2057 -3.8899,-33.21924 -4.59338,-40.70027 -0.5588,-5.95114 -4.43358,-11.30756 -6.52887,-16.81621 -3.81142,-10.02071 -5.40464,-20.77988 -5.94359,-31.44638 -0.65809,-13.02749 0.2014,-26.19587 0.64202,-39.22052 l 1.69722,-51.78469 c 0.44439,-11.67633 1.60078,-23.40939 0.56259,-35.08667 -6.65274,44.3831 -9.23875,89.26544 -15.55962,133.69581 -2.33356,16.40587 -4.61417,32.82403 -8.80381,48.88193 -1.3436,5.14934 -2.83942,10.24669 -5.50108,14.8949 -2.20686,3.85398 -4.93661,7.50939 -6.5336,11.67728 -3.61665,9.4411 -4.92527,19.80598 -8.57027,29.30005 -0.87083,2.26926 -1.91091,4.79386 -4.32579,5.72041 -1.82866,0.70918 -4.20572,0.34983 -6.09204,0.0757 -8.41332,-1.25754 -16.73964,-3.64024 -25.152,-5.08697 -8.94092,-1.54114 -41.68267,-4.21608 -47.42297,-7.34672 -1.64144,-0.89542 -2.19836,-2.57278 -2.59548,-4.28041 -2.12933,-9.16122 -0.87556,-23.17017 -2.69287,-33.3554 -0.76398,-4.28419 -2.74298,-8.34523 -4.11871,-12.45733 -8.6166,-25.76565 -4.59433,-76.20486 -3.30652,-104.48845 q 3.22047,-64.22974 9.00994,-128.27982 5.79041,-64.04914 14.13943,-127.81557 5.81878,-42.97332 14.66325,-85.4266 c 6.24711,-29.28207 14.44957,-57.41816 27.70493,-84.3487 16.7888,-34.10898 41.24678,-51.04718 74.3885,-66.79305 q 23.88876,-11.18939 48.8649,-19.68024 c -0.20518,-1.12233 -0.39335,-2.25224 -0.49167,-3.38971 -1.0382,-12.02996 4.46478,-21.29992 8.5211,-32.18674 q 3.02379,-8.29605 4.68319,-16.96939 C 375.20387,192.90917 366.70263,131.93299 404.56253,87.989851 430.46055,57.931123 468.71946,45.774465 507.08711,42.993572 Z M 362.91106,307.55547 c -36.42932,13.96451 -80.05978,28.03681 -106.45893,58.24171 20.15205,26.19019 30.90554,57.16475 39.38504,88.76147 q 2.57373,9.79851 4.85245,19.66888 2.27873,9.87037 4.26055,19.80599 1.98183,9.93371 3.66487,19.92416 1.68399,9.98951 3.06635,20.02441 1.38331,10.03584 2.46499,20.10854 1.08263,10.07272 1.86175,20.17285 0.77911,10.10013 1.25566,20.21918 0.47654,10.11999 0.64957,20.24849 c 0.59853,26.25921 -0.20139,52.6489 -0.7271,78.90245 l -2.09057,102.34398 c -0.20991,11.22153 -0.68361,22.50547 -1.08263,33.72417 -0.62593,17.58398 -2.53969,36.37163 3.98351,53.17367 5.96723,15.37051 19.70292,19.66604 34.74628,22.05255 q -3.8379,-20.15866 -6.2821,-40.5329 c -1.24525,-10.88776 -1.83242,-21.93626 -3.34149,-32.77958 5.76678,-6.10244 11.73306,-12.04981 17.06678,-18.54086 20.58605,-25.05461 36.41231,-55.04677 48.53776,-85.00394 4.04402,-9.99141 6.95625,-20.41869 11.00028,-30.38266 37.72185,3.98067 76.29467,2.75809 114.16971,2.37233 23.38196,-0.23923 47.03624,0.63539 70.31043,-2.03762 1.54688,7.26543 4.02416,14.45145 6.47591,21.45499 q 2.14163,6.03436 4.51396,11.98173 2.37233,5.94737 4.97253,11.7983 2.59926,5.85187 5.42261,11.59879 2.82334,5.74693 5.86606,11.38038 3.04271,5.63441 6.30005,11.14684 3.25829,5.51243 6.72555,10.89532 3.46725,5.3829 7.13968,10.62774 3.67243,5.24579 7.54437,10.34503 c 5.60509,7.44225 11.5468,15.57757 19.03348,21.2082 0.11252,16.83702 -1.46556,33.89813 -3.26018,50.62453 -0.84152,7.84599 -2.08867,15.75628 -2.56994,23.62591 9.9687,-1.96102 26.09374,-3.42848 32.0014,-12.79488 4.40616,-6.98651 4.79856,-19.1375 5.02454,-27.15275 0.80749,-28.61073 -2.92641,-57.45408 -3.95609,-86.06766 -0.57016,-15.83571 -0.29028,-31.72625 -0.44818,-47.57142 q -0.52477,-46.86605 -0.14845,-93.73305 c 0.39523,-24.25375 1.24999,-48.36472 3.51453,-72.52675 1.30956,-13.97208 3.68378,-27.90916 4.8846,-41.84626 6.1327,-43.85454 16.41532,-87.50108 36.11729,-127.37212 5.11437,-10.34974 10.54642,-20.49148 17.97449,-29.40024 q -2.77985,-2.56428 -5.6344,-5.04535 -2.85455,-2.48012 -5.78096,-4.87514 -2.92641,-2.39503 -5.92373,-4.70212 -2.99639,-2.30709 -6.0599,-4.52435 -3.0635,-2.21726 -6.19226,-4.34281 -3.12781,-2.12554 -6.31707,-4.15749 -3.19022,-2.03099 -6.43905,-3.96743 -3.24789,-1.93644 -6.55251,-3.77455 -3.30463,-1.83906 -6.66314,-3.57977 -3.35757,-1.73977 -6.76526,-3.37932 -3.40768,-1.63955 -6.86264,-3.17792 -3.45496,-1.53743 -6.95436,-2.97275 -3.4994,-1.43436 -7.03946,-2.76472 -3.54006,-1.33036 -7.11794,-2.55482 -3.57787,-1.2254 -7.19075,-2.34302 -3.61286,-1.11761 -7.25692,-2.12838 -5.2231,5.10112 -10.63152,10.00558 -5.40748,4.90541 -10.99272,9.60751 -5.58522,4.70118 -11.34066,9.19432 -5.75449,4.49221 -11.6716,8.76883 -5.91712,4.27757 -11.98741,8.33295 -6.07123,4.05631 -12.28715,7.88475 -6.21684,3.8294 -12.56984,7.42618 -6.35395,3.59679 -12.83555,6.95626 c -5.08222,2.63329 -10.33652,6.05516 -15.62108,8.13438 q -0.38104,15.41873 0.45953,30.81949 0.84058,15.40077 2.8971,30.68617 c 2.96896,21.28196 7.48953,42.24243 9.27658,63.70215 2.45932,29.53924 1.01266,59.42455 1.111,89.03472 l 0.14371,38.00646 c 0.017,6.69244 0.48128,13.76027 -0.19288,20.41112 -0.1806,1.78515 -0.48884,3.732 -1.84284,5.04344 -1.04008,1.00699 -3.04176,1.79367 -4.51489,1.74923 -1.21596,-0.0369 -2.26455,-0.66376 -3.00773,-1.59416 -1.10249,-1.37763 -1.6074,-3.24978 -1.87498,-4.96308 -0.81411,-5.22214 -0.17209,-10.89059 -0.0454,-16.16097 q 0.11913,-8.22515 0,-16.45029 c -0.29311,-34.64417 0.7706,-69.5247 -0.85759,-104.12348 -1.1422,-24.27928 -6.2386,-47.49766 -9.32953,-71.49423 -2.60021,-20.18703 -3.13537,-40.30031 -3.44078,-60.62066 -15.61918,3.97216 -29.23857,6.80308 -45.32957,3.31502 -4.09036,-0.8869 -8.06064,-2.21726 -12.11317,-3.24221 -0.49734,7.60677 -0.36497,15.20976 -0.7063,22.81843 q -0.76777,16.26593 -3.1505,32.37489 c -3.84925,25.20306 -10.85183,49.62416 -12.58877,75.18652 -2.29101,33.73361 -1.01456,70.09107 -0.95687,104.11023 0.017,10.05664 1.06182,22.49034 0.32432,32.14419 -0.18344,2.41393 -0.76967,5.36965 -2.72219,7.01203 -0.9824,0.82639 -2.19551,1.15828 -3.46346,1.00794 -1.56013,-0.18438 -2.85361,-0.99091 -3.72917,-2.29291 -0.88406,-1.31428 -1.21406,-2.673 -1.33414,-4.23692 -0.51247,-6.64516 -0.0803,-13.58251 -0.0699,-20.2636 l -0.004,-39.15812 -0.0435,-47.45701 c -0.0123,-15.03484 -0.11158,-29.99783 1.44571,-44.975 1.892,-18.20237 6.73499,-35.79298 9.9394,-53.75801 3.95041,-22.14522 5.6552,-44.78306 6.18375,-67.25449 -29.58747,-15.9974 -57.20919,-34.73871 -84.04801,-54.96545 -8.91633,-6.71987 -17.063,-14.71809 -26.14859,-21.12216 z M 503.63309,56.224967 c -33.97,3.481909 -68.67655,14.617584 -90.95887,41.975414 q -1.73977,2.154659 -3.36609,4.395659 -1.62725,2.24099 -3.13726,4.56246 -1.51001,2.32146 -2.89899,4.71724 -1.38803,2.39578 -2.65315,4.85964 -1.26417,2.46395 -2.39975,4.98974 -1.13653,2.52551 -2.14163,5.10585 -1.00509,2.58035 -1.87687,5.20891 -0.87178,2.62763 -1.6074,5.2978 c -3.31218,11.93162 -4.79099,24.42489 -6.25656,36.68934 -3.06918,25.67865 -4.44587,51.62301 -9.61697,77.01044 -0.92567,4.54799 -1.98844,9.12057 -3.64027,13.46622 -3.19589,8.41047 -10.68353,19.6859 -9.73517,28.93978 0.81126,7.92731 27.096,27.12437 33.92272,32.28507 11.57611,8.75086 23.79706,16.45597 35.78541,24.60642 9.75501,6.63289 19.30864,13.84537 29.59125,19.64242 3.24601,1.83054 6.45607,3.4767 10.13796,4.23974 l -0.20329,-0.49924 c -1.57808,-3.80386 -5.21364,-7.65783 -3.34717,-11.98457 0.8661,-2.00735 2.326,-3.70553 4.38819,-4.50166 2.31277,-0.89164 6.61115,-0.72711 8.84259,0.4236 1.78611,0.92189 2.88859,2.60398 3.45875,4.4922 1.92509,6.38232 -3.08433,13.98625 -2.30993,17.08286 0.1702,0.68078 1.41734,1.52231 2.02343,1.87026 8.81043,5.04912 24.35397,5.59658 34.33307,4.7683 4.81747,-0.68079 18.6288,-2.82146 21.81712,-6.37949 0.94175,-5.9937 -6.94868,-14.737 -0.24583,-20.03479 1.78894,-1.41451 6.45134,-2.70043 8.62227,-2.16243 1.32279,0.32716 2.53591,1.11667 3.69985,1.80407 1.98562,3.16468 3.4578,6.35963 2.60494,10.16916 -0.5191,2.31748 -1.81447,4.17545 -3.15901,6.08636 41.78005,-21.31125 69.58994,-40.9026 104.17075,-72.82931 1.21594,-3.74146 3.49655,-8.228 2.85076,-12.17463 -1.19326,-7.29474 -5.90577,-13.7754 -8.71304,-20.52458 -2.21916,-5.33372 -3.51169,-11.22626 -4.65011,-16.87957 -8.84353,-43.92263 -4.58771,-100.13523 -24.8343,-139.964 C 609.08031,87.307791 583.49998,71.643319 556.80582,63.084586 540.16925,57.750293 521.13009,54.258552 503.63309,56.224967 Z m -78.9554,649.928373 c -11.47682,38.13411 -43.59358,100.70633 -72.7045,128.61832 -0.0747,16.75949 2.44419,34.16951 4.9054,50.70301 1.00982,6.78039 1.76908,14.37298 3.97784,20.8716 24.56199,3.9854 49.09088,8.03415 73.86278,10.52373 q 15.88014,1.4684 31.80568,2.31182 15.92553,0.84435 31.87186,1.06371 15.94634,0.21842 31.8889,-0.18911 15.94255,-0.40657 31.85674,-1.43909 c 10.98325,-0.75926 22.44022,-0.9285 33.32704,-2.51132 23.12762,-2.38841 46.74124,-5.03967 69.37625,-10.46227 2.00074,-23.52853 5.15028,-46.8566 6.23765,-70.47589 -34.17802,-35.22377 -58.82983,-82.10686 -72.62982,-129.00127 -26.16371,-0.31959 -52.33121,1.06939 -78.49209,1.18001 -31.77731,0.13616 -63.5187,-0.93607 -95.28373,-1.19325 z M 772.04022,372.17855 c -11.5761,12.98967 -19.01552,31.12207 -25.00355,47.32464 -17.27575,46.74598 -26.04363,95.03599 -30.88852,144.48618 -1.30955,13.36315 -3.17036,26.91824 -2.38274,40.35988 0.79141,13.50403 3.93246,26.7575 5.79988,40.12917 l 12.41195,91.74933 12.04792,98.68196 c 2.83375,23.50394 5.18055,47.23954 10.3819,70.36622 2.05085,9.11867 5.30536,16.91739 11.33122,24.09868 6.18092,-2.68152 12.66156,-4.88932 19.08738,-6.90992 q 7.16048,-1.76625 14.41551,-3.08715 7.25599,-1.3209 14.57911,-2.19079 7.32406,-0.86988 14.68689,-1.28497 7.36283,-0.41604 14.73796,-0.37538 c 2.98124,-9.46474 4.97914,-18.97014 5.63912,-28.89345 1.41073,-21.18362 -0.0491,-42.75206 -1.19799,-63.93001 q -1.93171,-39.00588 -4.94322,-77.94273 -5.91522,-83.68967 -15.4764,-167.04177 c -4.28325,-35.3013 -9.20945,-70.44848 -16.48246,-105.27323 -5.94737,-28.47931 -13.59007,-57.04372 -27.09221,-82.96916 -2.70138,-5.18717 -6.76148,-14.18387 -11.65175,-17.2975 z m -520.51524,-0.0917 c -14.07702,23.33753 -23.89538,44.6053 -31.00481,71.07064 -13.01237,48.44225 -19.42021,98.8408 -25.37231,148.54818 q -11.51748,93.55719 -17.17647,187.65049 -2.06881,30.45831 -3.05311,60.9705 c -0.75831,22.50358 -2.21254,46.58334 3.24884,68.64063 0.63729,2.57468 1.35683,5.09923 2.39691,7.54154 19.44858,0.64484 39.09287,1.90901 58.13014,6.18375 q 11.58744,2.67395 22.79574,6.6499 c 2.49903,-6.31708 4.96781,-12.76936 6.73405,-19.33322 2.95289,-10.97002 4.44493,-22.37971 6.06935,-33.60786 3.37269,-23.3016 5.66938,-46.77433 8.19016,-70.18089 q 5.9625,-58.96314 13.9371,-117.68707 3.12969,-22.95554 7.16993,-45.76831 c 2.44325,-13.06909 6.51753,-25.79495 6.25278,-39.22902 -1.26228,-63.98201 -13.52767,-139.86349 -38.98035,-198.6971 -4.77208,-11.03053 -10.70338,-24.34262 -19.33795,-32.75216 z m 75.36996,535.10947 c -0.0529,10.67596 0.78384,21.6318 1.46084,32.29546 l 0.45669,0.0397 c 6.50523,0.61364 13.09935,2.13405 19.53651,3.27719 15.69577,2.78648 31.26767,5.95495 47.07218,8.11736 q 11.16858,1.59984 22.37782,2.8867 11.20924,1.28592 22.44967,2.25793 11.24045,0.97106 22.50453,1.6263 11.26313,0.6562 22.54139,0.99564 11.27732,0.33945 22.55936,0.36214 11.28299,0.0227 22.5622,-0.27042 11.27826,-0.29405 22.54423,-0.90392 11.26691,-0.60987 22.51114,-1.53554 c 27.53094,-2.09151 55.30962,-6.21779 82.44534,-11.28393 7.64082,-1.42681 15.20977,-3.22899 22.79102,-4.93283 4.3759,-0.98335 9.05911,-2.33451 13.52767,-2.60776 0.16452,-9.73516 1.15071,-19.43061 1.45139,-29.15726 q -49.36131,10.2032 -99.46864,15.66551 -14.79752,1.47597 -29.63853,2.43474 -14.84007,0.95971 -29.70472,1.40127 -14.86465,0.44156 -29.73591,0.36497 -14.87128,-0.0757 -29.73025,-0.67037 -14.85992,-0.5938 -29.68959,-1.70573 -14.82967,-1.111 -29.61111,-2.73826 -14.78239,-1.62725 -29.4986,-3.76888 -14.7162,-2.14162 -29.3492,-4.79383 c -10.97285,-1.92037 -21.50603,-5.21364 -32.36543,-7.3562 z m -143.44799,16.34535 c 0.92661,10.61544 0.36686,21.15147 3.16847,31.59482 18.90299,0.6893 42.45799,4.48464 60.84663,9.32102 l 2.43096,-7.99349 c 2.07542,-6.77472 3.84262,-14.2529 6.80118,-20.69573 -17.15283,-5.31576 -34.05226,-9.58387 -51.98421,-11.20357 -7.09146,-0.64012 -14.18386,-0.52382 -21.26303,-1.02305 z m 643.10014,-0.7309 c -20.12651,1.84378 -38.84324,5.98898 -57.67534,13.35087 3.11362,8.85676 5.10208,18.15508 7.4659,27.23688 q 2.73069,-0.45763 5.45475,-0.95499 c 17.57737,-2.94532 35.49229,-6.19698 53.28998,-7.39402 1.31617,-10.74688 2.37894,-21.73581 4.57257,-32.33707 -4.37685,0.14561 -8.74141,-0.34985 -13.10786,0.0983 z"
     id="path1"
     style="stroke:#000000;stroke-width:18;stroke-dasharray:none;stroke-opacity:1" />
  <path
     d="m 509.99694,95.23357 c 2.5512,-0.27183 5.32837,-0.0122 7.89944,0.14721 22.61116,1.40235 49.05279,9.41095 64.41298,26.96976 15.75324,18.00913 17.87311,41.61471 16.21255,64.5225 -2.85078,39.32864 -15.90488,80.45181 -41.53316,111.02644 -12.62424,15.06061 -28.11692,28.32007 -42.96112,41.14452 l -0.9164,0.38496 c -1.38012,-0.28412 -2.59242,-1.5818 -3.65824,-2.4717 -52.16266,-43.59046 -77.3206,-81.1842 -83.43729,-150.23585 -1.94615,-21.96857 0.54101,-44.93819 15.28437,-62.40124 17.33579,-20.53427 43.07374,-27.03225 68.69687,-29.0866 z m -1.46329,10.29739 c -21.52105,1.62243 -45.63157,8.32959 -60.23802,25.23205 -12.81562,14.83008 -14.05588,36.44534 -12.60142,55.12223 2.89641,37.19185 14.36355,74.13638 38.26061,103.31397 8.75107,10.6847 18.94261,20.09676 29.42638,29.04362 q 4.75203,4.11312 9.68071,8.01205 l 2.55414,-1.75477 c 43.08699,-34.06873 65.82549,-75.35531 72.16742,-129.89987 2.39441,-20.59508 3.51249,-45.77362 -10.09218,-62.92532 -12.29742,-15.50342 -34.75769,-23.52166 -53.88652,-25.65588 -4.93016,-0.54999 -10.32625,-0.98382 -15.27112,-0.48808 z"
     id="path2"
     style="stroke-width:18;stroke:#000000;stroke-opacity:1;stroke-dasharray:none" />
</svg>
