<?xml version="1.0" encoding="UTF-8" standalone="no"?>
<!-- Uploaded to: SVG Repo, www.svgrepo.com, Generator: SVG Repo Mixer Tools -->

<svg
   fill="#000000"
   height="800px"
   width="800px"
   version="1.1"
   id="Layer_1"
   viewBox="0 0 512.004 512.004"
   xml:space="preserve"
   sodipodi:docname="jacket.svg"
   inkscape:version="1.3.2 (1:1.3.2+202311252150+091e20ef0f)"
   xmlns:inkscape="http://www.inkscape.org/namespaces/inkscape"
   xmlns:sodipodi="http://sodipodi.sourceforge.net/DTD/sodipodi-0.dtd"
   xmlns="http://www.w3.org/2000/svg"
   xmlns:svg="http://www.w3.org/2000/svg"><defs
   id="defs2" /><sodipodi:namedview
   id="namedview2"
   pagecolor="#ffffff"
   bordercolor="#666666"
   borderopacity="1.0"
   inkscape:showpageshadow="2"
   inkscape:pageopacity="0.0"
   inkscape:pagecheckerboard="0"
   inkscape:deskcolor="#d1d1d1"
   inkscape:zoom="1.03875"
   inkscape:cx="399.51865"
   inkscape:cy="400"
   inkscape:window-width="1920"
   inkscape:window-height="1027"
   inkscape:window-x="0"
   inkscape:window-y="25"
   inkscape:window-maximized="1"
   inkscape:current-layer="Layer_1" />
<g
   transform="translate(1 1)"
   id="g2"
   style="stroke:#000000;stroke-opacity:1;stroke-width:3.200025;stroke-dasharray:none">
	<g
   id="g1"
   style="stroke:#000000;stroke-opacity:1;stroke-width:3.200025;stroke-dasharray:none">
		<path
   d="M447.066,194.939c-11.713-91.248-26.28-150.379-44.295-157.408L344.95,0.36c-0.286-0.184-0.579-0.347-0.876-0.492    c-0.12-0.059-0.243-0.102-0.364-0.155c-0.178-0.077-0.355-0.158-0.536-0.222c-0.149-0.053-0.301-0.091-0.452-0.135    c-0.156-0.046-0.311-0.096-0.468-0.132c-0.162-0.037-0.324-0.062-0.487-0.089c-0.148-0.025-0.296-0.054-0.444-0.071    c-0.166-0.019-0.331-0.027-0.496-0.036c-0.147-0.008-0.294-0.018-0.441-0.019c-0.162-0.001-0.323,0.008-0.484,0.017    c-0.151,0.008-0.302,0.016-0.452,0.032c-0.154,0.016-0.307,0.04-0.459,0.065c-0.156,0.025-0.311,0.052-0.465,0.085    c-0.144,0.032-0.286,0.069-0.428,0.107c-0.159,0.043-0.317,0.09-0.474,0.142c-0.134,0.045-0.267,0.094-0.399,0.146    c-0.158,0.062-0.313,0.128-0.467,0.199c-0.127,0.059-0.253,0.12-0.377,0.185c-0.15,0.079-0.298,0.162-0.443,0.25    c-0.122,0.073-0.243,0.148-0.362,0.228c-0.138,0.092-0.271,0.19-0.403,0.291c-0.119,0.09-0.237,0.182-0.352,0.278    c-0.12,0.101-0.235,0.208-0.349,0.317c-0.117,0.111-0.234,0.222-0.345,0.34c-0.1,0.106-0.193,0.218-0.288,0.329    c-0.114,0.134-0.227,0.267-0.332,0.409c-0.082,0.11-0.157,0.226-0.234,0.34c-0.104,0.154-0.208,0.307-0.302,0.47    c-0.071,0.123-0.134,0.253-0.2,0.381c-0.084,0.162-0.169,0.322-0.243,0.492c-0.013,0.029-0.029,0.056-0.042,0.085    c-0.902,2.118-1.783,4.31-2.654,6.535c-4.746,9.202-12.808,13.874-23.628,13.874h-102.4c-9.635,0-19.641-6.746-24.303-15.61    c-0.652-1.629-1.311-3.229-1.979-4.799c-0.013-0.03-0.03-0.057-0.043-0.087c-0.074-0.169-0.159-0.329-0.242-0.49    c-0.066-0.128-0.129-0.259-0.201-0.382c-0.094-0.162-0.198-0.315-0.301-0.469c-0.077-0.115-0.152-0.231-0.234-0.341    c-0.106-0.142-0.219-0.275-0.332-0.409c-0.095-0.112-0.188-0.223-0.288-0.329c-0.112-0.118-0.228-0.23-0.346-0.341    c-0.114-0.108-0.229-0.215-0.348-0.316c-0.115-0.097-0.233-0.189-0.353-0.279c-0.132-0.1-0.266-0.198-0.403-0.29    c-0.119-0.079-0.239-0.154-0.361-0.228c-0.146-0.087-0.293-0.171-0.443-0.249c-0.125-0.065-0.25-0.126-0.377-0.185    c-0.154-0.071-0.309-0.136-0.466-0.198c-0.133-0.052-0.265-0.101-0.4-0.147c-0.156-0.052-0.314-0.099-0.473-0.142    c-0.142-0.039-0.285-0.076-0.429-0.108c-0.154-0.034-0.309-0.06-0.465-0.085c-0.153-0.025-0.305-0.049-0.459-0.065    c-0.15-0.016-0.301-0.023-0.452-0.031c-0.161-0.009-0.322-0.018-0.484-0.017c-0.147,0.001-0.294,0.011-0.441,0.019    c-0.166,0.009-0.331,0.017-0.496,0.036c-0.148,0.017-0.296,0.046-0.444,0.071c-0.163,0.028-0.325,0.052-0.487,0.089    c-0.157,0.036-0.312,0.086-0.467,0.132c-0.151,0.044-0.302,0.082-0.452,0.136c-0.181,0.064-0.359,0.146-0.538,0.223    c-0.121,0.052-0.243,0.096-0.362,0.154c-0.297,0.146-0.59,0.309-0.876,0.492l-57.819,37.17    c-18.016,7.025-32.584,66.158-44.297,157.409c-12.213,95.142-16.339,197.958-9.292,274.186c0.294,3.185,2.318,5.82,5.089,7.03    v17.784c0,9.423,7.643,17.067,17.067,17.067h25.6c9.423,0,17.067-7.643,17.067-17.067v-18.786c1.623-1.221,2.811-3.01,3.238-5.119    c0.102-0.502,0.303-1.471,0.596-2.837c0.491-2.292,1.058-4.849,1.692-7.604c1.094-4.751,2.256-9.485,3.46-14.112l8.519,25.557    c1.161,3.484,4.422,5.834,8.095,5.835v17.067c0,9.423,7.643,17.067,17.067,17.067h187.733c9.423,0,17.067-7.643,17.067-17.067    v-17.067h0.001c3.673,0,6.934-2.35,8.095-5.835l8.518-25.556c1.204,4.627,2.366,9.36,3.459,14.111    c0.634,2.755,1.201,5.312,1.692,7.604c0.293,1.367,0.495,2.335,0.596,2.837c0.427,2.109,1.615,3.897,3.237,5.119v18.786    c0,9.423,7.643,17.067,17.067,17.067h25.6c9.423,0,17.067-7.643,17.067-17.067v-17.783c2.771-1.21,4.795-3.845,5.09-7.03    C463.405,392.897,459.279,290.081,447.066,194.939z M203.803,41.671h102.4c4.97,0,9.647-0.698,13.983-2.023    c-14.276,50.15-22.516,117.245-22.516,189.756c0,76.226,7.84,180.245,18.449,230.4H193.887    c10.609-50.155,18.449-154.173,18.449-230.4c0-72.8-8.306-140.14-22.688-190.355C194.188,40.733,198.972,41.671,203.803,41.671z     M75.802,493.938v-17.066h25.6v17.066H75.802z M113.459,431.883c-2.174,7.62-4.225,15.753-6.096,23.881    c-0.322,1.398-0.627,2.748-0.915,4.041H69.971c-5.961-74.005-1.759-171.904,9.895-262.693    c5.397-42.044,12.05-79.264,18.903-105.941c3.388-13.189,6.753-23.504,9.898-30.392c0.712-1.56,1.399-2.909,2.044-4.037    c0.479,0.378,0.959,0.754,1.416,1.151c0.029,0.025,0.057,0.052,0.086,0.077c0.553,0.482,1.085,0.982,1.606,1.491    c0.166,0.162,0.329,0.327,0.492,0.492c0.408,0.413,0.806,0.834,1.194,1.263c0.131,0.145,0.266,0.287,0.396,0.434    c0.485,0.553,0.955,1.119,1.41,1.697c0.128,0.163,0.25,0.33,0.375,0.495c0.341,0.448,0.674,0.904,0.998,1.367    c0.141,0.202,0.282,0.403,0.419,0.607c0.385,0.572,0.76,1.153,1.12,1.747c0.03,0.05,0.063,0.098,0.093,0.149    c2.4,3.999,4.115,8.288,5.249,12.621c0.19,0.726,0.368,1.452,0.525,2.179c0.559,2.58,0.814,4.6,0.891,5.797    c-0.08,0.701-0.153,1.402-0.231,2.103c-0.152,1.359-0.302,2.721-0.45,4.088c-6.335,58.091-9.023,116.394-8.88,173.06    c-0.217,52.502,1.677,101.438,5.136,138.469C119.517,412.471,116.497,421.234,113.459,431.883z M143.605,438.359    c-0.32-2.76-0.677-6.014-1.062-9.742c-1.103-10.674-2.207-22.987-3.238-36.766c-2.988-39.943-4.708-81.648-4.816-124.282    c0.236-56.6,2.944-117.411,8.825-171.657c0.16-1.465,0.321-2.93,0.486-4.395c0.073-0.647,0.144-1.298,0.217-1.943    c-0.057-3.605-0.49-7.544-1.418-11.684c-1.348-6.02-3.751-12.469-7.648-18.962c-0.034-0.056-0.072-0.108-0.106-0.164    c-0.586-0.97-1.203-1.918-1.841-2.85c-0.223-0.325-0.455-0.643-0.684-0.964c-0.489-0.685-0.991-1.359-1.509-2.022    c-0.249-0.319-0.498-0.639-0.754-0.953c-0.629-0.771-1.279-1.526-1.949-2.264c-0.143-0.158-0.277-0.322-0.422-0.479    c-0.813-0.877-1.662-1.725-2.535-2.552c-0.079-0.075-0.15-0.156-0.229-0.231l40.662-26.14    c18.495,49.305,29.686,125.403,29.686,209.096c0,77.078-8.203,183.705-18.847,230.4h-23.82h-2.382l-6.32-18.961    C143.826,440.238,143.727,439.408,143.605,438.359z M348.868,493.938H161.135v-17.067h21.974h143.787h21.972V493.938z     M366.4,438.359c-0.122,1.049-0.221,1.879-0.294,2.485l-6.32,18.961h-2.384h-23.819c-10.644-46.695-18.847-153.322-18.847-230.4    c0-83.693,11.191-159.791,29.686-209.096l40.662,26.14c-0.076,0.072-0.144,0.15-0.22,0.222c-0.879,0.833-1.733,1.687-2.551,2.569    c-0.13,0.141-0.251,0.289-0.38,0.43c-0.686,0.755-1.351,1.528-1.995,2.317c-0.248,0.304-0.488,0.613-0.729,0.922    c-0.529,0.676-1.042,1.364-1.54,2.064c-0.22,0.309-0.444,0.615-0.658,0.928c-0.658,0.962-1.296,1.939-1.899,2.94    c-0.018,0.03-0.038,0.057-0.056,0.087c-2.493,4.154-4.376,8.291-5.767,12.245c-2.279,6.476-3.233,12.46-3.353,17.219    c0.088,0.776,0.173,1.558,0.26,2.337c0.146,1.311,0.289,2.622,0.432,3.932c5.929,54.97,8.654,116.253,8.885,173.135    c-0.112,42.612-1.831,84.211-4.812,124.055c-1.031,13.78-2.135,26.092-3.238,36.766C367.077,432.344,366.72,435.599,366.4,438.359    z M387.448,406.027c3.457-37.006,5.35-85.901,5.137-138.362c0.147-56.789-2.549-115.224-8.91-173.442    c-0.114-1.051-0.23-2.098-0.346-3.144c-0.103-0.924-0.2-1.849-0.305-2.773c0.077-1.197,0.332-3.217,0.891-5.797    c0.487-2.246,1.135-4.49,1.94-6.7c1.011-2.776,2.274-5.5,3.834-8.099c0.017-0.028,0.035-0.054,0.052-0.082    c0.375-0.622,0.769-1.23,1.172-1.829c0.129-0.192,0.262-0.381,0.394-0.571c0.335-0.48,0.679-0.952,1.033-1.416    c0.115-0.151,0.227-0.306,0.345-0.455c0.46-0.586,0.936-1.159,1.428-1.719c0.119-0.135,0.243-0.265,0.363-0.399    c0.4-0.443,0.811-0.878,1.232-1.303c0.154-0.156,0.308-0.312,0.465-0.466c0.539-0.527,1.09-1.045,1.663-1.543    c0.006-0.005,0.011-0.011,0.017-0.016c0.464-0.403,0.953-0.786,1.44-1.17c0.645,1.128,1.331,2.477,2.043,4.037    c3.145,6.888,6.51,17.203,9.898,30.392c6.854,26.677,13.506,63.897,18.903,105.941c11.654,90.789,15.856,188.687,9.895,262.693    h-36.478c-0.288-1.293-0.593-2.642-0.915-4.041c-1.871-8.128-3.922-16.261-6.096-23.881    C393.507,421.234,390.488,412.471,387.448,406.027z M408.602,493.938v-17.066h25.6v17.066H408.602z"
   id="path1"
   style="stroke:#000000;stroke-opacity:1;stroke-width:3.200025;stroke-dasharray:none" />
	</g>
</g>
</svg>
