<?xml version="1.0" encoding="iso-8859-1"?>
<!-- Uploaded to: SVG Repo, www.svgrepo.com, Generator: SVG Repo Mixer Tools -->
<!DOCTYPE svg PUBLIC "-//W3C//DTD SVG 1.1//EN" "http://www.w3.org/Graphics/SVG/1.1/DTD/svg11.dtd">
<svg fill="#000000" height="800px" width="800px" version="1.1" id="Capa_1" xmlns="http://www.w3.org/2000/svg" xmlns:xlink="http://www.w3.org/1999/xlink" 
	 viewBox="0 0 297 297" xml:space="preserve">
<g>
	<path d="M289.355,196.36c0,0-20.058-126.71-25.161-169.159C262.364,11.981,250.041,0,234.41,0h-35.013
		c-0.204,13.692-29.146,52.907-43.146,71.409V297h78.159c16.568,0,29.841-13.432,29.841-30v-36.644
		C280.251,227.815,291.74,212.587,289.355,196.36z M231.584,255h-49c-4.418,0-8-3.582-8-8s3.582-8,8-8h49c4.418,0,8,3.582,8,8
		S236.002,255,231.584,255z"/>
	<path d="M99.422,0H62.41C46.459,0,34.093,12.506,32.471,28.163C28.092,70.438,7.653,196.36,7.653,196.36
		c-2.369,16.109,8.597,31.232,24.597,33.936V267c0,16.568,13.591,30,30.159,30h77.841V71.409C126.251,52.072,99.619,13.166,99.422,0
		z M113.584,255h-49c-4.418,0-8-3.582-8-8s3.582-8,8-8h49c4.418,0,8,3.582,8,8S118.002,255,113.584,255z"/>
</g>
</svg>