<?xml version="1.0" encoding="UTF-8" standalone="no"?>
<svg
   id="logos"
   viewBox="0 0 800 800"
   version="1.1"
   sodipodi:docname="mp.svg"
   width="800"
   height="800"
   inkscape:version="1.4 (1:1.4+202410161351+e7c3feb100)"
   xmlns:inkscape="http://www.inkscape.org/namespaces/inkscape"
   xmlns:sodipodi="http://sodipodi.sourceforge.net/DTD/sodipodi-0.dtd"
   xmlns="http://www.w3.org/2000/svg"
   xmlns:svg="http://www.w3.org/2000/svg">
  <sodipodi:namedview
     id="namedview16"
     pagecolor="#ffffff"
     bordercolor="#666666"
     borderopacity="1.0"
     inkscape:showpageshadow="2"
     inkscape:pageopacity="0.0"
     inkscape:pagecheckerboard="0"
     inkscape:deskcolor="#d1d1d1"
     showguides="false"
     inkscape:zoom="0.53851443"
     inkscape:cx="397.38954"
     inkscape:cy="500.45084"
     inkscape:window-width="1920"
     inkscape:window-height="1027"
     inkscape:window-x="0"
     inkscape:window-y="25"
     inkscape:window-maximized="1"
     inkscape:current-layer="g16" />
  <defs
     id="defs1">
    <style
       id="style1">
      .cls-1 {
        fill: #0a0080;
      }

      .cls-1, .cls-2, .cls-3 {
        stroke-width: 0px;
      }

      .cls-4 {
        fill: #fff;
      }

      .cls-2 {
        fill: #0a0080;
      }

      .cls-3 {
        fill: #00bcff;
      }
    </style>
  </defs>
  <g
     id="g16"
     transform="translate(-7.7073175,-4.4048201)">
    <path
       id="rect1"
       style="fill:#ffffff;fill-rule:evenodd;stroke-width:7.36772;stroke-linecap:square;paint-order:fill markers stroke"
       d="M 16.757092,4.40482 H 798.65754 c 5.01358,0 9.04978,4.0361997 9.04978,9.049775 V 795.35504 c 0,5.01358 -4.0362,9.04978 -9.04978,9.04978 H 16.757092 c -5.013575,0 -9.0497746,-4.0362 -9.0497746,-9.04978 V 13.454595 c 0,-5.0135753 4.0361996,-9.049775 9.0497746,-9.049775 z" />
    <g
       id="g17">
      <path
         class="cls-3"
         d="m 407.7731,57.244656 c -128.00579,0 -231.75247,66.379464 -231.75247,148.268304 0,81.88883 103.76313,154.68258 231.75247,154.68258 127.98935,0 231.75249,-72.81019 231.75249,-154.68258 0,-81.87238 -103.76314,-148.268304 -231.75249,-148.268304 z"
         id="path1"
         style="display:inline" />
      <path
         class="cls-4"
         d="m 332.36432,159.6756 c -0.11512,0.23026 -2.38479,2.56571 -0.90457,4.4571 3.58541,4.57222 14.65414,7.20372 25.85444,4.68735 6.66097,-1.49667 15.21333,-8.28921 23.48609,-14.8515 8.96353,-7.12149 17.86127,-14.25941 26.80836,-17.08828 9.47338,-3.00976 15.54227,-1.72691 19.5553,-0.50985 4.39131,1.31576 9.57205,4.2104 17.82838,10.39441 15.54226,11.67726 78.00738,66.21499 88.81296,75.63904 8.68392,-3.93079 50.11353,-20.65724 102.61186,-32.23581 -4.57222,-27.99254 -21.39734,-54.68576 -47.23534,-75.63905 -36.00214,15.11465 -82.92499,24.17686 -125.94994,3.17425 -0.21381,-0.0823 -23.50254,-11.10163 -46.46233,-10.55887 -34.1272,0.78945 -48.91292,15.55871 -64.55387,31.19965 l -19.81844,21.36446 z"
         id="path2"
         style="display:inline" />
      <path
         class="cls-4"
         d="m 531.22312,228.34118 c -0.7401,-0.65788 -73.46806,-64.29071 -89.94779,-76.67518 -9.53917,-7.15438 -14.83506,-8.97999 -20.41054,-9.6872 -2.89464,-0.37829 -6.90768,0.16447 -9.70363,0.93747 -7.66424,2.08874 -17.68036,8.78262 -26.57811,15.83831 -9.21022,7.33529 -17.89416,14.24297 -25.96957,16.05211 -10.29572,2.30258 -22.87755,-0.41116 -28.6175,-4.29261 -2.31901,-1.56246 -3.9637,-3.3716 -4.75314,-5.19721 -2.12165,-4.91761 1.79271,-8.84841 2.43413,-9.50628 l 20.06515,-21.70983 c 2.33545,-2.31901 4.68735,-4.65446 7.0886,-6.95702 -6.48006,0.83879 -12.46671,2.49992 -18.2889,4.11171 -7.2695,2.03942 -14.27586,3.98015 -21.348,3.98015 -2.96043,0 -18.7823,-2.59861 -21.79208,-3.4045 -18.17376,-4.96696 -38.74876,-9.81878 -62.56378,-20.93683 -28.53528,21.23287 -47.12022,47.31756 -52.62991,76.57649 4.09526,1.0855 14.83505,3.53609 17.61457,4.14462 64.57031,14.35809 84.6848,29.14381 88.336,32.23581 3.94725,-4.3913 9.6543,-7.17083 16.00278,-7.17083 7.15438,0 13.58509,3.60186 17.49944,9.14445 3.70054,-2.92753 8.79907,-5.42747 15.39425,-5.41101 2.99332,0 6.10177,0.55919 9.24312,1.6118 7.28596,2.49991 11.05228,7.35173 12.99302,11.74304 2.43413,-1.10195 5.4439,-1.92428 8.97997,-1.90783 3.48673,0 7.10504,0.78945 10.73978,2.36834 11.90753,5.11497 13.74958,16.80868 12.68053,25.62418 0.85523,-0.0987 1.71046,-0.13157 2.56571,-0.13157 14.11139,0 25.59129,11.4799 25.59129,25.60774 0,4.37486 -1.11839,8.48656 -3.05912,12.08842 3.84857,2.15455 13.63443,7.03925 22.23614,5.95376 6.85833,-0.87167 9.47338,-3.20713 10.3944,-4.53933 0.64143,-0.90457 1.31575,-1.97362 0.69077,-2.73018 l -18.22311,-20.22961 c 0,0 -2.99332,-2.84531 -2.00651,-3.93079 1.01971,-1.1184 2.87819,0.4934 4.19395,1.5789 9.27602,7.74645 20.59145,19.42371 20.59145,19.42371 0.19735,0.13158 0.93747,1.6118 5.13142,2.35191 3.60186,0.64142 9.98322,0.27959 14.40743,-3.35517 1.10194,-0.92101 2.22032,-2.05585 3.17423,-3.24002 -0.0823,0.0658 -0.14802,0.13158 -0.21381,0.16446 4.6709,-5.9702 -0.52629,-11.98975 -0.52629,-11.98975 L 451.37369,252.995 c 0,0 -3.04267,-2.81241 -2.00652,-3.94725 0.92103,-0.98681 2.8782,0.49342 4.2104,1.6118 6.72676,5.62482 16.24948,15.18044 25.36103,24.11107 1.79271,1.2993 9.80232,6.2498 20.41053,-0.70722 6.44716,-4.22683 7.73002,-9.42404 7.54911,-13.32193 -0.44406,-5.18076 -4.48999,-8.88131 -4.48999,-8.88131 l -29.04513,-29.2096 c 0,0 -3.07556,-2.61504 -1.99007,-3.94722 0.88813,-1.1184 2.8782,0.4934 4.19395,1.57888 9.24312,7.74647 34.30812,30.72272 34.30812,30.72272 0.36183,0.24669 9.01287,6.41427 19.71976,-0.39473 3.83211,-2.45058 6.26625,-6.13467 6.48005,-10.4273 0.36184,-7.43398 -4.86826,-11.84173 -4.86826,-11.84173 z"
         id="path3"
         style="display:inline" />
      <path
         class="cls-4"
         d="m 390.29011,265.36304 c -4.50643,-0.0493 -9.44049,2.63148 -10.08191,2.23676 -0.36184,-0.23026 0.27959,-2.03942 0.69076,-3.09201 0.44406,-1.03615 6.36492,-18.88098 -8.09185,-25.08144 -11.06872,-4.75313 -17.84483,0.59209 -20.16383,3.00977 -0.60853,0.62499 -0.88813,0.57565 -0.95391,-0.2138 -0.23026,-3.22359 -1.66114,-11.90752 -11.21675,-14.83506 -13.65089,-4.17751 -22.4335,5.34522 -24.65382,8.79906 -1.00326,-7.77935 -7.582,-13.81535 -15.62451,-13.83179 -8.74972,0 -15.85476,7.07215 -15.87121,15.83831 0,8.74972 7.0886,15.85477 15.85477,15.85477 4.25973,0 8.10829,-1.69403 10.95359,-4.42421 0.0987,0.0823 0.13159,0.23025 0.0823,0.5263 -0.67432,3.93079 -1.89137,18.15731 13.02591,23.96305 5.98665,2.319 11.06872,0.59209 15.27912,-2.3519 1.24995,-0.88812 1.46377,-0.50986 1.28284,0.67432 -0.54274,3.66765 0.14804,11.49635 11.13452,15.95343 8.35499,3.4045 13.3055,-0.0658 16.56197,-3.07555 1.41444,-1.28286 1.79271,-1.06904 1.87494,0.92103 0.39473,10.59175 9.1938,19.01254 19.88425,19.029 11.01938,0 19.95001,-8.89775 19.95001,-19.90069 0,-11.01939 -8.91419,-19.83489 -19.93358,-19.95002 z"
         id="path4"
         style="display:inline" />
      <path
         class="cls-1"
         d="m 407.72376,51.109983 c -130.43992,0 -236.17668,69.372797 -236.17668,154.468767 0,2.20388 -0.0328,8.27276 -0.0328,9.04577 0,90.29317 92.41482,163.39939 236.17669,163.39939 143.76187,0 236.19313,-73.10622 236.19313,-163.38295 v -9.06221 C 643.88401,120.48278 538.14724,51.109983 407.72376,51.109983 Z M 633.24289,188.45758 c -51.3306,11.41411 -89.61885,27.97608 -99.20736,32.25226 -22.4006,-19.5553 -74.17527,-64.57031 -88.20442,-75.09629 -8.00963,-6.036 -13.48643,-9.21023 -18.28889,-10.64111 -2.15455,-0.65787 -5.13142,-1.39798 -8.96354,-1.39798 -3.56897,0 -7.40108,0.64143 -11.39766,1.92428 -9.06221,2.8782 -18.09153,10.04902 -26.82481,16.9896 l -0.44406,0.36183 c -8.14118,6.46361 -16.54553,13.15747 -22.91046,14.5719 -2.77951,0.62499 -5.64126,0.95392 -8.48657,0.95392 -7.13792,0 -13.53575,-2.0723 -15.93699,-5.13142 -0.39473,-0.50986 -0.13158,-1.33219 0.78945,-2.49993 l 0.11513,-0.16446 19.71976,-21.23289 c 15.44359,-15.44358 30.01549,-30.01548 63.58351,-30.78847 0.55919,-0.0165 1.11838,-0.0328 1.67757,-0.0328 20.8875,0.0165 41.77499,9.35824 44.12688,10.46019 19.5882,9.55561 39.81782,14.40743 60.12968,14.42387 21.13419,0 42.94271,-5.21364 65.8696,-15.75608 23.94661,20.13095 39.81781,44.39005 44.65318,70.82013 z M 407.75666,60.221532 c 69.24121,0 131.18003,19.851347 172.83988,51.100338 -20.13093,8.71685 -39.3244,13.10815 -57.84355,13.10815 -18.94675,-0.0165 -37.87708,-4.57223 -56.26465,-13.53575 -0.97037,-0.46052 -24.02883,-11.331886 -48.02479,-11.348327 -0.62497,0 -1.2664,0 -1.89138,0.01644 -28.18989,0.657887 -44.07754,10.674007 -54.75155,19.440167 -10.37796,0.26315 -19.34149,2.76307 -27.31821,4.98339 -7.12149,1.97363 -13.25616,3.6841 -19.2428,3.6841 -2.46703,0 -6.90768,-0.23025 -7.3024,-0.2467 -6.87479,-0.21381 -41.41316,-8.68392 -68.99452,-19.09478 C 280.52387,78.790006 340.75222,60.205079 407.7731,60.205079 Z m -176.9845,54.291038 c 28.79843,11.77595 63.74797,20.8875 74.80025,21.59471 3.07556,0.19737 6.36494,0.55919 9.6543,0.55919 7.33529,0 14.65414,-2.05585 21.72628,-4.02948 4.1775,-1.16773 8.79906,-2.45058 13.65089,-3.3716 -1.29931,1.26641 -2.59861,2.56571 -3.89791,3.865 l -20.01581,21.6605 c -1.57889,1.59535 -4.99984,5.83862 -2.74663,11.06872 0.88815,2.10521 2.71374,4.12817 5.263,5.83864 4.76958,3.20714 13.32194,5.39456 21.24932,5.39456 3.00977,0 5.87152,-0.29604 8.47013,-0.88812 8.40433,-1.87495 17.2034,-8.89775 26.52876,-16.31527 7.43397,-5.90443 17.99285,-13.40418 26.08469,-15.60806 2.26967,-0.60853 5.03274,-1.00326 7.26951,-1.00326 0.67432,0 1.2993,0.0328 1.87494,0.11513 5.32877,0.67432 10.49309,2.48346 19.71976,9.40758 16.44685,12.35159 89.1748,75.98443 89.88201,76.60941 0.0493,0.0328 4.68735,4.04592 4.35842,10.69045 -0.18093,3.71699 -2.23678,7.00636 -5.82219,9.29247 -3.10845,1.97362 -6.29914,2.97687 -9.53916,2.97687 -4.86828,0 -8.20698,-2.28611 -8.43723,-2.43412 -0.26316,-0.21382 -25.18013,-23.07492 -34.35748,-30.7556 -1.46376,-1.21707 -2.87819,-2.30257 -4.30905,-2.30257 -0.77302,0 -1.44734,0.32895 -1.90785,0.90458 -1.44732,1.77626 0.16447,4.2433 2.07231,5.85508 l 29.11091,29.27539 c 0,0 3.63475,3.38805 4.02948,7.87804 0.23026,4.85182 -2.08876,8.91418 -6.90767,12.07197 -3.43739,2.26967 -6.90769,3.40451 -10.31218,3.40451 -4.47354,0 -7.61489,-2.03942 -8.30565,-2.51638 l -4.1775,-4.11169 c -7.63134,-7.51622 -15.50938,-15.27914 -21.28222,-20.08162 -1.41443,-1.16771 -2.91109,-2.25322 -4.34197,-2.25322 -0.70721,0 -1.34864,0.26316 -1.84204,0.78945 -0.65788,0.72366 -1.11839,2.03942 0.52629,4.22685 0.65788,0.90458 1.46377,1.64469 1.46377,1.64469 l 21.23288,23.86436 c 0.16446,0.21381 4.37486,5.21365 0.47696,10.1806 l -0.75656,0.95392 c -0.64143,0.69076 -1.31575,1.34864 -1.97362,1.90783 -3.61831,2.97687 -8.45368,3.28937 -10.37795,3.28937 -1.03616,0 -2.00653,-0.0823 -2.87821,-0.2467 -2.08874,-0.37828 -3.50317,-0.95392 -4.19395,-1.75982 l -0.26314,-0.26314 c -1.15128,-1.20063 -11.85817,-12.13777 -20.72303,-19.5224 -1.16771,-0.98681 -2.63148,-2.20389 -4.12815,-2.20389 -0.74011,0 -1.39798,0.29605 -1.92428,0.85524 -1.74337,1.92428 0.88813,4.78603 2.00651,5.83863 l 18.10798,19.98292 c -0.0165,0.18091 -0.2467,0.59209 -0.67432,1.21707 -0.65787,0.90457 -2.8453,3.09201 -9.42404,3.91435 -0.78945,0.0987 -1.61179,0.14801 -2.40124,0.14801 -6.77609,0 -14.01271,-3.28937 -17.74615,-5.26299 1.69403,-3.5854 2.58216,-7.53265 2.58216,-11.4799 0,-14.91728 -12.10488,-27.03861 -27.02217,-27.05505 -0.31249,0 -0.65787,0 -0.97037,0.0165 0.47697,-6.80899 -0.47695,-19.70332 -13.71666,-25.37748 -3.81567,-1.64469 -7.61489,-2.49991 -11.29898,-2.49991 -2.89465,0 -5.67417,0.4934 -8.28921,1.49666 -2.74663,-5.32878 -7.3024,-9.21023 -13.22326,-11.23319 -3.28937,-1.13484 -6.54585,-1.71048 -9.70365,-1.71048 -5.50969,0 -10.59176,1.62824 -15.11464,4.83538 -4.34197,-5.39458 -10.88782,-8.58525 -17.77904,-8.58525 -6.03599,0 -11.84173,2.41768 -16.13436,6.6774 -5.64126,-4.30906 -28.00897,-18.51913 -87.89193,-32.12067 -2.86175,-0.64143 -9.35827,-2.49993 -13.43708,-3.70056 5.60838,-26.87414 22.69665,-51.42927 48.02479,-71.57666 z m 111.08199,155.88319 -0.64143,-0.57564 h -0.65787 c -0.52629,0 -1.08549,0.21382 -1.82559,0.74011 -3.05913,2.15453 -5.97021,3.19068 -8.94709,3.19068 -1.64469,0 -3.32226,-0.32893 -4.99984,-0.97035 -13.88114,-5.41102 -12.79565,-18.50272 -12.10488,-22.44994 0.0986,-0.80591 -0.0988,-1.41443 -0.60854,-1.84206 l -0.98681,-0.80589 -0.92102,0.87168 c -2.71373,2.61505 -6.2498,4.02949 -9.96679,4.02949 -7.94382,0 -14.42387,-6.46363 -14.40744,-14.42389 0,-7.94384 6.48006,-14.40744 14.44034,-14.39098 7.18726,0 13.30549,5.39456 14.21007,12.58182 l 0.49341,3.86501 2.12164,-3.27293 c 0.23026,-0.37827 6.06888,-9.19378 16.77578,-9.17732 2.03941,0 4.14461,0.32893 6.26625,0.9868 8.53591,2.5986 9.98323,10.34507 10.19704,13.56864 0.14803,1.87495 1.49667,1.97363 1.74337,1.97363 0.74011,0 1.28285,-0.46051 1.66113,-0.87169 1.61179,-1.67757 5.11497,-4.47354 10.60821,-4.47354 2.51637,0 5.18076,0.60853 7.94383,1.79271 13.56864,5.82219 7.41752,23.05847 7.35174,23.23939 -1.16773,2.86175 -1.21707,4.11171 -0.11513,4.85182 l 0.5263,0.24669 h 0.39472 c 0.60853,0 1.36509,-0.26314 2.6315,-0.69075 1.84205,-0.64143 4.62156,-1.59535 7.23661,-1.59535 v 0 c 10.2135,0.11513 18.51915,8.43723 18.51915,18.51915 0,10.19704 -8.3221,18.48626 -18.53559,18.48626 -9.98324,0 -18.10798,-7.77936 -18.46982,-17.66393 -0.0328,-0.85522 -0.11512,-3.092 -2.02296,-3.092 -0.773,0 -1.46376,0.47696 -2.23677,1.18417 -2.20387,2.03942 -4.99983,4.09528 -9.07866,4.09528 -1.85849,0 -3.865,-0.42763 -5.98664,-1.2993 -10.54244,-4.27618 -10.69045,-11.5128 -10.26284,-14.4239 0.11513,-0.77299 0.14803,-1.57889 -0.37827,-2.22032 z m 65.90251,80.39218 c -125.42363,0 -227.09803,-65.04728 -227.09803,-145.27498 0,-3.22358 0.23026,-6.43072 0.54274,-9.60495 1.00327,0.24669 10.97006,2.61504 13.02591,3.09201 61.1658,13.58508 81.37898,27.71292 84.79993,30.39376 -1.15128,2.77951 -1.75981,5.77284 -1.75981,8.79906 0,12.64763 10.27926,22.94335 22.91045,22.94335 1.41443,0 2.82885,-0.13158 4.21039,-0.39472 1.90783,9.30891 7.99317,16.3646 17.28564,19.98292 2.71372,1.03614 5.46035,1.5789 8.17408,1.5789 1.74336,0 3.50317,-0.21383 5.21365,-0.64144 1.72691,4.3584 5.57548,9.80232 14.22651,13.30551 3.02622,1.21705 6.05244,1.85847 8.99643,1.85847 2.40124,0 4.75314,-0.42761 6.9899,-1.24995 4.14462,10.08192 13.99627,16.77579 24.98277,16.77579 7.28595,0 14.27586,-2.96044 19.37438,-8.20699 4.35841,2.43414 13.56865,6.82545 22.87756,6.84189 1.20062,0 2.319,-0.0823 3.47028,-0.2138 9.24313,-1.16774 13.53575,-4.78603 15.50938,-7.59844 0.36183,-0.49342 0.67432,-1.01971 0.95391,-1.56247 2.17099,0.62499 4.57222,1.13484 7.33529,1.15129 5.04919,0 9.88456,-1.72691 14.78572,-5.27944 4.81893,-3.47029 8.23987,-8.45368 8.73327,-12.69697 0,-0.0493 0,-0.11513 0.0165,-0.1809 1.62824,0.32893 3.28937,0.4934 4.9505,0.4934 5.1972,0 10.31218,-1.6118 15.19689,-4.81894 9.42403,-6.16755 11.05227,-14.24294 10.90425,-19.5224 1.66112,0.34539 3.33872,0.5263 5.01629,0.5263 4.86826,0 9.67075,-1.46377 14.22652,-4.37485 5.83862,-3.73343 9.35826,-9.45693 9.901,-16.10146 0.34539,-4.52288 -0.773,-9.09511 -3.14135,-13.00946 15.75608,-6.79254 51.77467,-19.93357 94.19107,-29.48919 0.18093,2.40124 0.2796,4.81892 0.2796,7.25306 0,80.22772 -101.67439,145.27498 -227.08157,145.27498 z"
         id="path5"
         style="display:inline" />
    </g>
    <path
       class="cls-2"
       d="m 769.58724,471.9025 c -8.5688,-10.75624 -21.59472,-16.11791 -39.06126,-16.11791 -17.46654,0 -30.476,5.37813 -39.04481,16.11791 -8.58525,10.73978 -12.87788,23.43675 -12.87788,38.0909 0,14.65414 4.29263,27.64714 12.87788,38.25535 8.56881,10.57531 21.59471,15.8712 39.04481,15.8712 17.4501,0 30.49246,-5.29589 39.06126,-15.8712 8.58525,-10.60821 12.86143,-23.33808 12.86143,-38.25535 0,-14.91729 -4.27618,-27.35112 -12.86143,-38.0909 m -21.24933,61.64278 c -4.16105,5.50969 -10.1148,8.2892 -17.91061,8.2892 -7.7958,0 -13.74956,-2.77951 -17.94351,-8.2892 -4.19394,-5.50971 -6.28268,-13.37129 -6.28268,-23.55188 0,-10.18061 2.08874,-18.0093 6.28268,-23.50254 4.19395,-5.49326 10.1806,-8.23987 17.94351,-8.23987 7.76291,0 13.73312,2.74661 17.91061,8.23987 4.16105,5.49324 6.2498,13.33839 6.2498,23.50254 0,10.16413 -2.08875,18.04217 -6.2498,23.55188"
       id="path6"
       style="fill:#0a0080;fill-opacity:1" />
    <path
       class="cls-2"
       d="m 550.3837,462.90608 c -8.70038,-4.40776 -18.65073,-6.62809 -29.85103,-6.62809 -17.21984,0 -29.37407,4.49 -36.46266,13.45352 -4.45709,5.73995 -6.94056,13.07525 -7.53265,21.98944 h 25.73931 c 0.62499,-3.94724 1.89139,-7.0557 3.79922,-9.35826 2.64794,-3.10845 7.17083,-4.6709 13.53576,-4.6709 5.69061,0 9.99968,0.78944 12.96011,2.3848 2.92754,1.5789 4.40775,4.47354 4.40775,8.65103 0,3.43739 -1.90783,5.93731 -5.73995,7.582 -2.13809,0.93747 -5.69061,1.71047 -10.65754,2.33545 l -9.12801,1.11839 c -10.36151,1.31573 -18.2231,3.50318 -23.55188,6.56228 -9.73653,5.60839 -14.60479,14.68704 -14.60479,27.21954 0,9.65429 3.00976,17.12115 9.07865,22.38415 6.03599,5.27944 13.71667,7.48331 22.99269,7.91093 58.18893,2.5986 57.53107,-30.65692 58.05736,-37.56459 v -38.27181 c 0,-12.28579 -4.35841,-20.6408 -13.04234,-25.08144 m -13.51932,58.09026 c -0.18091,8.91419 -2.73017,15.04886 -7.63133,18.42046 -4.91761,3.37161 -10.26283,5.04918 -16.08501,5.04918 -3.68409,0 -6.80899,-1.03614 -9.37471,-3.04267 -2.5657,-2.02296 -3.84855,-5.32877 -3.84855,-9.88455 0,-5.09851 2.10519,-8.86485 6.29914,-11.31543 2.48347,-1.43088 6.56229,-2.64793 12.25289,-3.6183 l 6.06889,-1.13484 c 3.02622,-0.57563 5.39456,-1.20061 7.13793,-1.85849 1.75982,-0.62497 3.45383,-1.48021 5.14786,-2.5657 v 9.91744 z"
       id="path7"
       style="fill:#0a0080;fill-opacity:1" />
    <path
       class="cls-2"
       d="m 417.72345,479.07332 c 6.66097,0 11.52923,2.05586 14.70347,6.16757 2.15455,3.02622 3.50319,6.46361 4.02948,10.26282 h 28.69974 c -1.56244,-14.48966 -6.62807,-24.58803 -15.19688,-30.31152 -8.58525,-5.70707 -19.57174,-8.56881 -33.00882,-8.56881 -15.80541,0 -28.20634,4.85182 -37.1863,14.53901 -8.97999,9.70365 -13.48643,23.27228 -13.48643,40.70595 0,15.42714 4.06237,28.02542 12.20356,37.71261 8.1412,9.6872 20.82171,14.539 38.058,14.539 17.23629,0 30.29509,-5.80573 39.0777,-17.4501 5.50969,-7.20372 8.6017,-14.8515 9.24314,-22.92689 h -28.60107 c -0.59209,5.34522 -2.25322,9.70363 -5.03274,13.05879 -2.74662,3.3387 -7.40107,5.03273 -13.97981,5.03273 -9.25958,0 -15.57517,-4.22684 -18.91387,-12.69696 -1.84205,-4.52289 -2.77953,-10.49309 -2.77953,-17.9435 0,-7.45043 0.93748,-14.04562 2.77953,-18.79875 3.48673,-8.86485 9.95034,-13.32195 19.39083,-13.32195"
       id="path8"
       style="fill:#0a0080;fill-opacity:1" />
    <path
       class="cls-2"
       d="m 358.58059,456.62338 c -58.96194,0 -55.45876,52.18584 -55.45876,52.18584 v 53.00818 h 26.75902 v -49.71881 c 0,-8.15763 1.03615,-14.17717 3.07556,-18.10798 3.66764,-6.95702 10.85491,-10.44375 21.54537,-10.44375 0.80589,0 1.85849,0.0493 3.15778,0.11513 1.29931,0.0658 2.77952,0.18092 4.49,0.37828 v -27.21952 c -1.18417,-0.0823 -1.95718,-0.11513 -2.28611,-0.16447 -0.34539,-0.0328 -0.75655,-0.0493 -1.26641,-0.0493"
       id="path9"
       style="fill:#0a0080;fill-opacity:1" />
    <path
       class="cls-2"
       d="m 260.31069,534.12091 c -1.11838,1.6118 -2.319,2.97687 -3.65119,4.04592 -3.78278,3.10846 -8.91419,4.06237 -14.95018,4.06237 -5.70706,0 -10.19704,-0.85524 -14.24297,-3.40449 -6.67742,-4.11171 -10.44375,-11.05228 -10.83847,-21.23287 h 74.02725 c 0.0987,-8.78262 -0.18093,-15.50937 -0.88813,-20.18028 -1.21707,-7.96027 -3.94724,-14.96663 -8.09186,-21.00262 -4.62156,-6.8419 -10.49308,-11.85819 -17.56522,-15.04887 -7.08859,-3.15779 -15.04887,-4.73669 -23.88082,-4.73669 -14.90084,0 -27.00571,4.68735 -36.34752,14.0785 -9.32537,9.40759 -14.01272,22.894 -14.01272,40.50857 0,18.79874 5.18076,32.35096 15.52583,40.68949 10.32861,8.32212 22.26901,12.51606 35.78833,12.51606 16.38106,0 29.12735,-4.9505 38.22247,-14.83505 4.91759,-5.19721 7.99316,-10.34508 9.29247,-15.42714 h -28.38727 z m -35.95279,-49.8175 c 3.76632,-3.865 9.04575,-5.80572 15.8712,-5.80572 6.26625,0 11.52923,1.82559 15.77252,5.49324 4.22684,3.6512 6.57875,9.01287 7.07215,16.03568 H 217.3022 c 0.95391,-6.61163 3.33871,-11.84172 7.07214,-15.7232"
       id="path10"
       style="fill:#0a0080;fill-opacity:1" />
    <path
       class="cls-2"
       d="m 179.11263,561.8174 h -24.42356 v -61.52766 c 0,-5.62481 -1.8585,-18.9961 -17.97642,-18.9961 -10.73978,0 -18.51914,7.74647 -18.51914,18.9961 V 561.8174 H 93.737049 v -61.52766 c 0,-5.62481 -1.677573,-18.9961 -17.779036,-18.9961 -10.937148,0 -18.53559,7.74647 -18.53559,18.9961 V 561.8174 H 32.965965 v -60.95201 c 0,-25.41037 16.858015,-44.60384 42.975606,-44.60384 12.976562,0 23.535439,5.4439 30.393769,14.16074 7.22016,-8.71684 17.95996,-14.16074 30.37731,-14.16074 26.67679,0 42.41642,18.42046 42.41642,44.60384 v 60.95201 z"
       id="path11"
       style="fill:#0a0080;fill-opacity:1" />
    <path
       class="cls-2"
       d="m 670.62658,424.48624 c 0,0 -26.93994,-2.8782 -26.93994,18.76586 l -0.0329,28.66686 c -2.97688,-4.80249 -6.85833,-8.55238 -11.64436,-11.23321 -4.76959,-2.69728 -10.24639,-4.06237 -16.41395,-4.06237 -13.37129,0 -24.01239,4.9834 -32.00555,14.90085 -7.99317,9.95034 -11.98975,24.29198 -11.98975,41.62695 0,15.04888 4.06235,27.384 12.17065,36.98896 8.10829,9.5885 24.0124,13.79891 38.14024,13.79891 49.2583,0 48.68266,-42.23551 48.68266,-42.23551 v -97.2173 z m -32.0878,109.28928 c -3.89791,5.59194 -9.63786,8.38789 -17.15405,8.38789 -7.51622,0 -13.12459,-2.82884 -16.82513,-8.43723 -3.70054,-5.64125 -5.54259,-13.83179 -5.54259,-23.20648 0,-8.71683 1.80916,-15.98634 5.44391,-21.85786 3.63476,-5.87154 9.32537,-8.81551 17.10471,-8.81551 5.09853,0 9.57207,1.61179 13.43709,4.83537 6.26623,5.34522 9.42403,14.95018 9.42403,27.36755 0,8.8813 -1.97362,16.13435 -5.87152,21.72627"
       id="path12"
       style="fill:#0a0080;fill-opacity:1" />
    <path
       class="cls-2"
       d="m 226.36441,735.67699 c 0,3.76633 -1.43088,6.98991 -4.29262,9.63785 -2.54926,2.36835 -6.01956,3.55252 -9.48984,3.55252 h -12.96011 v -92.94112 c 0,-18.07508 6.10178,-29.39051 16.11791,-37.03829 7.25305,-5.54258 18.38757,-10.78913 40.40989,-9.75297 11.34832,0.52629 22.30193,5.46035 29.50565,14.24295 8.91418,10.85493 12.63117,22.95981 12.63117,38.76522 0,15.80542 -3.93079,29.45629 -11.79238,39.57111 -7.8616,9.83521 -17.97641,14.75282 -30.27864,14.75282 -6.5623,0 -12.31869,-1.16773 -17.28564,-3.48674 -5.263,-2.58215 -9.42405,-6.59517 -12.58183,-12.03909 v 34.73574 z m 44.81765,-72.36612 c 0,-10.09836 -1.95717,-17.84482 -5.90441,-23.27229 -3.9308,-5.41099 -9.55562,-8.15763 -16.90736,-8.15763 -7.35174,0 -12.58183,2.73018 -16.52908,8.15763 -3.6512,4.91762 -5.49324,12.69697 -5.49324,23.27229 0,9.85166 1.95717,17.18697 5.90441,22.12101 3.91435,5.44391 9.55562,8.15763 16.90736,8.15763 6.80899,0 12.18711,-2.69728 16.11791,-8.15763 3.94724,-5.42746 5.90441,-12.7792 5.90441,-22.12101"
       id="path13"
       style="fill:#0a0080;fill-opacity:1" />
    <path
       class="cls-2"
       d="m 475.51765,707.88183 v -6.56229 c -4.638,7.23661 -10.8878,11.74304 -18.73295,13.55219 -7.86159,1.7927 -15.64095,1.15128 -23.35453,-1.95716 -7.74645,-3.09201 -14.37453,-8.83196 -19.90066,-17.21985 -5.52615,-8.43724 -8.28922,-19.47306 -8.28922,-33.1733 0,-16.00278 3.66765,-28.99578 10.9865,-38.94612 7.33529,-9.95034 19.12767,-14.47322 35.34426,-14.91729 15.98634,-0.42761 25.26235,3.19069 34.35746,10.06547 9.95034,7.54911 15.83831,19.12768 15.83831,37.21921 v 54.68576 c 0.0328,17.40076 -12.10488,49.65303 -50.19577,46.9064 -23.61767,-1.71047 -36.72581,-11.39767 -44.02821,-33.33775 h 28.1899 c 2.05586,3.60185 5.1972,6.38137 9.45694,8.32209 4.22683,1.95719 8.50301,2.45059 12.7134,1.56247 4.25974,-0.90458 8.1083,-3.4374 11.61148,-7.54911 3.45383,-4.14461 5.4439,-10.34508 5.9702,-18.61784 m -44.0282,-44.57095 c 0,17.8284 5.14787,27.71294 15.46004,29.65367 10.27927,1.90784 17.87772,-0.47696 22.76242,-7.18727 2.31901,-2.82887 3.98014,-7.3024 5.03275,-13.35485 1.0197,-6.06888 1.10192,-12.08842 0.19736,-18.02573 -0.88814,-5.9702 -3.02623,-11.24964 -6.38138,-15.9041 -3.33871,-4.63801 -8.23987,-6.97346 -14.67059,-6.97346 -8.74971,0 -14.65414,3.24003 -17.74614,9.68719 -3.10845,6.46361 -4.63801,13.83179 -4.63801,22.12101"
       id="path14"
       style="fill:#0a0080;fill-opacity:1" />
    <path
       class="cls-2"
       d="m 382.36273,616.0262 c -8.70039,-4.39131 -18.65072,-6.62808 -29.85102,-6.62808 -17.21985,0 -29.35762,4.48999 -36.42977,13.46998 -4.44065,5.72349 -6.94057,13.05878 -7.53265,21.97297 h 25.73931 c 0.62498,-3.9308 1.89139,-7.05571 3.78277,-9.34181 2.64795,-3.10846 7.17083,-4.68736 13.53576,-4.68736 5.70706,0 10.01613,0.78945 12.96012,2.38481 2.92753,1.59534 4.3913,4.47355 4.3913,8.65103 0,3.43739 -1.90783,5.95377 -5.73995,7.56555 -2.13809,0.93747 -5.6906,1.71047 -10.65755,2.33545 l -9.11155,1.10194 c -10.36152,1.31574 -18.23956,3.50319 -23.53544,6.56229 -9.75298,5.60839 -14.6048,14.6706 -14.6048,27.20308 0,9.6543 3.00977,17.12117 9.07866,22.38416 6.03599,5.27943 13.71667,7.48331 23.00913,7.91094 58.15604,2.59859 57.49818,-30.65693 58.02448,-37.5646 v -38.2718 c 0,-12.26935 -4.32553,-20.62436 -13.02591,-25.06501 m -13.51931,58.07383 c -0.16446,8.93062 -2.73017,15.04885 -7.61489,18.42045 -4.90115,3.3716 -10.26282,5.0492 -16.085,5.0492 -3.6841,0 -6.79255,-1.03617 -9.35826,-3.04267 -2.56571,-2.02296 -3.84856,-5.31235 -3.84856,-9.86812 0,-5.09851 2.10519,-8.86485 6.29914,-11.29897 2.49992,-1.43088 6.56229,-2.64795 12.2529,-3.61832 l 6.08533,-1.13483 c 3.02622,-0.57564 5.41101,-1.18417 7.12149,-1.84204 1.75981,-0.64143 3.47028,-1.49668 5.16431,-2.56572 V 674.1 Z"
       id="path15"
       style="fill:#0a0080;fill-opacity:1" />
    <path
       class="cls-2"
       d="m 602.94781,624.46343 c -8.58525,-10.75624 -21.61115,-16.13436 -39.0777,-16.13436 -17.46655,0 -30.45955,5.36168 -39.02837,16.13436 -8.58525,10.73978 -12.87787,23.42031 -12.87787,38.07445 0,14.65413 4.29262,27.6307 12.87787,38.2389 8.56882,10.55889 21.59471,15.85477 39.02837,15.85477 17.43365,0 30.47599,-5.29588 39.0777,-15.85477 8.5688,-10.6082 12.84498,-23.33807 12.84498,-38.2389 0,-14.90086 -4.27618,-27.33467 -12.84498,-38.07445 m -21.26578,61.60989 c -4.16105,5.52612 -10.1148,8.30564 -17.87771,8.30564 -7.76291,0 -13.74957,-2.77952 -17.94351,-8.30564 -4.21039,-5.50971 -6.29915,-13.35485 -6.29915,-23.53544 0,-10.18059 2.08876,-18.0093 6.29915,-23.50255 4.1775,-5.49324 10.16415,-8.23986 17.94351,-8.23986 7.77936,0 13.73312,2.74662 17.87771,8.23986 4.16105,5.49325 6.23336,13.32196 6.23336,23.50255 0,10.18059 -2.07231,18.02573 -6.23336,23.53544"
       id="path16"
       style="fill:#0a0080;fill-opacity:1" />
  </g>
</svg>
