<?xml version="1.0" encoding="UTF-8" standalone="no"?>
<!-- Created with Inkscape (http://www.inkscape.org/) -->

<svg
   width="400"
   height="400"
   viewBox="0 0 105.83333 105.83334"
   version="1.1"
   id="svg1"
   xml:space="preserve"
   inkscape:export-filename="trjeta-naranja2.png"
   inkscape:export-xdpi="305.06"
   inkscape:export-ydpi="305.06"
   inkscape:version="1.4 (1:1.4+202410161351+e7c3feb100)"
   sodipodi:docname="naranja.svg"
   xmlns:inkscape="http://www.inkscape.org/namespaces/inkscape"
   xmlns:sodipodi="http://sodipodi.sourceforge.net/DTD/sodipodi-0.dtd"
   xmlns:xlink="http://www.w3.org/1999/xlink"
   xmlns="http://www.w3.org/2000/svg"
   xmlns:svg="http://www.w3.org/2000/svg"><sodipodi:namedview
     id="namedview1"
     pagecolor="#ffffff"
     bordercolor="#666666"
     borderopacity="1.0"
     inkscape:showpageshadow="2"
     inkscape:pageopacity="0.0"
     inkscape:pagecheckerboard="0"
     inkscape:deskcolor="#d1d1d1"
     inkscape:document-units="px"
     inkscape:export-bgcolor="#ffffffff"
     showguides="true"
     inkscape:zoom="1.0393815"
     inkscape:cx="143.35449"
     inkscape:cy="344.91666"
     inkscape:window-width="1920"
     inkscape:window-height="1027"
     inkscape:window-x="0"
     inkscape:window-y="25"
     inkscape:window-maximized="1"
     inkscape:current-layer="layer1"><inkscape:page
       x="0"
       y="0"
       width="105.83333"
       height="105.83334"
       id="page205"
       margin="0"
       bleed="0" /></sodipodi:namedview><defs
     id="defs1"><linearGradient
       id="linearGradient208"
       inkscape:collect="always"><stop
         style="stop-color:#e39043;stop-opacity:1;"
         offset="0"
         id="stop208" /><stop
         style="stop-color:#e00116;stop-opacity:1;"
         offset="0.67329013"
         id="stop209" /></linearGradient><linearGradient
       inkscape:collect="always"
       xlink:href="#linearGradient208"
       id="linearGradient209"
       x1="39.875168"
       y1="75.117798"
       x2="59.507736"
       y2="48.261879"
       gradientUnits="userSpaceOnUse"
       gradientTransform="matrix(1.028498,0,0,1.0734052,-12.046928,-16.299856)" /></defs><g
     inkscape:label="Layer 1"
     inkscape:groupmode="layer"
     id="layer1"><g
       id="g209"
       transform="matrix(0.89510918,0,0,0.89510918,5.5339563,0.93130408)"><path
         style="fill:url(#linearGradient209);fill-opacity:1;stroke:none;stroke-width:0.278px;stroke-linecap:butt;stroke-linejoin:miter;stroke-opacity:1"
         d="m 18.590764,56.031622 -0.09257,15.263823 c 0,0 11.413003,-1.204968 17.802201,-4.978363 C 47.927769,59.725121 50.496602,51.94344 54.505914,40.38137 L 39.67491,15.363091 c -0.374292,13.153682 3.253106,28.111999 -9.097003,36.852572 -3.572351,2.544838 -7.738086,3.396467 -11.987143,3.815959 z"
         id="path207"
         sodipodi:nodetypes="ccsccsc" /><rect
         style="opacity:1;fill:#9b282d;fill-opacity:1;fill-rule:evenodd;stroke-width:2.06312;stroke-linecap:square;paint-order:fill markers stroke"
         id="rect207"
         width="14.690642"
         height="82.719513"
         x="26.002501"
         y="30.218714"
         ry="7.3614111"
         transform="matrix(0.87114355,-0.49102843,0.47836565,0.87816075,0,0)" /><rect
         style="opacity:1;fill:#f15623;fill-opacity:1;fill-rule:evenodd;stroke-width:1.93304;stroke-linecap:square;paint-order:fill markers stroke"
         id="rect206"
         width="14.128451"
         height="75.507088"
         x="73.243591"
         y="8.8787947"
         ry="6.7195597" /></g><path
       style="font-weight:600;font-size:16.9333px;line-height:1.05;font-family:Outfit;-inkscape-font-specification:'Outfit Semi-Bold';text-align:center;letter-spacing:0px;word-spacing:0px;text-anchor:middle;fill:#f15623;stroke-width:0.264583"
       d="m 23.085561,92.350594 v -11.90411 h 1.608664 l 0.694265,2.302928 v 9.601182 z m 8.229584,0 -7.061186,-9.143982 0.440266,-2.760128 7.061186,9.143982 z m 0,0 -0.660399,-2.235196 v -9.668914 h 2.319862 v 11.90411 z m 7.264374,0.169333 q -1.117598,0 -2.015063,-0.558799 -0.897465,-0.558799 -1.405464,-1.523997 -0.507999,-0.965198 -0.507999,-2.167463 0,-1.219197 0.507999,-2.184395 0.507999,-0.965199 1.405464,-1.523997 0.897465,-0.558799 2.015063,-0.558799 0.880531,0 1.574797,0.355599 0.694265,0.355599 1.100664,0.999065 0.423333,0.626532 0.457199,1.422397 v 2.946394 q -0.03387,0.812798 -0.457199,1.439331 -0.406399,0.626532 -1.100664,0.999064 -0.694266,0.3556 -1.574797,0.3556 z m 0.406399,-2.04893 q 0.931332,0 1.507064,-0.609599 0.575732,-0.626532 0.575732,-1.608663 0,-0.643465 -0.270933,-1.134531 -0.253999,-0.507999 -0.728132,-0.778932 -0.457199,-0.287866 -1.083731,-0.287866 -0.609599,0 -1.083731,0.287866 -0.457199,0.270933 -0.728132,0.778932 -0.254,0.491066 -0.254,1.134531 0,0.660399 0.254,1.168398 0.270933,0.491065 0.728132,0.778931 0.474132,0.270933 1.083731,0.270933 z m 1.964263,1.879597 v -2.201329 l 0.355599,-1.99813 -0.355599,-1.964263 V 84.17181 h 2.201329 v 8.178784 z m 4.165579,0 V 84.17181 h 2.218263 v 8.178784 z m 2.218263,-4.521192 -0.863599,-0.575732 q 0.1524,-1.507063 0.880532,-2.370662 0.728132,-0.880531 2.099729,-0.880531 0.592666,0 1.066798,0.203199 0.474132,0.186267 0.863598,0.626532 l -1.38853,1.591731 q -0.186267,-0.2032 -0.457199,-0.3048 -0.254,-0.1016 -0.592666,-0.1016 -0.711199,0 -1.168398,0.457199 -0.440265,0.440266 -0.440265,1.354664 z m 8.017921,4.690525 q -1.117598,0 -2.015063,-0.558799 -0.897465,-0.558799 -1.405464,-1.523997 -0.507999,-0.965198 -0.507999,-2.167463 0,-1.219197 0.507999,-2.184395 0.507999,-0.965199 1.405464,-1.523997 0.897465,-0.558799 2.015063,-0.558799 0.880531,0 1.574796,0.355599 0.694266,0.355599 1.100665,0.999065 0.423332,0.626532 0.457199,1.422397 v 2.946394 q -0.03387,0.812798 -0.457199,1.439331 -0.406399,0.626532 -1.100665,0.999064 -0.694265,0.3556 -1.574796,0.3556 z m 0.406399,-2.04893 q 0.931331,0 1.507063,-0.609599 0.575733,-0.626532 0.575733,-1.608663 0,-0.643465 -0.270933,-1.134531 -0.254,-0.507999 -0.728132,-0.778932 -0.457199,-0.287866 -1.083731,-0.287866 -0.609599,0 -1.083731,0.287866 -0.4572,0.270933 -0.728132,0.778932 -0.254,0.491066 -0.254,1.134531 0,0.660399 0.254,1.168398 0.270932,0.491065 0.728132,0.778931 0.474132,0.270933 1.083731,0.270933 z m 1.964263,1.879597 v -2.201329 l 0.355599,-1.99813 -0.355599,-1.964263 V 84.17181 h 2.201329 v 8.178784 z m 9.668903,0 v -4.690525 q 0,-0.728131 -0.457199,-1.185331 -0.457199,-0.457199 -1.185331,-0.457199 -0.474132,0 -0.846665,0.2032 -0.372532,0.2032 -0.592665,0.575732 -0.2032,0.372533 -0.2032,0.863598 l -0.863598,-0.440265 q 0,-0.965198 0.406399,-1.676397 0.423333,-0.728132 1.151464,-1.134531 0.745066,-0.406399 1.676397,-0.406399 0.897465,0 1.608664,0.457199 0.711198,0.440266 1.117598,1.168397 0.406399,0.711199 0.406399,1.540931 v 5.18159 z m -5.503322,0 V 84.17181 h 2.218262 v 8.178784 z m 8.856119,3.623726 q -0.880532,0 -1.456264,-0.287866 -0.592665,-0.287866 -1.066798,-0.812799 l 1.405464,-1.405464 q 0.2032,0.254 0.440266,0.3556 0.220133,0.118533 0.524932,0.118533 0.423333,0 0.711199,-0.254 0.287866,-0.253999 0.287866,-0.745065 V 84.17181 h 2.218262 v 8.737582 q 0,0.965199 -0.423332,1.642531 -0.4064,0.694265 -1.100665,1.049864 -0.677332,0.372533 -1.54093,0.372533 z m 1.981196,-13.123308 q -0.541866,0 -0.897465,-0.355599 -0.355599,-0.372533 -0.355599,-0.914398 0,-0.524933 0.355599,-0.897465 0.355599,-0.372533 0.897465,-0.372533 0.558799,0 0.897465,0.372533 0.355599,0.372532 0.355599,0.897465 0,0.541865 -0.355599,0.914398 -0.338666,0.355599 -0.897465,0.355599 z m 6.451589,9.668915 q -1.117598,0 -2.015063,-0.558799 -0.897464,-0.558799 -1.405463,-1.523997 -0.507999,-0.965198 -0.507999,-2.167463 0,-1.219197 0.507999,-2.184395 0.507999,-0.965199 1.405463,-1.523997 0.897465,-0.558799 2.015063,-0.558799 0.880532,0 1.574797,0.355599 0.694265,0.355599 1.100665,0.999065 0.423332,0.626532 0.457199,1.422397 v 2.946394 q -0.03387,0.812798 -0.457199,1.439331 -0.4064,0.626532 -1.100665,0.999064 -0.694265,0.3556 -1.574797,0.3556 z m 0.406399,-2.04893 q 0.931332,0 1.507064,-0.609599 0.575732,-0.626532 0.575732,-1.608663 0,-0.643465 -0.270933,-1.134531 -0.253999,-0.507999 -0.728131,-0.778932 -0.4572,-0.287866 -1.083732,-0.287866 -0.609598,0 -1.083731,0.287866 -0.457199,0.270933 -0.728132,0.778932 -0.253999,0.491066 -0.253999,1.134531 0,0.660399 0.253999,1.168398 0.270933,0.491065 0.728132,0.778931 0.474133,0.270933 1.083731,0.270933 z m 1.964263,1.879597 v -2.201329 l 0.355599,-1.99813 -0.355599,-1.964263 V 84.17181 h 2.201329 v 8.178784 z"
       id="text209"
       aria-label="Naranja" /></g></svg>
