<?xml version="1.0" encoding="UTF-8" standalone="no"?>
<!-- Created with Inkscape (http://www.inkscape.org/) -->

<svg
   version="1.1"
   id="svg1"
   width="848.09332"
   height="368.98666"
   viewBox="0 0 848.09332 368.98666"
   sodipodi:docname="nativa.svg"
   inkscape:version="1.4 (1:1.4+202410161351+e7c3feb100)"
   xmlns:inkscape="http://www.inkscape.org/namespaces/inkscape"
   xmlns:sodipodi="http://sodipodi.sourceforge.net/DTD/sodipodi-0.dtd"
   xmlns="http://www.w3.org/2000/svg"
   xmlns:svg="http://www.w3.org/2000/svg">
  <sodipodi:namedview
     id="namedview1"
     pagecolor="#ffffff"
     bordercolor="#666666"
     borderopacity="1.0"
     inkscape:showpageshadow="2"
     inkscape:pageopacity="0.0"
     inkscape:pagecheckerboard="0"
     inkscape:deskcolor="#d1d1d1"
     inkscape:zoom="0.7403794"
     inkscape:cx="445.71743"
     inkscape:cy="247.8459"
     inkscape:window-width="1920"
     inkscape:window-height="1027"
     inkscape:window-x="0"
     inkscape:window-y="25"
     inkscape:window-maximized="1"
     inkscape:current-layer="layer2" />
  <defs
     id="defs1" />
  <g
     inkscape:groupmode="layer"
     id="layer2"
     inkscape:label="Layer 1">
    <g
       id="group-R5"
       inkscape:label="Nativa">
      <g
         id="g4"
         inkscape:label="Logo">
        <path
           id="path2"
           d="m 701.539,408.711 c 49.184,166.969 98.371,333.937 147.578,500.937 -1.144,0.922 -2.285,1.852 -3.429,2.782 -23.422,-18.45 -43.829,-40.481 -66.274,-60.071 -22.539,-19.648 -44.105,-40.449 -66.101,-60.738 -22.528,-20.801 -45.051,-41.59 -67.559,-62.383 -21.969,-20.34 -43.906,-40.699 -65.891,-61 -22.508,-20.816 -45,-41.636 -67.617,-62.308 -21.953,-20.09 -44.078,-39.981 -66.125,-59.969 -1.277,0.949 -2.547,1.937 -3.824,2.93 94.375,149.289 188.75,298.589 283.125,447.89 -0.914,1.078 -1.836,2.149 -2.766,3.239 -163.633,-87 -327.265,-174.04 -490.914,-261.051 -0.89,1.23 -1.793,2.429 -2.699,3.679 133.57,122.133 267.117,244.274 400.676,366.402 -0.664,1.4 -1.344,2.81 -2.028,4.21 -181.414,-44.93 -362.808,-89.85 -544.2066,-134.78 -0.6485,1.418 -1.2813,2.852 -1.9336,4.27 39.6762,22.8 80.9842,42.73 121.2262,64.54 40.43,21.88 81.418,42.77 122.09,64.2 41.344,21.76 82.59,43.69 123.899,65.51 40.554,21.41 81.152,42.76 123.297,64.94 -6.641,5.44 -12.559,3.74 -17.782,3.74 -163.539,-0.15 -327.078,-0.43 -490.6208,-0.71 C 44.9258,1244.94 26,1240.9 6.95313,1249.95 187.656,1293.97 368.34,1338.01 549.043,1382.01 c 0,1.51 0.016,3.03 0.027,4.54 -183.031,44.68 -366.05,89.36 -549.07,134.02 0.140625,1.08 0.265625,2.14 0.386719,3.23 189.523281,0 379.015281,0 568.660281,0 -2.004,2.4 0.48,-0.65 0.465,2.27 0,0.62 -0.336,1.4 -0.785,1.83 -1.024,1.01 -2.133,1.97 -3.336,2.72 -1.856,1.17 -3.805,2.17 -5.746,3.19 -157.551,83.06 -315.094,166.12 -472.6216,249.2 -1.2812,0.68 -2.4882,1.56 -3.6015,2.49 -0.4922,0.43 -0.6797,1.22 -2.9336,5.51 184.1447,-45.59 365.6567,-90.51 547.1567,-135.44 0.668,1.38 1.343,2.77 2.023,4.15 -133.52,122.13 -267.039,244.25 -400.566,366.37 0.925,1.24 1.855,2.49 2.785,3.72 163.351,-86.97 326.687,-173.93 490.043,-260.9 -42.766,77.89 -90.934,151.93 -137.864,226.72 -46.902,74.72 -94.238,149.17 -139.75,225.35 25.414,-16.18 45.34,-38.59 67.747,-58.01 22.601,-19.61 44.07,-40.51 66.058,-60.81 22.504,-20.81 45.063,-41.59 67.582,-62.38 21.988,-20.32 43.942,-40.65 65.922,-60.96 22.523,-20.79 45.031,-41.62 67.605,-62.37 21.875,-20.11 43.829,-40.13 65.731,-60.2 1.406,0.74 2.828,1.47 4.234,2.2 -49.433,167.98 -98.875,335.97 -148.32,503.96 1.203,0.62 2.406,1.23 3.613,1.85 94.793,-151.27 189.571,-302.56 284.344,-453.85 1.606,0.44 3.234,0.85 4.856,1.27 -0.977,173.91 0.8,347.8 -2.657,521.64 6.02,0.83 6.391,-3.21 7.367,-6.57 45.602,-157.7 91.082,-315.43 136.982,-473.04 3.81,-13.12 3.92,-25.35 1.13,-38.61 -18.93,-89.98 -32.94,-180.69 -42.53,-272.2 -11.51,-109.84 -14.65,-219.87 -12.05,-330.14 2.53,-107.3 12.53,-213.96 29.21,-320.069 7.6,-48.293 16.22,-96.332 26.57,-144.07 2.4,-11.062 1.15,-21.473 -2.01,-32.281 -37.09,-127.508 -73.89,-255.09 -110.79,-382.668 -9.5,-32.813 -19.1,-65.621 -30.715,-98.281 -4.976,34.05 -0.523,68.089 -1.172,102.019 -0.652,35.012 -0.187,70.078 -0.128,105.121 0.078,35.028 0.343,70.071 0.421,105.129 0.079,35.039 0.012,70.078 0.012,105.121 0,34.668 0,69.367 0,104.028 -1.433,0.492 -2.855,1.019 -4.297,1.55 C 894.734,707.949 800.438,557.57 706.156,407.172 c -1.547,0.519 -3.09,1.008 -4.617,1.539"
           style="fill:#f0ad2a;fill-opacity:1;fill-rule:evenodd;stroke:none"
           transform="matrix(0.13333333,0,0,-0.13333333,0,368.98667)" />
        <path
           id="path6"
           d="m 1511.57,2718.11 c -33.49,-77.64 -66.26,-155.56 -94.73,-235.22 -69.13,-193.43 -119.73,-391.53 -151.62,-594.51 -31.82,-202.4 -44.64,-406.05 -37.55,-610.63 15.08,-436.012 112.1,-853.031 294.96,-1249.6094 3.52,-7.6211 8.43,-14.9492 10.09,-28.1406 -29.26,42.7617 -53.53,83.3008 -76.92,124.328 -142.14,249.281 -239.61,514.871 -291.42,797.242 -31.46,171.36 -46.01,344.1 -41.65,518.14 11.44,457.59 134.76,882.59 373.99,1273.42 3.03,4.94 6.51,9.62 9.76,14.42 7.82,0.14 7.78,-3.94 5.09,-9.44"
           style="fill:#304479;fill-opacity:1;fill-rule:evenodd;stroke:none"
           transform="matrix(0.13333333,0,0,-0.13333333,0,368.98667)" />
      </g>
      <g
         id="g3"
         inkscape:label="Nativa">
        <path
           id="path3"
           d="m 2047.14,1812.27 c 9.98,11.78 18.2,21.87 26.82,31.62 57.36,64.89 126.32,110.69 213.37,123.16 76.26,10.92 151.65,4.83 223.61,-24.57 83.61,-34.15 131.02,-99.18 152.52,-184.96 10.71,-42.72 14.03,-86.24 14,-130.19 -0.17,-258.43 -0.09,-516.85 -0.08,-775.279 0,-2.903 0.06,-5.84 -0.01,-8.742 -0.41,-15.848 -0.42,-16.161 -15.44,-16.25 -38.68,-0.188 -77.38,0.211 -116.06,-0.219 -10.17,-0.121 -15.16,2.781 -14.04,13.601 0.52,5.071 0.09,10.219 0.09,15.321 0,248.188 -0.06,496.398 0.08,744.608 0.01,38.11 -2.8,75.82 -13.49,112.55 -27.44,94.31 -93.74,145.4 -194.12,150.87 -32.3,1.76 -64.18,-1.07 -95.26,-10.32 -76.95,-22.9 -127.24,-74.4 -156.43,-147.7 -21.94,-55.05 -28.62,-112.79 -28.6,-171.61 0.09,-224.86 0.05,-449.7 0.05,-674.531 0,-2.199 0,-4.399 0,-6.559 -0.02,-29.59 1.54,-25.922 -25.74,-26.039 -35.04,-0.133 -70.09,-0.191 -105.11,0.028 -15.3,0.089 -15.32,0.461 -15.73,16 -0.09,3.679 0,7.332 0,10.972 0,356.239 -0.05,712.479 0.06,1068.729 0,29.1 -4.88,27.28 26.42,27.34 35.03,0.04 70.07,-0.33 105.11,0.2 11.4,0.19 15.36,-3.81 15.17,-15.17 -0.54,-32.86 -0.3,-65.7 -0.11,-98.56 0.05,-7.12 -1.56,-14.46 2.92,-24.3"
           style="fill:#304479;fill-opacity:1;fill-rule:evenodd;stroke:none"
           transform="matrix(0.13333333,0,0,-0.13333333,0,368.98667)" />
        <path
           id="path4"
           d="m 5509.85,1947.83 c 2.1,-7.67 -2.47,-14.12 -4.61,-20.73 -116.35,-360.06 -232.91,-720.07 -349.44,-1080.049 -6.45,-19.93 -6.45,-19.992 -26.77,-20.02 -43.07,-0.07 -86.16,-0.101 -129.23,0 -18.06,0.028 -18.15,0.117 -23.85,17.668 -66.8,205.991 -133.62,411.951 -200.33,617.961 -50.33,155.36 -100.53,310.76 -150.78,466.14 -1.94,6.05 -3.73,12.16 -5.29,17.27 5.63,5.62 11.02,3.94 15.9,3.95 40.15,0.14 80.3,0.11 120.45,0.08 20.42,-0.01 20.52,-0.03 26.68,-20.08 34.06,-110.82 68.04,-221.64 102.13,-332.44 59.38,-193.05 118.84,-386.07 178.29,-579.09 2.09,-6.76 2.86,-14.12 7.93,-19.83 7.43,4.48 7.04,12.73 9.11,19.35 94.1,300.56 187.84,601.24 281.97,901.81 11.35,36.2 2.64,29.72 40.92,30.22 29.2,0.35 58.4,0.18 87.61,-0.03 6.31,-0.05 12.98,1.83 19.31,-2.18"
           style="fill:#304479;fill-opacity:1;fill-rule:evenodd;stroke:none"
           transform="matrix(0.13333333,0,0,-0.13333333,0,368.98667)" />
        <path
           id="path5"
           d="m 3844.78,1415.02 c 0.01,131.38 0.01,262.75 0.01,394.13 -0.01,32.94 -0.05,32.95 -31.89,32.95 -48.18,0 -96.36,-0.01 -144.52,0 -20.64,0 -19.7,-1.89 -19.73,20.52 -0.02,21.9 -0.02,43.79 -0.02,65.7 0.02,22.37 -2.1,21.8 20.91,21.8 49.63,-0.03 99.27,-0.07 148.91,0 28.73,0.06 26.29,-2.65 26.31,25.45 0.07,63.5 0.04,126.99 0,190.5 -0.02,25.23 -0.24,21.96 22.88,22.02 35.74,0.1 71.52,0.16 107.28,-0.05 15.26,-0.08 15.63,-0.4 15.66,-15.93 0.13,-65.68 0.05,-131.38 0.05,-197.04 0,-5.12 0.14,-10.23 0.03,-15.34 -0.13,-6.15 2.36,-9.55 8.87,-9.48 5.84,0.07 11.68,-0.13 17.52,-0.13 67.16,-0.02 134.3,0.04 201.46,-0.05 18.13,-0.02 18.29,-0.22 18.4,-17.62 0.16,-24.11 0.13,-48.19 -0.01,-72.27 -0.1,-17.83 -0.24,-18.03 -17.7,-18.06 -67.16,-0.08 -134.3,-0.02 -201.44,-0.02 -5.12,0 -10.24,-0.31 -15.32,0.03 -8.12,0.53 -12.47,-2.4 -11.81,-11.12 0.29,-3.62 0,-7.3 0,-10.94 0.14,-240.84 0.32,-481.69 0.37,-722.57 0,-22.68 1.57,-45.17 4.49,-67.64 7.8,-59.969 35.62,-86.501 96.29,-89.411 40.06,-1.89 80.22,-2.41 120.22,2.653 5.05,0.66 10.2,0.75 15.27,1.367 6.28,0.801 9.64,-1.27 9.64,-8.09 -0.08,-32.859 0.16,-65.699 -0.16,-98.539 -0.13,-12.82 -11.62,-9.61 -18.2,-10.039 -49.48,-3.403 -99.03,-7.242 -148.68,-4.539 -28.38,1.508 -56.71,4.258 -84.34,11.636 -31.4,8.383 -60.66,20.801 -84.97,43.141 -36.75,33.742 -49.91,77.77 -54.27,125.381 -1.4,15.23 -1.45,30.62 -1.46,45.94 -0.1,121.89 -0.05,243.78 -0.05,365.66"
           style="fill:#304479;fill-opacity:1;fill-rule:evenodd;stroke:none"
           transform="matrix(0.13333333,0,0,-0.13333333,0,368.98667)" />
        <path
           id="path7"
           d="m 4517.09,1388.96 c 0,-179.55 0.02,-359.1 -0.01,-538.64 0,-26.73 1.86,-23.57 -23.22,-23.66 -41.61,-0.129 -83.21,0.301 -124.81,-0.281 -11.51,-0.16 -16.13,3.641 -14.78,14.992 0.42,3.578 0.06,7.277 0.06,10.93 0,357.639 0,715.279 0,1072.909 0,4.38 0.24,8.78 -0.06,13.13 -0.58,8.24 2.66,11.86 11.28,11.8 46.71,-0.19 93.42,-0.19 140.14,0.06 8.52,0.04 11.98,-3.31 11.45,-11.66 -0.32,-5.08 -0.05,-10.2 -0.05,-15.32 0,-178.07 0,-356.17 0,-534.26"
           style="fill:#304479;fill-opacity:1;fill-rule:evenodd;stroke:none"
           transform="matrix(0.13333333,0,0,-0.13333333,0,368.98667)" />
        <path
           id="path14"
           d="m 6201.61,1278.84 c 0,35.04 0.17,70.07 -0.08,105.08 -0.1,15.24 -0.5,15.69 -16.24,15.38 -81.66,-1.65 -163.44,-1.53 -244.61,-12.63 -51.53,-7.02 -101.77,-18.72 -148.24,-43.32 -53.01,-28.12 -89.32,-70.11 -104.22,-128.62 -13.98,-54.91 -12.63,-109.97 5.61,-163.88 25.09,-74.159 76.18,-120.01 153.42,-133.479 100.18,-17.461 187.97,10.777 262.21,79.25 56.51,52.129 88.83,116.879 91.7,194.649 1.09,29.14 0.17,58.37 0.17,87.57 0.1,0 0.18,0 0.28,0 z m 4.84,-315.828 c -9.38,-11.071 -18.43,-22.41 -28.23,-33.071 -43.35,-47.211 -95.59,-80.953 -156.54,-100.632 -87.97,-28.418 -177.36,-33.829 -267.49,-12.231 -116.25,27.871 -203.45,110.832 -225.48,250.052 -9.33,58.92 -7.52,117.75 7.45,175.84 20.38,79.06 66.5,138.38 137.06,179.01 50.58,29.12 105.61,45.37 162.41,56.57 64.58,12.73 130.03,17.55 195.58,20.96 49.53,2.56 99.13,4.05 148.71,6.09 21.52,0.88 21.72,0.96 21.67,22.43 -0.12,52.5 1.66,105.08 -6.66,157.24 -2.53,15.91 -6.25,31.47 -11.34,46.68 -19.62,58.76 -58.48,98.9 -118.02,116.55 -75.4,22.34 -151.43,22.58 -225.98,-3.2 -64.53,-22.29 -107.4,-65.88 -120.63,-134.96 -0.83,-4.28 -1.43,-8.64 -1.85,-12.98 -2.63,-26.45 -2.6,-26.45 -28.25,-26.46 -37.22,0 -74.46,-0.11 -111.66,0.05 -18.44,0.07 -18.53,0.47 -16.48,18.32 13.44,116.4 75.29,196.34 182.41,242.16 46,19.68 94.21,31.39 143.8,35.55 86.07,7.24 171.97,7.67 256.42,-14.81 17.67,-4.7 34.87,-10.72 51.52,-18.2 88.29,-39.7 135.68,-109.26 148.85,-203.86 3.23,-23.19 3.82,-46.47 3.83,-69.84 0.18,-218.94 0.08,-437.88 1.11,-656.82 0.24,-49.559 4.81,-99.059 10.46,-148.368 0.5,-4.363 1.06,-8.684 1.3,-13.07 0.88,-14.793 0.84,-15.231 -13.14,-15.293 -40.86,-0.219 -81.74,0.242 -122.62,-0.321 -10.86,-0.148 -13.73,3.872 -13.62,14.012 0.42,33.551 0.16,67.141 0.15,100.692 0,7.007 0,14.046 0,21.07 -1.58,0.277 -3.17,0.519 -4.74,0.84"
           style="fill:#304479;fill-opacity:1;fill-rule:evenodd;stroke:none"
           transform="matrix(0.13333333,0,0,-0.13333333,0,368.98667)" />
        <path
           id="path15"
           d="m 3438.35,1377.73 c 0.03,23.13 1.48,22.12 -20.83,21.55 -45.96,-1.19 -91.91,-2.26 -137.86,-3.77 -44.5,-1.47 -88.81,-5.57 -132.64,-13.66 -47.62,-8.78 -93.71,-22.15 -135.01,-48.54 -44.33,-28.37 -74.21,-67.48 -87.02,-118.83 -13.36,-53.58 -12.54,-107.16 4.3,-159.77 24.38,-76.198 75.92,-123.159 155.04,-137.519 78.17,-14.179 151.33,1.168 217.49,44.61 76.48,50.209 124.61,119.849 135.07,212.359 4.12,36.3 0.5,72.91 1.46,102.69 0,38.11 -0.02,69.5 0,100.88 z m -641.69,293.17 c 7.57,114.77 59.2,197.77 159.36,249.43 43.85,22.63 90.79,36.57 139.43,43.03 89.48,11.89 178.95,12.14 267.75,-6.88 25.03,-5.37 49.19,-13.55 72.44,-24.35 82.84,-38.48 128.86,-104.31 143.63,-193.4 3.94,-23.85 4.74,-47.87 4.74,-71.97 0.02,-210.26 -0.35,-420.52 0.48,-630.75 0.24,-57.58 3.9,-115.209 10.71,-172.498 0.7,-5.813 1.13,-11.653 1.5,-17.453 1.25,-19.219 1.2,-19.34 -17.84,-19.399 -37.24,-0.129 -74.47,0 -111.7,-0.039 -20.92,-0.031 -19.7,-0.992 -19.66,20.77 0.03,37.937 0,75.847 0,113.39 -5.3,2.84 -7.16,-0.621 -9.34,-3.429 -71.77,-92.911 -168.38,-138.422 -283.48,-149.852 -55.71,-5.531 -110.86,-4.328 -165.08,9.82 -114.57,29.91 -187.72,102.149 -217.13,217.15 -17.32,67.64 -16.8,135.76 -0.62,203.64 20.13,84.51 69.61,146.45 145.39,187.89 55.78,30.5 116.27,46.49 178.44,56.7 72.87,11.98 146.39,16.3 220.1,18.54 35.01,1.08 70,2.78 104.97,4.54 17.01,0.85 17.68,1.38 17.52,17.45 -0.46,44.5 1.94,89.02 -2.87,133.47 -2.06,18.91 -4.88,37.57 -9.41,56.02 -18.38,75.06 -64.7,122.87 -139.99,140.74 -64.24,15.22 -128.72,14.85 -192.73,-2.52 -14.09,-3.84 -27.66,-9.12 -40.79,-15.62 -61.63,-30.56 -94.36,-80.41 -99.51,-148.71 -1.14,-15.28 -1.05,-15.59 -15.84,-15.65 -45.88,-0.16 -91.76,-0.06 -140.47,-0.06"
           style="fill:#304479;fill-opacity:1;fill-rule:evenodd;stroke:none"
           transform="matrix(0.13333333,0,0,-0.13333333,0,368.98667)" />
        <path
           id="path10"
           d="m 4354.33,2106.61 c 0,22.55 0.39,45.13 -0.17,67.68 -0.25,10.13 2.72,14.14 13.52,14.01 45.1,-0.48 90.23,-0.42 135.34,-0.03 9.87,0.09 14.38,-2.11 14.26,-13.17 -0.49,-46.58 -0.34,-93.16 -0.07,-139.72 0.04,-9.01 -2.51,-13.03 -12.31,-12.95 -45.83,0.37 -91.68,0.48 -137.54,-0.08 -11.31,-0.12 -13.34,4.75 -13.16,14.4 0.42,23.28 0.15,46.58 0.13,69.86"
           style="fill:#304479;fill-opacity:1;fill-rule:evenodd;stroke:none"
           transform="matrix(0.13333333,0,0,-0.13333333,0,368.98667)" />
      </g>
      <g
         id="g2"
         inkscape:label="Nacion">
        <path
           id="path8"
           d="m 6311.12,479.898 c -47.6,54.563 -93.46,107.122 -140.87,161.473 -9.42,-23.269 -9.67,-45.922 -14.4,-67.539 -4.03,-18.48 -7.14,-37.273 -9.39,-56.062 -1.42,-11.821 -6.38,-15.782 -18.25,-16.032 -35.19,-0.769 -35.08,-1.297 -29.1,33.184 11.45,66.039 22.74,132.117 34.22,198.168 0.96,5.512 0.74,11.629 7.49,16.941 45.76,-52.621 91.5,-105.269 137.17,-157.82 7.38,2.469 6.78,8.219 7.57,12.789 6.21,35.898 12.17,71.828 18.26,107.77 2.74,16.218 2.9,16.308 19.4,16.808 33.42,1.012 33.72,0.961 28.21,-31.769 -11.77,-69.7 -23.85,-139.34 -35.9,-209.008 -0.35,-1.992 -1.83,-3.77 -4.41,-8.903"
           style="fill:#f0ad2b;fill-opacity:1;fill-rule:evenodd;stroke:none"
           transform="matrix(0.13333333,0,0,-0.13333333,0,368.98667)" />
        <path
           id="path9"
           d="m 4693.03,642.781 c -6.87,-39.14 -12.4,-74.211 -19.26,-109 -7.31,-37.043 1.96,-31.332 -39.36,-31.601 -13.47,-0.071 -14.92,1.629 -12.81,15.929 3.95,26.672 8.73,53.18 13.38,79.75 8.28,47.332 16.72,94.672 25.12,142 0.5,2.84 1.29,5.629 2.75,11.942 49.54,-52.75 93.11,-107.879 142.77,-161.539 8.05,23.359 9.17,44.34 13.2,64.636 3.95,19.993 7.32,40.141 10.4,60.274 1.56,10.387 6,14.808 17.16,14.59 38.87,-0.711 36.25,3.59 29.57,-32.961 -12.43,-68.071 -23.68,-136.352 -35.48,-204.52 -0.47,-2.711 -0.15,-5.992 -6.5,-8.429 -47.49,49.679 -90.68,104.898 -140.94,158.929"
           style="fill:#f0ad2b;fill-opacity:1;fill-rule:evenodd;stroke:none"
           transform="matrix(0.13333333,0,0,-0.13333333,0,368.98667)" />
        <path
           id="path11"
           d="m 5465.86,582.512 c -2.81,-17.223 -5.69,-32.883 -7.76,-48.633 -0.96,-7.27 -4,-12.149 -10.39,-15.418 -41.68,-21.32 -84.31,-27.75 -128.06,-6.992 -46.09,21.851 -67,70.113 -52.31,118.801 21.91,72.582 109.75,119.699 181.99,97.539 4.17,-1.258 8.26,-2.899 12.23,-4.731 23.98,-10.84 26.77,-16.187 21.99,-41.949 -1.69,-9.238 -3.54,-18.418 -5.52,-28.547 -9.24,-0.523 -12.38,7.109 -16.86,11.988 -21.5,23.418 -47.71,29.5 -77.58,21.129 -28.81,-8.058 -50.54,-25.269 -63.54,-52.621 -10.5,-22.137 -10.2,-44.058 4.16,-64.258 14.38,-20.242 35.52,-27.129 59.42,-25.308 23.25,1.789 43.24,12.136 61.46,26.179 5.69,4.379 10.01,10.719 20.77,12.821"
           style="fill:#f0ad2b;fill-opacity:1;fill-rule:evenodd;stroke:none"
           transform="matrix(0.13333333,0,0,-0.13333333,0,368.98667)" />
        <path
           id="path12"
           d="m 5667.03,727.289 c -5.25,-30.488 -10.45,-60.469 -15.57,-90.469 -6.62,-38.769 -12.98,-77.582 -19.87,-116.261 -3.28,-18.411 -3.74,-18.778 -22.28,-18.45 -26.29,0.5 -32.83,-7.808 -25.38,31.153 11.49,60.058 21.38,120.429 31.05,180.84 1.91,11.867 6.29,16.707 18.11,15.539 10.7,-1.051 21.7,1.57 33.94,-2.352"
           style="fill:#f0ad2b;fill-opacity:1;fill-rule:evenodd;stroke:none"
           transform="matrix(0.13333333,0,0,-0.13333333,0,368.98667)" />
        <path
           id="path16"
           d="m 5920.17,685.488 c -44.99,13.434 -99.75,-15.238 -114.37,-59.918 -11.31,-34.539 5.24,-69.05 38.16,-78.968 14.14,-4.231 28.56,-4.383 43.1,-1.262 40.41,8.64 74.51,46.308 74.91,83.082 0.3,27.25 -15.88,49.308 -41.8,57.066 z m 91.33,-48.019 c -0.22,-43.309 -16.39,-71.809 -41.91,-95.5 -37.61,-34.918 -82.14,-49.258 -132.76,-40.16 -68.52,12.261 -103.37,80.14 -74.72,143.48 29.38,64.973 107.05,101.902 174.65,83.02 46.19,-12.918 75.28,-51.161 74.74,-90.84"
           style="fill:#f0ad2b;fill-opacity:1;fill-rule:evenodd;stroke:none"
           transform="matrix(0.13333333,0,0,-0.13333333,0,368.98667)" />
        <path
           id="path17"
           d="m 5060.16,624.93 c -3.22,-6.032 -12.39,-11.461 -7.36,-18.789 4.36,-6.301 13.54,-2.571 20.57,-2.809 8.25,-0.273 12.13,3.027 9.34,12.148 -2.51,8.18 -3.61,16.829 -9.93,27.301 -5.28,-7.351 -9.63,-12.261 -12.62,-17.851 z M 4928.54,505.852 c 53.82,82.527 107.03,164.058 160.2,245.597 1.73,-0.211 3.46,-0.437 5.18,-0.648 24.16,-81.879 48.32,-163.719 72.34,-245.141 -4.09,-1.941 -5.34,-3 -6.69,-3.109 -44.21,-4.43 -44.23,-4.43 -56.12,38.019 -5.42,19.379 -5.42,19.41 -24.86,19.621 -8.02,0.098 -16.05,-0.05 -24.07,0.039 -42.02,0.43 -31.54,4.321 -53.57,-28.492 -23.7,-35.258 -10.9,-28.949 -55.22,-29.656 -4.86,-0.094 -10.1,-1.461 -17.19,3.77"
           style="fill:#f0ad2b;fill-opacity:1;fill-rule:evenodd;stroke:none"
           transform="matrix(0.13333333,0,0,-0.13333333,0,368.98667)" />
      </g>
    </g>
  </g>
</svg>
