<?xml version="1.0" encoding="iso-8859-1"?>
<!-- Uploaded to: SVG Repo, www.svgrepo.com, Generator: SVG Repo Mixer Tools -->
<svg fill="#000000" height="800px" width="800px" version="1.1" id="Layer_1" xmlns="http://www.w3.org/2000/svg" xmlns:xlink="http://www.w3.org/1999/xlink" 
	 viewBox="0 0 512 512" xml:space="preserve">
<g>
	<g>
		<path d="M0,169.566v216.543h227.795c-14.699-9.102-17.554-17.721-41.286-58.824c-4.933-8.542-2.006-19.467,6.537-24.397
			c8.543-4.934,19.466-2.006,24.397,6.537c24.305,42.096,25.505,48.922,38.557,48.922c13.314,0,14.615-7.454,38.557-48.922
			c4.932-8.543,15.854-11.472,24.397-6.537c8.543,4.932,11.47,15.855,6.537,24.397c-24.683,42.751-26.941,49.941-41.286,58.824H512
			V169.566H0z"/>
	</g>
</g>
<g>
	<g>
		<path d="M494.14,37.007H17.86C7.997,37.007,0,45.004,0,54.867v78.978h512V54.867C512,45.004,504.003,37.007,494.14,37.007z"/>
	</g>
</g>
<g>
	<g>
		<path d="M270.954,421.831l18.056,42.311c2.808,6.581,9.273,10.851,16.428,10.851H494.14c9.864,0,17.86-7.997,17.86-17.86v-35.302
			H270.954z"/>
	</g>
</g>
<g>
	<g>
		<path d="M0,421.831v35.302c0,9.864,7.997,17.86,17.86,17.86h188.702c7.155,0,13.619-4.27,16.428-10.851l18.055-42.311H0z"/>
	</g>
</g>
</svg>