<?xml version="1.0" encoding="UTF-8" standalone="no"?>
<!-- Created with Inkscape (http://www.inkscape.org/) -->

<svg
   width="800"
   height="1150.52"
   viewBox="0 0 211.66667 304.40842"
   version="1.1"
   id="svg1"
   inkscape:version="1.3.2 (1:1.3.2+202311252150+091e20ef0f)"
   sodipodi:docname="cart-illustration.svg"
   inkscape:export-filename="../WEBP/cart-illustration.webp"
   inkscape:export-xdpi="200"
   inkscape:export-ydpi="200"
   xmlns:inkscape="http://www.inkscape.org/namespaces/inkscape"
   xmlns:sodipodi="http://sodipodi.sourceforge.net/DTD/sodipodi-0.dtd"
   xmlns="http://www.w3.org/2000/svg"
   xmlns:svg="http://www.w3.org/2000/svg">
  <sodipodi:namedview
     id="namedview1"
     pagecolor="#ffffff"
     bordercolor="#666666"
     borderopacity="1.0"
     inkscape:showpageshadow="2"
     inkscape:pageopacity="0.0"
     inkscape:pagecheckerboard="0"
     inkscape:deskcolor="#d1d1d1"
     inkscape:document-units="px"
     inkscape:zoom="1.1053927"
     inkscape:cx="436.94881"
     inkscape:cy="697.03738"
     inkscape:window-width="1920"
     inkscape:window-height="1027"
     inkscape:window-x="0"
     inkscape:window-y="25"
     inkscape:window-maximized="1"
     inkscape:current-layer="g1" />
  <defs
     id="defs1" />
  <g
     inkscape:label="Layer 1"
     inkscape:groupmode="layer"
     id="layer1">
    <g
       id="g1"
       transform="translate(-11.796891,-0.37557291)">
      <path
         id="path11"
         d="M 84.609736,207.98347 C 69.035015,204.98826 53.573259,199.30667 41.790543,188.75457 30.007075,178.20246 22.42607,162.17508 24.839852,146.52355 c 1.283332,-8.31907 5.208645,-16.00023 9.492447,-23.26642 11.071009,-18.78006 24.93914,-35.926548 41.005658,-50.699944 10.335952,-9.504507 21.950723,-18.220483 35.486713,-21.959021 23.05631,-6.369216 48.47069,3.230186 65.23385,20.133442 16.76317,16.904 25.88054,40.052943 30.56879,63.390893 2.46047,12.24893 3.82137,24.77422 3.17218,37.26336 -0.37957,7.29634 -1.60944,14.95568 -6.20128,20.66817 -3.62781,4.51349 -8.95396,7.30235 -14.24018,9.6777 -16.00777,7.19466 -33.18063,11.78574 -50.63217,13.53676 -3.90874,0.39162 -6.27356,-1.51756 -9.7839,-2.41302 -4.65132,-1.18769 -10.15445,-0.89851 -14.94359,-1.29237 -9.8389,-0.80812 -19.68983,-1.71412 -29.388634,-3.57963"
         style="fill:#e9e9e9;fill-opacity:1;fill-rule:nonzero;stroke:none;stroke-width:0.075313" />
      <path
         id="path12"
         d="m 86.280931,200.43333 c 9.719139,1.86852 19.807309,2.78733 29.305789,3.56833 1.51228,0.12365 3.07201,0.17784 4.72137,0.23574 3.49302,0.12278 7.10503,0.24853 10.35251,1.07773 1.22232,0.31179 2.29706,0.73655 3.33637,1.14701 2.01916,0.79758 3.76567,1.48442 6.17643,1.24567 17.43871,-1.74951 34.39241,-6.2826 50.38888,-13.47122 5.16347,-2.32039 10.42482,-5.07006 13.94197,-9.44651 4.70629,-5.85483 5.68686,-13.85909 6.01522,-20.1786 0.59348,-11.40466 -0.43833,-23.52326 -3.15635,-37.04719 C 201.95414,100.63236 191.74545,79.448322 177.02251,64.601133 159.18011,46.608098 133.87497,38.788353 112.55613,44.675562 98.0162,48.691993 86.128801,58.423948 77.397012,66.453077 61.347819,81.210645 47.603199,98.205016 36.544242,116.96322 c -4.109077,6.97099 -8.090122,14.57834 -9.383244,22.96292 -2.218723,14.37799 4.173844,30.26677 16.680319,41.46657 10.265912,9.19195 24.543745,15.59806 42.439614,19.04062 m 52.950309,8.99313 c -2.25714,0 -4.05787,-0.7117 -5.80816,-1.40384 -0.99336,-0.39236 -2.02065,-0.7983 -3.14807,-1.086 -3.08331,-0.78628 -6.61098,-0.91053 -10.02115,-1.02953 -1.59513,-0.0558 -3.24599,-0.11301 -4.79366,-0.24026 -9.54216,-0.78402 -19.67778,-1.7081 -29.472234,-3.59166 C 67.806659,198.57914 53.272761,192.04574 42.788439,182.65722 29.862474,171.0816 23.264304,154.60692 25.569634,139.66181 26.910959,130.96767 31.17518,122.86853 35.170533,116.09184 46.311582,97.192059 60.159378,80.070411 76.328323,65.202885 85.193412,57.051001 97.27512,47.168412 112.14266,43.061611 c 21.85506,-6.036348 47.76274,1.947586 66.0028,20.342038 14.95789,15.083679 25.3187,36.555411 30.7947,63.819451 2.74591,13.6678 3.789,25.92725 3.18798,37.47874 -0.3419,6.5771 -1.37595,14.92553 -6.38651,21.15769 -3.73253,4.64454 -9.19346,7.50795 -14.53841,9.90968 -16.15164,7.25866 -33.26802,11.83468 -50.8747,13.60152 -0.37805,0.0377 -0.74333,0.0558 -1.09728,0.0558"
         style="fill:#e9e9e9;fill-opacity:1;fill-rule:nonzero;stroke:none;stroke-width:0.075313" />
      <path
         id="path13"
         d="m 203.47733,180.12803 c 1.42582,-2.19531 3.57085,-4.16118 6.45498,-3.62481 0.36614,0.0671 0.75482,0.18545 1.07486,0.46359 0.84702,0.73491 0.68987,1.98002 0.39078,2.84903 -1.4473,4.21095 -3.50277,8.04424 -6.0925,11.36262 -0.94812,1.21577 -1.97113,2.36503 -2.83962,3.65622 -0.63223,0.93973 -1.32578,3.6971 -2.1665,3.992 -2.27126,-6.35807 0.41225,-14.43845 3.178,-18.69865"
         style="fill:#8fd7b2;fill-opacity:1;fill-rule:nonzero;stroke:none;stroke-width:0.0523816" />
      <path
         id="path14"
         d="m 196.31519,187.35145 c 0.17077,-2.12146 0.82763,-4.45033 2.66256,-5.52887 0.2331,-0.13675 0.49396,-0.25248 0.7632,-0.23153 0.71134,0.0565 0.99263,0.93816 1.07906,1.64635 0.41958,3.43415 0.37348,6.9238 -0.13671,10.34484 -0.187,1.2535 -0.43687,2.50017 -0.55472,3.7631 -0.0859,0.91929 0.33681,3.04127 -0.0634,3.64732 -3.22094,-2.98365 -4.08105,-9.52506 -3.75,-13.64121"
         style="fill:#6ec599;fill-opacity:1;fill-rule:nonzero;stroke:none;stroke-width:0.0523816" />
      <path
         id="path15"
         d="m 197.82352,217.551 c -4.88249,0 -8.83992,-0.65476 -8.83992,-1.4625 0,-0.80772 3.95743,-1.46248 8.83992,-1.46248 4.88197,0 8.83992,0.65476 8.83992,1.46248 0,0.80774 -3.95795,1.4625 -8.83992,1.4625"
         style="fill:#e9e9e9;fill-opacity:1;fill-rule:nonzero;stroke:none;stroke-width:0.0523816" />
      <path
         id="path16"
         d="m 191.46833,178.93582 c 0.17809,-2.70548 1.03663,-5.63835 3.59442,-6.87716 0.32477,-0.15715 0.68934,-0.28496 1.07015,-0.23676 1.00573,0.12784 1.42845,1.27915 1.57198,2.19425 0.69353,4.43253 0.73177,8.90225 0.11262,13.24678 -0.22734,1.59135 -0.5432,3.16909 -0.67206,4.77876 -0.0943,1.17073 0.5652,3.92391 0.0183,4.66878 -4.6342,-4.07477 -6.04116,-12.52496 -5.69545,-17.77465"
         style="fill:#8fd7b2;fill-opacity:1;fill-rule:nonzero;stroke:none;stroke-width:0.0523816" />
      <path
         id="path17"
         d="m 188.36838,186.55526 c -0.52329,-2.75214 -0.62019,-6.14384 2.43575,-6.46598 3.33042,-0.35044 3.92442,6.96151 4.46972,11.48152 0.19957,1.65578 1.12725,4.69443 1.41797,6.33869 0.21162,1.19586 1.48763,3.74212 1.19115,4.65043 -5.12763,-2.66308 -8.49943,-10.66542 -9.51459,-16.00466"
         style="fill:#6ec599;fill-opacity:1;fill-rule:nonzero;stroke:none;stroke-width:0.0523816" />
      <path
         id="path18"
         d="m 204.09281,214.62602 h -12.5391 l -0.87844,-4.98098 c -0.41905,-2.37706 -0.69091,-4.77771 -0.81296,-7.18832 l -0.31272,-6.1433 h 16.54734 l -0.15558,5.16796 c -0.0796,2.6547 -0.36772,5.29892 -0.8601,7.90909 l -0.98844,5.23555"
         style="fill:#5f77c4;fill-opacity:1;fill-rule:nonzero;stroke:none;stroke-width:0.0523816" />
      <path
         id="path19"
         d="m 205.08125,209.39047 c 0.49238,-2.61017 0.77997,-5.25439 0.8601,-7.90909 l 0.15558,-5.16796 h -1.9706 c -0.55786,5.83792 -3.05017,14.58722 -12.57262,18.3126 h 12.53962 l 0.98792,-5.23555"
         style="fill:#4d6abc;fill-opacity:1;fill-rule:nonzero;stroke:none;stroke-width:0.0523816" />
      <path
         id="path20"
         d="m 96.925273,85.104202 c -2.9077,0 -5.273775,2.365545 -5.273775,5.273782 v 64.296786 c 0,2.90771 2.366075,5.27327 5.273775,5.27327 h 78.396347 c 2.9077,0 5.27327,-2.36556 5.27327,-5.27327 V 90.377984 c 0,-2.908237 -2.36557,-5.273782 -5.27327,-5.273782 z M 175.32162,161.18947 H 96.925273 c -3.592846,0 -6.515216,-2.92288 -6.515216,-6.5147 V 90.377984 c 0,-3.592862 2.92237,-6.515235 6.515216,-6.515235 h 78.396347 c 3.59233,0 6.51523,2.922373 6.51523,6.515235 v 64.296786 c 0,3.59182 -2.9229,6.5147 -6.51523,6.5147"
         style="fill:#000000;fill-opacity:1;fill-rule:nonzero;stroke:none;stroke-width:0.0523816" />
      <path
         id="path21"
         d="M 137.06946,145.09891 H 97.833048 c -1.868976,0 -3.384372,-1.5154 -3.384372,-3.38385 V 98.728132 c 0,-1.869515 1.515396,-3.384384 3.384372,-3.384384 h 39.236412 c 1.86845,0 3.38386,1.514869 3.38386,3.384384 v 42.986928 c 0,1.86845 -1.51541,3.38385 -3.38386,3.38385"
         style="fill:#d0d0d0;fill-opacity:1;fill-rule:nonzero;stroke:none;stroke-width:0.0523816" />
      <path
         id="path22"
         d="M 180.69022,93.102339 H 91.030777 V 91.86038 h 89.659443 v 1.241959"
         style="fill:#000000;fill-opacity:1;fill-rule:nonzero;stroke:none;stroke-width:0.0523816" />
      <path
         id="path23"
         d="m 176.34254,133.93482 h -30.98631 c -1.10002,0 -1.99154,-0.89206 -1.99154,-1.99208 v -3.90398 c 0,-1.10002 0.89152,-1.99207 1.99154,-1.99207 h 30.98631 c 1.10002,0 1.99156,0.89205 1.99156,1.99207 v 3.90398 c 0,1.10002 -0.89154,1.99208 -1.99156,1.99208"
         style="fill:#5f77c4;fill-opacity:1;fill-rule:nonzero;stroke:none;stroke-width:0.0523816" />
      <path
         id="path24"
         d="m 151.6593,129.90039 v 0.33996 h -0.72024 v 0.72025 h -0.33996 v -0.72025 h -0.72025 v -0.33996 h 0.72025 v -0.72026 h 0.33996 v 0.72026 h 0.72024"
         style="fill:#ffffff;fill-opacity:1;fill-rule:nonzero;stroke:none;stroke-width:0.0523816" />
      <path
         id="path34"
         d="m 145.51179,136.01804 c -1.01305,0 -1.83701,0.82397 -1.83701,1.83648 v 3.90454 c 0,1.01253 0.82396,1.83649 1.83701,1.83649 h 30.9858 c 1.01306,0 1.83651,-0.82396 1.83651,-1.83649 v -3.90454 c 0,-1.01251 -0.82345,-1.83648 -1.83651,-1.83648 z m 30.9858,7.88761 h -30.9858 c -1.18434,0 -2.1471,-0.96277 -2.1471,-2.14659 v -3.90454 c 0,-1.1838 0.96276,-2.1471 2.1471,-2.1471 h 30.9858 c 1.18383,0 2.14713,0.9633 2.14713,2.1471 v 3.90454 c 0,1.18382 -0.9633,2.14659 -2.14713,2.14659"
         style="fill:#000000;fill-opacity:1;fill-rule:nonzero;stroke:none;stroke-width:0.0523816" />
      <path
         id="path35"
         d="m 145.35623,111.54538 c -1.01253,0 -1.83649,0.82396 -1.83649,1.8365 v 3.90398 c 0,1.01306 0.82396,1.83702 1.83649,1.83702 h 16.07015 c 1.01305,0 1.83649,-0.82396 1.83649,-1.83702 v -3.90398 c 0,-1.01254 -0.82344,-1.8365 -1.83649,-1.8365 h -16.07015 m 16.07015,7.88761 h -16.07015 c -1.18383,0 -2.1466,-0.96278 -2.1466,-2.14713 v -3.90398 c 0,-1.18383 0.96277,-2.14713 2.1466,-2.14713 h 16.07015 c 1.18382,0 2.1471,0.9633 2.1471,2.14713 v 3.90398 c 0,1.18435 -0.96328,2.14713 -2.1471,2.14713"
         style="fill:#000000;fill-opacity:1;fill-rule:nonzero;stroke:none;stroke-width:0.0523816" />
      <path
         id="path51"
         d="m 153.30827,113.60239 h 0.66526 v 3.37861 h -0.78312 v -2.67041 l -0.63801,0.30539 -0.18228,-0.57883 0.93815,-0.43476"
         style="fill:#000000;fill-opacity:1;fill-rule:nonzero;stroke:none;stroke-width:0.0523816" />
      <path
         id="path52"
         d="m 160.17131,116.68558 h -0.50391 v -1.06702 h -1.06754 v -0.5039 h 1.06754 v -1.06755 h 0.50391 v 1.06755 h 1.06701 v 0.5039 h -1.06701 v 1.06702"
         style="fill:#000000;fill-opacity:1;fill-rule:nonzero;stroke:none;stroke-width:0.0523816" />
      <path
         id="path53"
         d="m 145.97956,115.72594 h 1.17961 v -0.58459 h -1.17961 z"
         style="fill:#000000;fill-opacity:1;fill-rule:nonzero;stroke:none;stroke-width:0.0523816" />
      <path
         id="path54"
         d="m 128.27879,111.7968 c -1.56255,-1.46459 -5.57393,-3.2665 -6.62156,-3.72328 -0.81977,1.13564 -2.35141,2.89513 -4.59648,4.01767 -2.24508,-1.12254 -3.77619,-2.88203 -4.59597,-4.01767 -1.04762,0.45678 -5.05953,2.25869 -6.62155,3.72328 -1.80402,1.69088 -8.342805,16.00938 -8.342805,16.00938 l 3.043895,2.02926 7.10295,-8.90695 1.353,12.40133 h 3.49437 9.13222 3.49489 l 1.35302,-12.40133 7.10241,8.90695 3.04442,-2.02926 c 0,0 -6.5388,-14.3185 -8.34281,-16.00938"
         style="fill:#5f77c4;fill-opacity:1;fill-rule:nonzero;stroke:none;stroke-width:0.0523816" />
      <path
         id="path55"
         d="M 117.68147,149.4272 H 95.237543 c -0.435289,0 -0.788867,-0.35306 -0.788867,-0.78887 0,-0.43582 0.353578,-0.78834 0.788867,-0.78834 h 22.443927 c 0.43582,0 0.78887,0.35252 0.78887,0.78834 0,0.43581 -0.35305,0.78887 -0.78887,0.78887"
         style="fill:#3f3f3f;fill-opacity:1;fill-rule:nonzero;stroke:none;stroke-width:0.0523816" />
      <path
         id="path56"
         d="M 139.40987,152.75814 H 95.237543 c -0.435289,0 -0.788867,-0.35358 -0.788867,-0.78939 0,-0.43529 0.353578,-0.78886 0.788867,-0.78886 h 44.172327 c 0.43582,0 0.78888,0.35357 0.78888,0.78886 0,0.43581 -0.35306,0.78939 -0.78888,0.78939"
         style="fill:#3f3f3f;fill-opacity:1;fill-rule:nonzero;stroke:none;stroke-width:0.0523816" />
      <path
         id="path57"
         d="M 139.40987,156.08804 H 95.237543 c -0.435289,0 -0.788867,-0.35305 -0.788867,-0.78888 0,-0.43527 0.353578,-0.78885 0.788867,-0.78885 h 44.172327 c 0.43582,0 0.78888,0.35358 0.78888,0.78885 0,0.43583 -0.35306,0.78888 -0.78888,0.78888"
         style="fill:#3f3f3f;fill-opacity:1;fill-rule:nonzero;stroke:none;stroke-width:0.0523816" />
      <path
         id="path58"
         d="m 145.51443,96.922527 0.43162,0.875292 0.96643,0.140319 c 0.23257,0.03354 0.32531,0.319525 0.15715,0.483474 l -0.69929,0.681499 0.16499,0.962239 c 0.0397,0.23153 -0.20324,0.40805 -0.41119,0.29857 l -0.86429,-0.454152 -0.86377,0.454152 c -0.20848,0.10941 -0.45154,-0.0671 -0.41173,-0.29857 l 0.16553,-0.962239 -0.6993,-0.681499 c -0.16866,-0.163949 -0.0754,-0.449947 0.15716,-0.483474 l 0.96591,-0.140319 0.43214,-0.875292 c 0.10425,-0.211102 0.40438,-0.211102 0.50864,0"
         style="fill:#fbc351;fill-opacity:1;fill-rule:nonzero;stroke:none;stroke-width:0.0523816" />
      <path
         id="path59"
         d="m 149.97995,96.922527 0.43267,0.875292 0.96591,0.140319 c 0.23259,0.03354 0.3253,0.319525 0.15716,0.483474 l -0.6993,0.681499 0.16499,0.962239 c 0.0398,0.23153 -0.20323,0.40805 -0.41119,0.29857 l -0.86429,-0.454152 -0.86378,0.454152 c -0.20794,0.10941 -0.45153,-0.0671 -0.41119,-0.29857 l 0.16448,-0.962239 -0.69876,-0.681499 c -0.16816,-0.163949 -0.0754,-0.449947 0.15713,-0.483474 l 0.96592,-0.140319 0.43214,-0.875292 c 0.10378,-0.211102 0.40439,-0.211102 0.50811,0"
         style="fill:#fbc351;fill-opacity:1;fill-rule:nonzero;stroke:none;stroke-width:0.0523816" />
      <path
         id="path60"
         d="m 154.44652,96.922527 0.43216,0.875292 0.96591,0.140319 c 0.23258,0.03354 0.32529,0.319525 0.15714,0.483474 l -0.69929,0.681499 0.16552,0.962239 c 0.0394,0.23153 -0.20376,0.40805 -0.41171,0.29857 l -0.8643,-0.454152 -0.86378,0.454152 c -0.20794,0.10941 -0.451,-0.0671 -0.4117,-0.29857 l 0.16499,-0.962239 -0.69876,-0.681499 c -0.16815,-0.163949 -0.0754,-0.449947 0.15713,-0.483474 l 0.96592,-0.140319 0.43216,-0.875292 c 0.10378,-0.211102 0.40437,-0.211102 0.50861,0"
         style="fill:#fbc351;fill-opacity:1;fill-rule:nonzero;stroke:none;stroke-width:0.0523816" />
      <path
         id="path61"
         d="m 158.91258,96.922527 0.43163,0.875292 0.96644,0.140319 c 0.23256,0.03354 0.32529,0.319525 0.15713,0.483474 l -0.69928,0.681499 0.165,0.962239 c 0.0397,0.23153 -0.20325,0.40805 -0.41119,0.29857 l -0.8643,-0.454152 -0.8643,0.454152 c -0.20796,0.10941 -0.45049,-0.0671 -0.4112,-0.29857 l 0.16501,-0.962239 -0.69878,-0.681499 c -0.16867,-0.163949 -0.0754,-0.449947 0.15716,-0.483474 l 0.96591,-0.140319 0.43215,-0.875292 c 0.10425,-0.211102 0.40438,-0.211102 0.50862,0"
         style="fill:#fbc351;fill-opacity:1;fill-rule:nonzero;stroke:none;stroke-width:0.0523816" />
      <path
         id="path62"
         d="m 163.37864,96.922527 0.43161,0.875292 0.96643,0.140319 c 0.23259,0.03354 0.32531,0.319525 0.15716,0.483474 l -0.6993,0.681499 0.16501,0.962239 c 0.0397,0.23153 -0.20323,0.40805 -0.4112,0.29857 l -0.8643,-0.454152 -0.86376,0.454152 c -0.20849,0.10941 -0.45153,-0.0671 -0.41172,-0.29857 l 0.16552,-0.962239 -0.69929,-0.681499 c -0.16867,-0.163949 -0.0754,-0.449947 0.15715,-0.483474 l 0.9659,-0.140319 0.43215,-0.875292 c 0.10425,-0.211102 0.4044,-0.211102 0.50864,0"
         style="fill:#fbc351;fill-opacity:1;fill-rule:nonzero;stroke:none;stroke-width:0.0523816" />
      <path
         id="path67"
         d="m 108.99766,133.36858 c -0.0792,0 -0.1467,-0.0603 -0.15452,-0.14032 l -1.57722,-16.47661 c -0.009,-0.086 0.0539,-0.16186 0.13927,-0.16972 0.0902,-0.007 0.16134,0.0545 0.16919,0.13987 l 1.57774,16.47662 c 0.009,0.086 -0.0539,0.16135 -0.13928,0.16972 l -0.0151,5.4e-4"
         style="fill:#405fb5;fill-opacity:1;fill-rule:nonzero;stroke:none;stroke-width:0.0523816" />
      <path
         id="path68"
         d="m 125.12438,133.36858 -0.0151,-5.4e-4 c -0.0854,-0.009 -0.14774,-0.0837 -0.13987,-0.1697 l 1.57772,-16.47662 c 0.009,-0.0854 0.0802,-0.14566 0.1692,-0.13987 0.0854,0.007 0.14819,0.0837 0.13988,0.16972 l -1.57773,16.47661 c -0.007,0.0802 -0.0748,0.14031 -0.15401,0.14031"
         style="fill:#405fb5;fill-opacity:1;fill-rule:nonzero;stroke:none;stroke-width:0.0523816" />
      <path
         id="path69"
         d="m 117.0419,113.20115 c -0.16553,0 -0.33001,-0.0476 -0.47249,-0.14136 -2.85637,-1.88835 -4.06637,-4.31886 -4.11667,-4.42152 -0.20743,-0.42481 -0.0314,-0.93711 0.39286,-1.14454 0.42482,-0.20692 0.93606,-0.0319 1.14402,0.39076 0.0105,0.0199 0.94653,1.87473 3.08423,3.44147 0.71814,-0.47666 2.17592,-1.61073 3.01037,-3.42156 0.19747,-0.42953 0.70506,-0.6181 1.13562,-0.41904 0.42901,0.19746 0.61653,0.7061 0.41906,1.13563 -1.38655,3.00827 -4.09152,4.42675 -4.20572,4.48543 -0.1231,0.0639 -0.25772,0.0949 -0.39128,0.0949"
         style="fill:#405fb5;fill-opacity:1;fill-rule:nonzero;stroke:none;stroke-width:0.0523816" />
      <path
         id="path77"
         d="m 103.9795,110.79945 c -0.15348,-0.0225 -0.30381,-0.0351 -0.45048,-0.0419 -0.0152,-0.21529 -0.0388,-0.4112 -0.0613,-0.57934 -0.0514,-0.385 -0.23781,-0.45467 -0.28286,-0.46621 v -0.001 l -0.005,0.001 -0.005,-0.001 v 0.001 c -0.0446,0.0118 -0.231,0.0813 -0.28234,0.46621 -0.023,0.17075 -0.0465,0.36981 -0.0624,0.58824 -0.21843,0.0157 -0.41749,0.0392 -0.58825,0.0624 -0.38501,0.0514 -0.45467,0.23729 -0.46619,0.28232 h -0.002 l 0.001,0.006 -0.001,0.006 h 0.002 c 0.0117,0.045 0.0812,0.23153 0.46619,0.28234 0.16867,0.0225 0.36458,0.0467 0.57935,0.0618 0.007,0.1467 0.0194,0.29701 0.0419,0.45048 0.0644,0.4442 0.17338,0.6291 0.31691,0.605 0.14403,0.024 0.253,-0.1608 0.31742,-0.605 0.0215,-0.15033 0.034,-0.29752 0.0414,-0.44105 0.14352,-0.007 0.29073,-0.0199 0.44106,-0.0414 0.44419,-0.0644 0.62911,-0.17338 0.60501,-0.31744 0.0241,-0.14359 -0.16082,-0.25249 -0.60501,-0.31691"
         style="fill:#000000;fill-opacity:1;fill-rule:nonzero;stroke:none;stroke-width:0.0523816" />
      <path
         id="path78"
         d="m 108.22083,104.5959 c -0.15347,-0.0225 -0.30328,-0.0346 -0.44996,-0.0419 -0.0157,-0.21529 -0.0394,-0.41119 -0.0618,-0.57934 -0.0514,-0.38499 -0.2373,-0.45466 -0.28287,-0.46618 v -0.001 l -0.005,0.001 -0.005,-0.001 v 0.001 c -0.045,0.0118 -0.23153,0.0813 -0.28286,0.46618 -0.0225,0.17078 -0.0467,0.36982 -0.0618,0.58825 -0.21896,0.0157 -0.41801,0.0397 -0.58876,0.0624 -0.38449,0.0514 -0.45468,0.23729 -0.4662,0.28287 h -0.001 l 0.001,0.005 -0.001,0.006 h 0.001 c 0.0118,0.0456 0.0816,0.23153 0.4662,0.28286 0.16866,0.0225 0.36456,0.0461 0.57933,0.0613 0.007,0.1467 0.0199,0.297 0.0419,0.45047 0.0645,0.44419 0.17339,0.6291 0.31742,0.60554 0.14359,0.0236 0.25249,-0.16135 0.31694,-0.60554 0.0216,-0.15033 0.034,-0.29752 0.0414,-0.44104 0.14359,-0.007 0.29073,-0.0199 0.44105,-0.0414 0.44472,-0.0645 0.6291,-0.17339 0.60553,-0.31744 0.0236,-0.14359 -0.16081,-0.25247 -0.60553,-0.31691"
         style="fill:#000000;fill-opacity:1;fill-rule:nonzero;stroke:none;stroke-width:0.0523816" />
      <path
         id="path79"
         d="m 127.85188,106.68855 c -0.15348,-0.0225 -0.30382,-0.0351 -0.45049,-0.0425 -0.0151,-0.21477 -0.0388,-0.41068 -0.0613,-0.57882 -0.0514,-0.38501 -0.2373,-0.4552 -0.28287,-0.46673 v -10e-4 l -0.006,10e-4 -0.005,-10e-4 v 10e-4 c -0.0456,0.0118 -0.23153,0.0816 -0.28288,0.46673 -0.0225,0.17023 -0.0467,0.36981 -0.0624,0.58825 -0.21842,0.0151 -0.41747,0.0392 -0.58823,0.0618 -0.38501,0.0514 -0.45468,0.23782 -0.46621,0.28286 h -0.001 l 0.001,0.006 -0.001,0.005 h 0.001 c 0.0119,0.0456 0.0813,0.23152 0.46621,0.28286 0.16867,0.0225 0.36406,0.0461 0.57934,0.0618 0.007,0.1467 0.0199,0.29649 0.0419,0.44996 0.0644,0.44473 0.17338,0.62963 0.3169,0.60553 0.14403,0.024 0.253,-0.1608 0.31743,-0.60553 0.0216,-0.15033 0.034,-0.297 0.0414,-0.44053 0.14359,-0.007 0.29071,-0.0199 0.44106,-0.0414 0.4442,-0.0649 0.6291,-0.17392 0.605,-0.31744 0.024,-0.14404 -0.1608,-0.25248 -0.605,-0.31691"
         style="fill:#000000;fill-opacity:1;fill-rule:nonzero;stroke:none;stroke-width:0.0523816" />
      <path
         id="path80"
         d="m 122.84524,101.39854 c -0.15295,-0.0219 -0.30329,-0.0346 -0.44994,-0.0419 -0.0151,-0.21477 -0.0388,-0.41067 -0.0613,-0.57935 -0.0514,-0.38446 -0.23783,-0.45467 -0.28288,-0.4662 v -10e-4 l -0.006,10e-4 -0.005,-10e-4 v 10e-4 c -0.0456,0.0118 -0.23151,0.0816 -0.28286,0.4662 -0.023,0.17077 -0.0473,0.36982 -0.0624,0.58878 -0.21842,0.0151 -0.41748,0.0392 -0.58823,0.0618 -0.38501,0.0514 -0.45521,0.23783 -0.46672,0.28287 h -0.001 l 0.001,0.006 -0.001,0.005 h 0.001 c 0.0118,0.0456 0.0816,0.23152 0.46672,0.28286 0.16814,0.0225 0.36405,0.0461 0.5788,0.0618 0.007,0.14669 0.0199,0.29649 0.0419,0.44995 0.0645,0.44473 0.17337,0.62912 0.31743,0.60554 0.14403,0.0236 0.25249,-0.16081 0.31691,-0.60554 0.0219,-0.1498 0.0346,-0.29699 0.0414,-0.44104 0.14402,-0.007 0.29123,-0.0195 0.44104,-0.0414 0.44473,-0.0645 0.6291,-0.17339 0.60554,-0.31691 0.0236,-0.14403 -0.16081,-0.253 -0.60554,-0.31743"
         style="fill:#000000;fill-opacity:1;fill-rule:nonzero;stroke:none;stroke-width:0.0523816" />
      <path
         id="path81"
         d="m 97.435471,88.737913 c 0,0.752201 -0.609721,1.361918 -1.36192,1.361918 -0.752198,0 -1.36192,-0.609717 -1.36192,-1.361918 0,-0.752721 0.609722,-1.362452 1.36192,-1.362452 0.752199,0 1.36192,0.609731 1.36192,1.362452"
         style="fill:#000000;fill-opacity:1;fill-rule:nonzero;stroke:none;stroke-width:0.0523816" />
      <path
         id="path82"
         d="m 102.07386,88.737913 c 0,0.752201 -0.60973,1.361918 -1.36192,1.361918 -0.752203,0 -1.361924,-0.609717 -1.361924,-1.361918 0,-0.752721 0.609721,-1.362452 1.361924,-1.362452 0.75219,0 1.36192,0.609731 1.36192,1.362452"
         style="fill:#c39943;fill-opacity:1;fill-rule:nonzero;stroke:none;stroke-width:0.0523816" />
      <path
         id="path83"
         d="m 105.35033,90.099831 c -0.7522,0 -1.36192,-0.609717 -1.36192,-1.361918 0,-0.752721 0.60972,-1.362452 1.36192,-1.362452 0.75219,0 1.36192,0.609731 1.36192,1.362452 0,0.752201 -0.60973,1.361918 -1.36192,1.361918"
         style="fill:#cfcfdb;fill-opacity:1;fill-rule:nonzero;stroke:none;stroke-width:0.0523816" />
      <g
         id="g3"
         transform="translate(0.22933648,20.447599)">
        <path
           id="path112"
           d="m 106.57919,190.48282 c 0.20116,0.48558 0.6752,0.79882 1.2116,0.79882 h 37.62253 c 0.61181,0 1.14664,-0.42219 1.27706,-1.0052 l 4.10463,-21.89339 c 0.0791,-0.37558 0.007,-0.7255 -0.19801,-1.01517 -0.22052,-0.31061 -0.56781,-0.50967 -0.9523,-0.54581 l -53.68377,-5.04383 z m 38.83413,3.40951 h -37.62253 c -1.56412,0 -2.95537,-0.95123 -3.54467,-2.42317 l -0.013,-0.0325 -14.007887,-37.54135 c -0.520142,-1.39334 -1.679357,-2.42474 -3.08789,-2.74689 l -8.697963,-2.2456 0.543197,-2.54942 9.67592,2.46928 c 1.627503,0.37191 2.970039,1.55626 3.585002,3.16019 l 2.713368,7.07988 54.914213,5.15958 c 1.10421,0.10261 2.11045,0.68675 2.75842,1.60237 0.62963,0.89047 0.86063,2.01616 0.6333,3.0879 l -4.1083,21.91172 c -0.37767,1.77731 -1.9507,3.06799 -3.7411,3.06799"
           style="fill:#000000;fill-opacity:1;fill-rule:nonzero;stroke:none;stroke-width:0.0523816" />
        <path
           id="path113"
           d="m 145.51599,209.34385 h -35.73838 c -3.91342,0 -7.09718,-2.88831 -7.09718,-6.43821 v -1.09898 c 0,-2.9077 2.15917,-5.46496 5.25073,-6.2182 0.0524,-0.0118 0.10531,-0.0219 0.1582,-0.0272 l 36.53144,-4.04803 c 0.70872,-0.0823 1.3462,0.45309 1.42215,1.18904 0.0759,0.73493 -0.22629,1.15293 -0.93605,1.23097 l -36.6582,4.28011 c -1.87841,0.48714 -3.18324,1.95592 -3.18324,3.59337 v 1.09897 c 0,2.07379 2.02403,3.76152 4.51215,3.76152 h 35.73838 c 0.71344,0 1.29225,0.59872 1.29225,1.33782 0,0.74015 -0.57881,1.33888 -1.29225,1.33888"
           style="fill:#000000;fill-opacity:1;fill-rule:nonzero;stroke:none;stroke-width:0.0523816" />
        <path
           id="path114"
           d="m 111.20343,212.51085 c -1.15395,0 -2.09262,0.9722 -2.09262,2.16754 0,1.19483 0.93867,2.16703 2.09262,2.16703 1.15397,0 2.09265,-0.9722 2.09265,-2.16703 0,-1.19534 -0.93868,-2.16754 -2.09265,-2.16754 z m 0,6.26421 c -2.18063,0 -3.9548,-1.83797 -3.9548,-4.09667 0,-2.25921 1.77417,-4.09729 3.9548,-4.09729 2.18066,0 3.95482,1.83808 3.95482,4.09729 0,2.2587 -1.77416,4.09667 -3.95482,4.09667"
           style="fill:#000000;fill-opacity:1;fill-rule:nonzero;stroke:none;stroke-width:0.0523816" />
        <path
           id="path115"
           d="m 110.89649,209.36743 h 3.68137 c 0,0 -2.36659,5.44715 -3.76885,5.44715 -1.40225,0 0.0875,-5.44715 0.0875,-5.44715"
           style="fill:#e3e6ea;fill-opacity:1;fill-rule:nonzero;stroke:none;stroke-width:0.0523816" />
        <path
           id="path116"
           d="m 137.49638,212.51085 c -1.15396,0 -2.09265,0.9722 -2.09265,2.16754 0,1.19483 0.93869,2.16703 2.09265,2.16703 1.15397,0 2.09263,-0.9722 2.09263,-2.16703 0,-1.19534 -0.93866,-2.16754 -2.09263,-2.16754 z m 0,6.26421 c -2.18066,0 -3.95482,-1.83797 -3.95482,-4.09667 0,-2.25921 1.77416,-4.09729 3.95482,-4.09729 2.18064,0 3.95481,1.83808 3.95481,4.09729 0,2.2587 -1.77417,4.09667 -3.95481,4.09667"
           style="fill:#000000;fill-opacity:1;fill-rule:nonzero;stroke:none;stroke-width:0.0523816" />
        <path
           id="path117"
           d="m 137.18942,209.36743 h 3.68137 c 0,0 -2.3666,5.44715 -3.76885,5.44715 -1.40226,0 0.0875,-5.44715 0.0875,-5.44715"
           style="fill:#e3e6ea;fill-opacity:1;fill-rule:nonzero;stroke:none;stroke-width:0.0523816" />
        <path
           id="path118"
           d="m 112.28461,192.10928 -6.895,-29.77842 0.90568,-0.22523 6.89446,29.77839 -0.90514,0.22526"
           style="fill:#000000;fill-opacity:1;fill-rule:nonzero;stroke:none;stroke-width:0.0523816" />
        <path
           id="path119"
           d="m 119.28748,192.30622 -4.08993,-30.0204 0.92189,-0.13512 4.08996,30.0204 -0.92192,0.13512"
           style="fill:#000000;fill-opacity:1;fill-rule:nonzero;stroke:none;stroke-width:0.0523816" />
        <path
           id="path120"
           d="m 126.64606,191.66194 -1.63589,-28.44634 0.92926,-0.0576 1.63588,28.44685 -0.92925,0.0572"
           style="fill:#000000;fill-opacity:1;fill-rule:nonzero;stroke:none;stroke-width:0.0523816" />
        <path
           id="path121"
           d="m 134.47448,192.36385 -0.23362,-28.44687 0.93134,-0.007 0.23363,28.44633 -0.93135,0.009"
           style="fill:#000000;fill-opacity:1;fill-rule:nonzero;stroke:none;stroke-width:0.0523816" />
        <path
           id="path122"
           d="m 141.71413,192.76981 -0.92715,-0.0932 2.57089,-27.47833 0.92716,0.0926 -2.5709,27.47885"
           style="fill:#000000;fill-opacity:1;fill-rule:nonzero;stroke:none;stroke-width:0.0523816" />
        <path
           id="path125"
           d="m 58.047672,199.12159 3.505374,11.6858 6.077312,-1.28491 -2.571413,-12.67948 -7.011273,2.27859"
           style="fill:#e3e6ea;fill-opacity:1;fill-rule:nonzero;stroke:none;stroke-width:0.0523816" />
        <path
           id="path126"
           d="m 60.268128,215.30645 c 0,0 -1.110489,-3.21361 -0.759533,-5.14125 0.350433,-1.92817 0.700865,-2.92184 1.109965,-2.68769 0.4091,0.23362 0.876344,1.16811 0.876344,1.16811 0,0 0.350956,1.10996 1.811355,1.3441 1.460922,0.23363 3.973141,-0.70087 3.973141,-0.70087 l -0.892057,-1.20424 c -0.147192,-0.19958 -0.08485,-0.48243 0.133041,-0.60082 0.721294,-0.39182 2.179074,-1.14505 2.570364,-1.0581 0.525911,0.11621 2.979988,1.92816 2.979988,1.92816 0,0 3.914474,0.75952 4.499052,0.75952 0,0 3.739521,-0.52591 4.732676,2.33728 0,0 0.346243,1.36192 0.410148,2.47293 0.02933,0.50862 -0.335242,0.95597 -0.838106,1.03821 l -18.833271,3.10366 c -0.503386,0.0827 -0.988439,-0.22588 -1.126727,-0.71665 l -0.646387,-2.04235"
           style="fill:#fbc351;fill-opacity:1;fill-rule:nonzero;stroke:none;stroke-width:0.0523816" />
        <path
           id="path127"
           d="m 76.569796,209.11337 c -1.725449,0.17864 -2.454076,3.79767 -2.044976,5.19994 l 7.035892,-1.62279 c 0,0 0.09219,-4.10306 -4.990916,-3.57715"
           style="fill:#e3e6ea;fill-opacity:1;fill-rule:nonzero;stroke:none;stroke-width:0.0523816" />
        <path
           id="path128"
           d="m 62.041243,218.06545 18.833271,-3.10366 c 0.509673,-0.0838 0.867963,-0.54164 0.837057,-1.05759 -0.0241,-0.39863 -0.08381,-0.8271 -0.150859,-1.21368 -3.768854,0.66367 -17.712828,2.87993 -21.042202,3.40794 l 0.396005,1.25034 c 0.138283,0.49077 0.623866,0.79931 1.126728,0.71665"
           style="fill:#000000;fill-opacity:1;fill-rule:nonzero;stroke:none;stroke-width:0.0523816" />
        <path
           id="path129"
           d="m 70.843444,211.00121 -0.117331,-0.0236 c -0.15924,-0.0651 -0.234669,-0.24569 -0.169717,-0.40492 0.998918,-2.43417 2.489172,-2.52637 2.552555,-2.52898 0.172334,-0.0118 0.316384,0.12517 0.323718,0.29595 0.0073,0.17024 -0.123628,0.31483 -0.292814,0.32373 -0.05761,0.005 -1.177013,0.1173 -2.008832,2.14501 -0.04976,0.12042 -0.165526,0.19276 -0.287575,0.19276"
           style="fill:#000000;fill-opacity:1;fill-rule:nonzero;stroke:none;stroke-width:0.0523816" />
        <path
           id="path130"
           d="m 72.362509,211.23483 -0.117333,-0.023 c -0.158716,-0.0651 -0.23467,-0.2462 -0.169715,-0.40543 0.998916,-2.43366 2.489696,-2.52637 2.552553,-2.52898 0.169716,-0.009 0.315862,0.12517 0.323718,0.29595 0.0073,0.17076 -0.123627,0.31482 -0.292812,0.32425 -0.05763,0.005 -1.177015,0.1168 -2.008835,2.14449 -0.04924,0.12042 -0.165001,0.19276 -0.287574,0.19276"
           style="fill:#000000;fill-opacity:1;fill-rule:nonzero;stroke:none;stroke-width:0.0523816" />
        <path
           id="path131"
           d="m 27.873791,192.61476 c -2.14712,3.59703 -4.690246,6.89707 -7.325562,10.14526 1.717068,1.47664 3.253943,2.43679 5.695448,3.93385 3.132419,-3.44198 5.690211,-7.14536 8.386813,-10.92835 -2.87732,-1.13093 -4.179001,-1.70347 -6.756699,-3.15076"
           style="fill:#e3e6ea;fill-opacity:1;fill-rule:nonzero;stroke:none;stroke-width:0.0523816" />
        <path
           id="path132"
           d="m 17.674576,204.73586 c 0,0 0.989487,-2.81709 2.315788,-3.90296 1.326826,-1.08587 2.783034,-1.32474 2.860559,-0.85906 0.07752,0.46725 -0.43372,1.4075 -0.43372,1.4075 0,0 -0.786772,0.95282 0.06338,2.25607 0.850676,1.30273 3.701282,2.63793 3.701282,2.63793 0.166049,-0.58509 0.246717,-0.8779 0.405957,-1.46406 0.06548,-0.24252 0.370861,-0.3829 0.650579,-0.29962 0.926631,0.27395 2.739556,0.72758 2.964797,1.03558 0.302766,0.41435 0.683579,3.33148 0.683579,3.33148 0,0 2.285931,2.54678 2.726985,2.7914 0,0 3.558805,1.14558 1.894118,4.29372 0,0 -0.882106,1.47349 -1.71602,2.6987 -0.381339,0.56106 -0.691962,0.52481 -1.160777,0.39816 -7.036416,-2.92347 -11.35842,-5.79189 -15.907759,-11.52925 -0.38291,-0.35829 -0.454147,-0.88787 -0.127295,-1.23201 0.525912,-0.59452 0.722343,-0.90725 1.078538,-1.56358"
           style="fill:#fbc351;fill-opacity:1;fill-rule:nonzero;stroke:none;stroke-width:0.0523816" />
        <path
           id="path133"
           d="m 33.814385,211.74241 c -1.442588,-0.55053 -5.339777,2.04602 -6.432456,3.29009 3.221466,1.65368 4.421004,1.81503 7.308799,2.31893 0,0 3.375469,-3.98729 -0.876343,-5.60902"
           style="fill:#e3e6ea;fill-opacity:1;fill-rule:nonzero;stroke:none;stroke-width:0.0523816" />
        <path
           id="path134"
           d="m 16.723326,207.53145 c 4.549339,5.73736 8.783342,8.60578 15.820283,11.52925 0.4751,0.12829 0.876867,0.1498 1.262918,-0.41963 0.298577,-0.43954 0.595579,-0.91879 0.86063,-1.34308 -7.34861,-1.35143 -13.024154,-6.27477 -17.361872,-11.93722 -0.24986,0.38709 -0.3871,0.57462 -0.709247,0.93867 -0.326859,0.34414 -0.255098,0.87372 0.127295,1.23201"
           style="fill:#000000;fill-opacity:1;fill-rule:nonzero;stroke:none;stroke-width:0.0523816" />
        <path
           id="path135"
           d="m 27.792599,210.17987 c -0.135149,0 -0.259812,-0.0891 -0.298574,-0.22576 -0.04609,-0.16502 0.04976,-0.33629 0.214241,-0.38292 3.034463,-0.85852 3.98938,-0.48086 4.088381,-0.43477 0.155574,0.0713 0.22367,0.25615 0.151383,0.41173 -0.07071,0.15296 -0.250384,0.22104 -0.404386,0.15453 -0.03299,-0.0118 -0.916678,-0.31115 -3.666186,0.46513 l -0.08485,0.0119"
           style="fill:#000000;fill-opacity:1;fill-rule:nonzero;stroke:none;stroke-width:0.0523816" />
        <path
           id="path136"
           d="m 28.880565,211.45117 c -0.131481,0 -0.253527,-0.0854 -0.295433,-0.21738 -0.05187,-0.16343 0.03877,-0.33788 0.202194,-0.38972 2.999893,-0.94654 3.791902,-0.82396 3.87257,-0.80825 0.167622,0.0357 0.275003,0.20009 0.239383,0.36825 -0.03457,0.16396 -0.193288,0.26977 -0.35829,0.24147 -0.04818,-0.007 -0.79777,-0.0833 -3.566661,0.79044 l -0.09377,0.0151"
           style="fill:#000000;fill-opacity:1;fill-rule:nonzero;stroke:none;stroke-width:0.0523816" />
        <path
           id="path137"
           d="m 75.333592,146.03864 c 0,0 6.562887,-0.75429 8.247478,-0.26244 1.685115,0.49187 4.47234,2.13821 4.265437,2.62904 -0.207431,0.49185 -5.099876,-0.95963 -5.099876,-0.95963 0,0 -1.829688,1.62068 -3.080036,1.95329 -1.250872,0.33212 -5.738926,0.26872 -5.738926,0.26872 l 1.405923,-3.62898"
           style="fill:#f080a9;fill-opacity:1;fill-rule:nonzero;stroke:none;stroke-width:0.0523816" />
        <path
           id="path138"
           d="m 54.892731,158.63064 -7.187275,25.9425 -14.373505,21.03434 -11.56847,-9.11492 12.646482,-17.75107 2.953797,-17.48182 17.528971,-2.62903"
           style="fill:#27316a;fill-opacity:1;fill-rule:nonzero;stroke:none;stroke-width:0.0523816" />
        <path
           id="path139"
           d="m 49.809098,153.37205 4.780866,4.78087 10.451696,17.76521 5.626829,24.95667 -14.804604,2.86632 -4.827486,-22.49841 -6.640935,-9.44229 c -2.228313,-2.23041 -5.749925,-5.75518 -7.498946,-8.37895 l -1.927643,-2.89095 14.840223,-7.15847"
           style="fill:#2a3a86;fill-opacity:1;fill-rule:nonzero;stroke:none;stroke-width:0.0523816" />
        <path
           id="path140"
           d="m 34.117675,115.46404 c 0,0 -7.611043,4.7971 -6.395791,5.6284 1.076967,0.737 7.706901,-3.98101 7.706901,-3.98101 l -1.31111,-1.64739"
           style="fill:#d09837;fill-opacity:1;fill-rule:nonzero;stroke:none;stroke-width:0.0523816" />
        <path
           id="path141"
           d="m 45.587144,121.65762 0.394434,11.42652 -5.814356,-1.14716 -0.560483,-15.5128 5.980405,5.23344"
           style="fill:#f080a9;fill-opacity:1;fill-rule:nonzero;stroke:none;stroke-width:0.0523816" />
        <path
           id="path142"
           d="m 44.233081,133.3712 c 0.560482,0.37348 7.475897,10.09236 7.475897,10.09236 l -7.849902,6.5414 -6.16793,-10.83983 6.541935,-5.79393"
           style="fill:#f080a9;fill-opacity:1;fill-rule:nonzero;stroke:none;stroke-width:0.0523816" />
        <path
           id="path143"
           d="m 40.121127,127.76374 7.214514,5.22821 c 3.518995,2.54994 5.420444,6.77504 4.995629,11.09914 l 2.956417,14.60816 -20.72215,3.26181 -0.575672,-13.04721 c 0,0 -0.767392,-20.53043 6.131262,-21.15011"
           style="fill:#5f77c4;fill-opacity:1;fill-rule:nonzero;stroke:none;stroke-width:0.0523816" />
        <path
           id="path144"
           d="m 44.747991,128.38342 15.14037,14.12103 18.513743,2.00621 0.76739,7.54661 c 0,0 -20.998725,1.2226 -23.342277,0.26297 -2.343552,-0.95912 -19.151226,-12.80782 -19.151226,-12.80782 l 8.072,-11.129"
           style="fill:#5f77c4;fill-opacity:1;fill-rule:nonzero;stroke:none;stroke-width:0.0523816" />
        <path
           id="path145"
           d="m 39.105972,126.88897 c 0,-0.3452 0.270814,-0.62858 0.615483,-0.64219 1.697163,-0.0675 6.298362,-0.20691 6.484315,0.0902 0.319527,0.51177 0.272908,2.90405 0.272908,2.90405 0,0 3.627948,4.38694 4.779295,10.07926 1.151347,5.69229 -16.756865,-0.51178 -16.756865,-0.51178 0,0 0.704008,-8.69796 4.604864,-10.80841 v -1.11102"
           style="fill:#5f77c4;fill-opacity:1;fill-rule:nonzero;stroke:none;stroke-width:0.0523816" />
        <path
           id="path146"
           d="m 48.139175,115.30845 c 0,0 2.904557,1.57041 3.052274,2.28175 0.09114,0.43635 -2.237741,1.60078 -2.237741,1.60078 l -0.814533,-3.88253"
           style="fill:#f080a9;fill-opacity:1;fill-rule:nonzero;stroke:none;stroke-width:0.0523816" />
        <path
           id="path147"
           d="m 35.231307,116.43467 c 0,0 0.222623,6.93531 6.846272,7.64666 v -10.22541 l -6.846272,2.57875"
           style="fill:#f080a9;fill-opacity:1;fill-rule:nonzero;stroke:none;stroke-width:0.0523816" />
        <path
           id="path148"
           d="m 46.214675,110.16616 c 0,0 2.466125,5.64359 3.331992,9.45435 0.865867,3.81076 -2.638984,4.92282 -4.890868,5.0962 -2.251884,0.17286 -4.157525,0 -4.157525,0 l -3.438327,-11.42703 9.154728,-3.12352"
           style="fill:#f080a9;fill-opacity:1;fill-rule:nonzero;stroke:none;stroke-width:0.0523816" />
        <path
           id="path149"
           d="m 40.343748,112.69986 1.111538,5.29054 -0.888916,0.26713 c 0,0 -0.910392,-0.81871 -1.971118,-0.32633 -0.829724,0.385 -0.874249,2.23775 1.170727,2.63794 l 0.133576,3.52685 c -1.181205,-0.50339 -2.583459,-1.4845 -3.512185,-2.37131 -1.955928,-1.86688 -2.845366,-5.86831 -2.845366,-5.86831 l 6.801746,-3.15651"
           style="fill:#000000;fill-opacity:1;fill-rule:nonzero;stroke:none;stroke-width:0.0523816" />
        <path
           id="path150"
           d="m 40.832993,119.81327 0.978488,-0.48923 c 0,0 1.155537,2.62326 2.400646,3.06798 1.244586,0.44419 4.445625,-0.62282 5.601162,-1.55627 l 1.056536,4.30054 c 0.100567,0.41067 -0.172858,0.81715 -0.590864,0.87477 -1.257681,0.17391 -3.649424,0.50706 -4.199955,0.60395 -0.755865,0.13364 -2.756317,-1.20004 -4.223525,-2.88987 -0.742248,-0.85382 -1.022488,-3.91187 -1.022488,-3.91187"
           style="fill:#000000;fill-opacity:1;fill-rule:nonzero;stroke:none;stroke-width:0.0523816" />
        <path
           id="path151"
           d="m 49.503714,118.94741 c -0.07018,-0.1467 -0.229432,-0.22735 -0.389194,-0.19539 -0.693533,0.14032 -2.657319,0.84126 -3.133467,1.78255 -0.611293,1.2074 -0.605531,2.62536 -0.605531,2.62536 l 0.779962,-0.16448 c 0,0 0.678341,-2.43207 3.262848,-3.46138 0.132522,-0.0524 0.196431,-0.20324 0.134615,-0.33156 l -0.04924,-0.2551"
           style="fill:#000000;fill-opacity:1;fill-rule:nonzero;stroke:none;stroke-width:0.0523816" />
        <path
           id="path152"
           d="m 40.032601,120.01546 c -0.06861,0 -0.132002,-0.0456 -0.151381,-0.11586 -0.0372,-0.13245 -0.105808,-0.29857 -0.222622,-0.33525 -0.12048,-0.0372 -0.275003,0.0613 -0.324766,0.10273 -0.03771,0.0308 -0.08747,0.0435 -0.135149,0.0329 -0.29229,-0.0649 -0.649009,-0.29753 -0.763724,-0.61705 -0.07071,-0.19539 -0.03666,-0.39706 0.09534,-0.56678 0.383956,-0.49396 1.137203,-0.1498 1.169157,-0.13511 0.07858,0.0367 0.112622,0.13036 0.07595,0.209 -0.03666,0.0786 -0.130427,0.11316 -0.209001,0.0764 -0.0057,-0.004 -0.557864,-0.25248 -0.787819,0.0429 -0.06652,0.0864 -0.08171,0.17077 -0.04767,0.26663 0.05815,0.16186 0.260861,0.33 0.469861,0.39809 0.108436,-0.0713 0.323196,-0.17966 0.549484,-0.11152 0.203765,0.0634 0.349909,0.24882 0.434244,0.55316 0.02304,0.0832 -0.02567,0.17024 -0.109479,0.19328 l -0.04244,0.006"
           style="fill:#d06493;fill-opacity:1;fill-rule:nonzero;stroke:none;stroke-width:0.0523816" />
        <path
           id="path153"
           d="m 47.442499,114.49288 c 0,0 0.622293,1.28964 0.266622,2.40065 -0.35567,1.11206 -1.837545,1.45254 -2.904558,1.21524 -1.081155,-0.2399 -1.630114,-2.10416 -1.630114,-2.10416 l 4.26805,-1.51173"
           style="fill:#000000;fill-opacity:1;fill-rule:nonzero;stroke:none;stroke-width:0.0523816" />
        <path
           id="path154"
           d="m 40.595703,118.3162 -0.592434,-0.41486 4.951629,-1.98211 0.232575,0.58563 -4.59177,1.81134"
           style="fill:#000000;fill-opacity:1;fill-rule:nonzero;stroke:none;stroke-width:0.0523816" />
        <path
           id="path155"
           d="m 47.116162,114.99678 0.978487,-0.4442 0.207431,0.6815 -1.15606,0.26662 -0.02986,-0.50392"
           style="fill:#000000;fill-opacity:1;fill-rule:nonzero;stroke:none;stroke-width:0.0523816" />
        <path
           id="path157"
           d="m 33.797623,118.1664 c 0,0 7.355421,-4.94063 13.495066,-6.3476 0,0 -2.078503,-6.18783 -8.602103,-4.39742 -6.523601,1.79091 -5.852069,8.57014 -4.892963,10.74502"
           style="fill:#fbc351;fill-opacity:1;fill-rule:nonzero;stroke:none;stroke-width:0.0523816" />
        <path
           id="path158"
           d="m 42.568918,112.6501 0.11472,-1.31321 2.968987,-1.08534 0.856963,0.91353 -3.940666,1.48502"
           style="fill:#000000;fill-opacity:1;fill-rule:nonzero;stroke:none;stroke-width:0.0523816" />
        <path
           id="path159"
           d="m 33.798148,118.1664 c 0,0 0.650578,-0.43686 1.721782,-1.08535 -0.545817,-2.84171 -0.706629,-7.68489 3.754186,-9.80111 -0.190669,0.0403 -0.385004,0.087 -0.58353,0.14137 -6.523601,1.79091 -5.852069,8.57014 -4.892438,10.74502"
           style="fill:#e4a740;fill-opacity:1;fill-rule:nonzero;stroke:none;stroke-width:0.0523816" />
        <path
           id="path160"
           d="m 55.665882,201.56519 c 2.051786,-0.29908 10.146311,-1.5154 14.240979,-2.69345 0.323195,-0.0932 0.667342,0.066 0.796724,0.37663 0.24986,0.59714 0.578815,1.69086 0.548958,3.26232 -0.0062,0.3431 -0.24829,0.63799 -0.581959,0.71449 -2.237741,0.51227 -10.533411,2.23826 -14.220025,2.6793 -0.321624,0.0383 -0.627008,-0.1378 -0.765819,-0.43058 -0.309051,-0.65267 -0.762153,-1.89987 -0.587722,-3.33303 0.03667,-0.29753 0.272386,-0.53221 0.568864,-0.57568"
           style="fill:#27316a;fill-opacity:1;fill-rule:nonzero;stroke:none;stroke-width:0.0523816" />
        <path
           id="path161"
           d="m 24.359512,193.31091 c 1.601828,1.31582 7.949951,6.48484 11.576851,8.71944 0.286526,0.17653 0.400195,0.53848 0.257718,0.84334 -0.273956,0.58666 -0.861154,1.56569 -2.043407,2.60127 -0.257716,0.22576 -0.639054,0.24619 -0.919819,0.0503 -1.88469,-1.31006 -8.745104,-6.2837 -11.552757,-8.71369 -0.244621,-0.21161 -0.320575,-0.55629 -0.197478,-0.85538 0.275003,-0.6684 0.892582,-1.84278 2.070121,-2.6788 0.244097,-0.17285 0.577244,-0.15713 0.808771,0.0335"
           style="fill:#1e2549;fill-opacity:1;fill-rule:nonzero;stroke:none;stroke-width:0.0523816" />
        <path
           id="path162"
           d="m 61.109375,152.68742 c -0.429004,-0.77316 -1.298016,-1.9774 -2.886224,-2.90875 -2.039215,-1.19534 -4.641007,0.0905 -5.590684,0.64641 1.523778,0.98267 2.692411,1.6893 3.19475,1.89516 0.640103,0.26191 2.669889,0.3609 5.282158,0.36718"
           style="fill:#2a3a86;fill-opacity:1;fill-rule:nonzero;stroke:none;stroke-width:0.0523816" />
        <path
           id="path163"
           d="m 55.535976,152.2888 c -7.844141,-3.13766 -12.907343,-11.11223 -12.95763,-11.19184 l 0.26348,-0.16502 c 0.04975,0.0796 5.061107,7.96936 12.80939,11.06876 l -0.115237,0.2881"
           style="fill:#2a3a86;fill-opacity:1;fill-rule:nonzero;stroke:none;stroke-width:0.0523816" />
      </g>
      <text
         xml:space="preserve"
         style="font-style:normal;font-variant:normal;font-weight:bold;font-stretch:normal;font-size:3.52778px;line-height:1.05;font-family:Lato;-inkscape-font-specification:'Lato, Bold';font-variant-ligatures:normal;font-variant-caps:normal;font-variant-numeric:normal;font-variant-east-asian:normal;letter-spacing:0px;word-spacing:0px;fill:#ffffff;fill-opacity:1;stroke-width:0.163217"
         x="152.53619"
         y="131.26605"
         id="text1"><tspan
           sodipodi:role="line"
           id="tspan1"
           style="font-style:normal;font-variant:normal;font-weight:bold;font-stretch:normal;font-size:3.52778px;font-family:Lato;-inkscape-font-specification:'Lato, Bold';font-variant-ligatures:normal;font-variant-caps:normal;font-variant-numeric:normal;font-variant-east-asian:normal;fill:#ffffff;fill-opacity:1;stroke-width:0.163217"
           x="152.53619"
           y="131.26605">AGREGAR</tspan></text>
      <text
         xml:space="preserve"
         style="font-size:5.29167px;line-height:1.05;font-family:'DejaVu Sans';-inkscape-font-specification:'DejaVu Sans';letter-spacing:0px;word-spacing:0px;stroke-width:0.264583"
         x="144.30739"
         y="107.72089"
         id="text2"><tspan
           sodipodi:role="line"
           id="tspan2"
           style="font-style:normal;font-variant:normal;font-weight:600;font-stretch:normal;font-size:5.29167px;font-family:'Fira Sans';-inkscape-font-specification:'Fira Sans, Semi-Bold';font-variant-ligatures:normal;font-variant-caps:normal;font-variant-numeric:normal;font-variant-east-asian:normal;stroke-width:0.264583"
           x="144.30739"
           y="107.72089">REMERA</tspan></text>
      <text
         xml:space="preserve"
         style="font-size:4.23333px;line-height:1.05;font-family:'DejaVu Sans';-inkscape-font-specification:'DejaVu Sans';letter-spacing:0px;word-spacing:0px;fill:#000000;fill-opacity:1;stroke-width:0.264583"
         x="150.28804"
         y="141.33688"
         id="text3"><tspan
           sodipodi:role="line"
           id="tspan3"
           style="font-style:normal;font-variant:normal;font-weight:bold;font-stretch:normal;font-size:4.23333px;font-family:Lato;-inkscape-font-specification:'Lato, Bold';font-variant-ligatures:normal;font-variant-caps:normal;font-variant-numeric:normal;font-variant-east-asian:normal;fill:#000000;fill-opacity:1;stroke-width:0.264583"
           x="150.28804"
           y="141.33688">COMPRAR</tspan></text>
    </g>
  </g>
</svg>
