<?xml version="1.0" encoding="UTF-8" standalone="no"?>
<svg
   width="600"
   height="600"
   version="1.1"
   id="svg62"
   sodipodi:docname="location.svg"
   xml:space="preserve"
   inkscape:version="1.4.3 (1:1.4.3+202512261035+0d15f75042)"
   inkscape:export-filename="../location-simplex.png"
   inkscape:export-xdpi="200"
   inkscape:export-ydpi="200"
   xmlns:inkscape="http://www.inkscape.org/namespaces/inkscape"
   xmlns:sodipodi="http://sodipodi.sourceforge.net/DTD/sodipodi-0.dtd"
   xmlns="http://www.w3.org/2000/svg"
   xmlns:svg="http://www.w3.org/2000/svg"><defs
     id="defs62" /><sodipodi:namedview
     id="namedview62"
     pagecolor="#ffffff"
     bordercolor="#666666"
     borderopacity="1.0"
     inkscape:showpageshadow="2"
     inkscape:pageopacity="0.0"
     inkscape:pagecheckerboard="0"
     inkscape:deskcolor="#d1d1d1"
     inkscape:zoom="0.72575575"
     inkscape:cx="523.59213"
     inkscape:cy="498.10146"
     inkscape:window-width="1920"
     inkscape:window-height="1027"
     inkscape:window-x="0"
     inkscape:window-y="25"
     inkscape:window-maximized="1"
     inkscape:current-layer="g62" /><g
     inkscape:groupmode="layer"
     id="layer1"
     inkscape:label="Layer 1"><g
       id="g62"
       transform="matrix(0.94063324,0,0,0.94063324,-55.197377,-40.181847)"><g
         id="g69"><path
           fill="#ed4c50"
           d="m 649.8058,439.01462 c 0.88339,-0.30692 1.17113,-0.18021 2.06967,0 1.94347,1.8097 5.04797,4.0303 6.04747,6.50633 l -0.60576,1.12166 c -0.65624,0.43968 -1.14084,0.4311 -1.89299,0.44876 -2.06967,-1.48461 -5.12369,-4.40486 -6.15347,-6.73046 z"
           id="path6"
           style="stroke-width:0.504797" /><path
           fill="#ed4c50"
           d="m 665.03553,453.82183 c 0.75215,-0.33518 1.07017,-0.26704 1.84251,-0.12317 1.80717,1.77234 5.46695,4.53157 6.05251,6.85414 l -0.67138,1.0742 c -0.71681,0.33065 -1.02978,0.57043 -1.80717,0.24786 -1.59011,-0.66078 -5.47705,-4.77891 -6.00708,-6.44828 -0.14135,-0.4523 0.37859,-1.17466 0.59061,-1.60475 z"
           id="path7"
           style="stroke-width:0.504797" /><path
           fill="#ed4c50"
           d="m 655.57058,453.37357 c 0.20192,-0.0278 0.29783,-0.056 0.51994,0.002 1.04493,0.27107 1.25695,0.66986 1.6305,1.56891 -0.51489,2.20394 -4.41698,5.36145 -6.0929,6.99245 l -1.04493,0.0596 c -0.90864,-0.4735 -1.01464,-0.48158 -1.5043,-1.44321 0.3887,-2.21808 4.63909,-5.79255 6.49169,-7.17923 z"
           id="path8"
           style="stroke-width:0.504797" /><path
           fill="#ed4c50"
           d="m 670.02292,439.01462 c 0.67643,-0.24331 1.30743,-0.19435 2.01414,-0.17567 l 0.91873,1.0732 c -0.37355,2.53812 -4.13933,5.32561 -6.00203,7.17922 l -1.42353,0.27461 -0.89349,-0.60676 -0.2625,-1.4624 c 0.90359,-2.17164 3.95256,-4.57397 5.64868,-6.2822 z"
           id="path9"
           style="stroke-width:0.504797" /></g><path
         fill="#252325"
         d="m 491.76898,432.14484 c -0.10096,-1.76225 1.14084,-3.71682 2.28169,-4.9985 1.81726,-2.04494 4.10904,-3.0202 6.8198,-3.13025 l 40.47463,-0.052 13.45789,0.0131 c 2.51389,0.004 5.24484,-0.20141 7.73349,0.17718 2.04948,0.31197 3.15498,0.98133 4.68957,2.36094 l -0.86321,1.37355 c -1.31752,-1.08632 -2.42302,-1.80869 -4.14943,-2.00455 -3.00354,-0.34124 -6.29986,-0.0878 -9.33369,-0.0944 l -17.9304,-0.0172 -23.10961,0.0313 c -3.77588,0.01 -7.78397,-0.2524 -11.53966,0.0813 -1.94851,0.17264 -3.82131,1.06058 -5.07826,2.57952 -1.65068,1.99596 -1.97375,4.42353 -2.16053,6.92278 -0.31802,-0.90813 -0.41898,-1.93236 -0.58556,-2.87936 z"
         id="path13"
         style="stroke-width:0.504797" /><path
         fill="#252325"
         d="m 201.95085,433.8879 3.33722,1.25341 c 5.47603,1.73095 10.87433,0.57042 15.85214,-1.98536 l 0.9899,1.33165 c -1.7158,1.02221 -3.2938,1.8097 -5.20092,2.41041 l -4.52147,0.84906 0.10551,67.27532 c -0.22666,-0.89652 -0.51641,-1.81777 -0.5886,-2.74004 -1.10399,1.79506 0.24937,5.86877 -1.1893,6.93541 l -0.27562,-0.85664 c 1.03938,-2.1777 0.23574,-63.19757 0.2317,-70.60143 -2.78597,-0.28773 -5.32763,-0.76173 -7.96267,-1.73852 z"
         id="path14"
         style="stroke-width:0.504797" /><path
         fill="#252325"
         d="m 574.24273,512.78465 32.87743,0.0136 c 6.64313,0.008 14.78551,-0.89046 21.20148,0.85664 4.11914,1.12267 7.75368,3.55579 10.74208,6.55479 4.6088,4.6194 7.05201,10.47202 6.97125,16.97683 -0.0858,6.55277 -2.81677,13.09848 -7.5972,17.59925 -1.10551,1.04089 -2.41293,2.04998 -3.72035,2.82434 -1.51944,0.97729 -4.03838,0.82383 -5.75974,0.47249 l -0.53508,-0.13074 c 3.57396,-1.30642 6.72389,-2.79759 9.45485,-5.50784 4.27058,-4.23626 6.35539,-10.03335 6.35034,-15.99652 -0.0101,-5.92581 -2.67542,-11.26959 -6.84505,-15.37814 -7.59719,-7.47301 -16.75926,-6.53207 -26.57756,-6.5452 -3.02374,-0.39424 -6.33016,-0.16103 -9.39932,-0.18576 l -19.01066,-0.0167 c -2.13529,0.0101 -6.94601,0.61888 -8.55126,-0.37708 z"
         id="path15"
         style="stroke-width:0.504797" /><path
         fill="#252325"
         d="m 310.81589,218.25273 5.23475,-3.71076 c 20.6043,-13.73755 44.48473,-21.26761 69.23746,-21.26458 4.98891,5.1e-4 10.02779,-0.0374 14.94048,0.95508 15.71887,0.99344 32.95365,7.36297 46.47717,15.07071 l -2.1252,0.86825 c -15.35845,-8.4503 -32.02079,-12.9758 -49.3742,-14.77692 -30.41453,-1.97628 -58.59886,6.51592 -83.32836,24.33071 -0.86927,-0.52145 -0.80162,-0.48561 -1.0621,-1.47249 z"
         id="path16"
         style="stroke-width:0.504797" /><path
         fill="#615f60"
         d="m 196.92964,557.50059 c 1.08632,0.20343 1.98688,0.46794 2.98688,0.94094 4.6613,1.12418 9.24233,0.60727 13.77793,1.53458 -1.85614,1.25543 -7.93339,0.14185 -8.52602,1.14084 l -58.22683,0.0828 -17.82337,-0.002 c -2.23878,-0.004 -5.57347,0.40636 -7.67746,-0.25038 -0.79809,-0.24937 -0.7885,-0.5265 -1.17012,-1.23019 0.26805,-0.91621 0.46643,-1.62343 1.55982,-1.87481 1.01515,-0.23322 2.69006,-0.0116 3.75872,-0.0156 l 8.83748,-0.0237 43.77348,0.0369 14.06011,0.2418 c 1.3993,0.0242 3.26856,0.34629 4.48512,-0.44574 z"
         id="path17"
         style="stroke-width:0.504797" /><path
         fill="#ed4c50"
         d="m 582.90504,359.88617 c 2.52904,-0.31146 5.45181,-0.5048 7.86474,0.43614 3.71026,1.44624 6.82486,4.44272 8.36954,8.12471 1.3579,3.22868 1.28218,6.9036 -0.0757,10.11563 -1.97376,4.66937 -5.28523,7.00507 -9.8385,8.8183 -1.96366,0.40232 -4.92682,0.49672 -6.86019,-0.0873 l -2.61485,-0.92277 c -3.14993,-1.48814 -5.89603,-4.66281 -7.05201,-7.93995 -1.26704,-3.60274 -1.06512,-7.39377 0.61585,-10.81326 2.05957,-4.18528 5.30542,-6.28372 9.59114,-7.73147 z"
         id="path20"
         style="stroke-width:0.504797" /><path
         fill="#fefefe"
         d="m 583.78339,362.99773 c 2.46341,-0.10247 4.37154,-0.16456 6.67847,0.82636 2.56941,1.10197 4.67947,3.3256 5.69411,5.92783 1.04493,2.66583 1.17617,5.32006 -0.0404,7.96115 -1.59011,3.44878 -3.97275,5.22617 -7.44575,6.51744 -2.09491,0.19031 -4.05857,0.33821 -6.05757,-0.4311 -3.04897,-1.17163 -5.30541,-3.06159 -6.57246,-6.13025 -1.10045,-2.65826 -1.16103,-5.42152 -0.0353,-8.07878 1.4942,-3.52853 4.37659,-5.22969 7.77892,-6.59265 z"
         id="path21"
         style="stroke-width:0.504797" /><path
         fill="#20181c"
         d="m 196.92964,557.50059 -1.79002,-0.53761 c -24.23783,-8.18781 -48.97995,-29.43775 -60.28185,-52.43983 -4.31703,-8.786 -7.26201,-20.06064 -3.87533,-29.61847 1.54771,-4.3675 4.65524,-7.75065 8.85465,-9.68453 7.28472,-3.35488 16.61842,-1.82989 23.88144,0.83544 20.37008,7.47604 37.27018,21.9304 46.47011,41.65989 l -1.40132,1.09743 c -2.94145,-6.6189 -6.85161,-13.4483 -11.99751,-18.60076 l -0.43362,-0.14841 c -1.1469,-0.42857 -2.35034,-1.80617 -3.2721,-2.61233 -2.00606,-1.75366 -4.03989,-3.41293 -6.22314,-4.94146 -9.46242,-6.62647 -21.79057,-12.14895 -33.40444,-13.2489 -3.49521,-0.33064 -6.91218,-0.28269 -10.20649,1.07572 -3.53762,1.45887 -6.34681,4.35034 -7.77791,7.91068 -3.38265,8.41396 -0.55578,18.16815 2.95659,26.06923 1.66432,3.74459 3.70824,7.2812 5.95913,10.69968 1.24079,1.8834 2.52601,3.68805 3.9455,5.44171 0.83947,1.03686 2.1999,2.28068 2.51691,3.57902 l -0.0636,0.0712 c 2.37356,3.66281 6.11259,6.8395 9.40134,9.66838 10.75723,9.25444 25.26106,19.59319 39.31259,22.86175 l 0.47854,0.0984 -0.0626,1.7047 c -1,-0.473 -1.90056,-0.73751 -2.98688,-0.94094 z"
         id="path22"
         style="stroke-width:0.504797" /><path
         fill="#fefefe"
         d="m 150.78664,524.10826 -0.15699,-0.0348 c -9.8602,-10.60225 -19.68153,-25.69467 -19.51445,-40.76842 0.0545,-4.92631 1.66634,-10.37408 5.33318,-13.82387 3.87331,-3.64362 9.22113,-4.61839 14.38117,-4.37659 16.71989,0.78244 35.03241,13.14896 45.96026,25.1076 l -0.43362,-0.14841 c -1.1469,-0.42857 -2.35034,-1.80617 -3.2721,-2.61233 -2.00606,-1.75366 -4.03989,-3.41293 -6.22314,-4.94146 -9.46242,-6.62647 -21.79057,-12.14895 -33.40444,-13.2489 -3.49521,-0.33064 -6.91218,-0.28269 -10.20649,1.07572 -3.53762,1.45887 -6.34681,4.35034 -7.77791,7.91068 -3.38265,8.41396 -0.55578,18.16815 2.95659,26.06923 1.66432,3.74459 3.70824,7.2812 5.95913,10.69968 1.24079,1.8834 2.52601,3.68805 3.9455,5.44171 0.83947,1.03686 2.1999,2.28068 2.51691,3.57902 z"
         id="path23"
         style="stroke-width:0.504797" /><path
         fill="#6b6969"
         d="m 491.62259,537.43995 c 0.31802,4.95105 0.15144,9.93895 0.1161,14.89909 -0.0151,1.42252 -0.45936,4.17315 0.42403,5.25191 l 0.91873,-0.30541 c 1.83747,0.77638 4.2504,0.45129 6.2191,0.40838 l 48.54129,-0.0485 c 6.21405,0.0177 13.65476,0.86169 19.66185,-0.17163 l 0.3584,-1.55174 0.33822,1.80162 1.54972,-0.2105 3.8617,0.21504 41.61547,0.0787 8.98539,0.0167 c 1.21151,0.002 3.08936,-0.22666 4.21001,0.12822 l 0.53508,0.13074 c 1.72136,0.35134 4.2403,0.5048 5.75974,-0.47249 l 0.44422,0.0449 c 5.1035,0.48612 29.08136,-0.83645 31.26713,0.75871 0.34831,1.0631 0.31802,1.19334 0,2.27158 -0.56538,0.37961 -0.85311,0.53913 -1.55478,0.5578 l -72.0093,-0.0106 -151.38359,-0.0767 -158.40785,0.0495 -77.90482,-0.0883 c 0.59263,-0.99899 6.66988,0.11459 8.52602,-1.14084 5.38013,-0.55124 10.3968,-0.94296 15.64518,-2.44725 0.28672,0.16658 0.54922,0.38465 0.85967,0.50025 0.30944,0.11509 1.4109,-0.0591 1.77688,-0.0717 l 6.1767,-0.0762 33.61797,-0.0757 219.48829,-0.0384 z"
         id="path24"
         style="stroke-width:0.504797" /><path
         fill="#1c1c18"
         d="m 566.36284,427.88889 0.86321,-1.37355 c 1.41343,1.71278 2.01414,3.01111 2.53913,5.16155 1.7365,0.41696 2.55932,0.76527 3.69511,2.16507 0.64614,1.68199 0.42403,3.64868 0.43413,5.43364 l 0.0303,10.34127 -0.0202,43.69473 -0.0959,13.74866 c -0.0101,1.68652 -0.37355,4.26755 0.43413,5.72439 l -0.39879,1.16003 c 1.60525,0.99596 6.41597,0.38718 8.55126,0.37708 l 19.01066,0.0167 c 3.06916,0.0247 6.37558,-0.20848 9.39932,0.18576 l -37.0723,0.10652 -0.12115,43.09755 -3.8617,-0.21504 -1.54972,0.2105 -0.33822,-1.80162 c 0.0202,-7.29684 0.68148,-66.0734 -0.36345,-67.84473 l -68.21828,-0.057 0.0202,69.6736 c -1.9687,0.0429 -4.38163,0.368 -6.2191,-0.40838 l -0.91873,0.30541 c -0.88339,-1.07876 -0.43917,-3.82939 -0.42403,-5.25191 0.0353,-4.96014 0.20192,-9.94804 -0.1161,-14.89909 l -0.10096,-21.98744 -32.4534,-0.0697 c 1.54468,-1.65573 23.24086,1.03787 25.67398,-0.76072 -0.98436,-0.82181 -5.13884,-0.37608 -6.61789,-0.37709 l -25.50235,0.0808 c -3.94751,0.0202 -9.98993,0.83241 -13.67495,-0.47653 l 52.56956,-0.0565 -0.19687,-33.99858 -68.07996,0.14992 c 1.61838,-0.77133 3.87735,-0.5265 5.65423,-0.53609 -0.67138,-0.51742 -1.49369,-0.40586 -2.32459,-0.28875 -0.78294,0.11005 -0.4735,-0.33114 -1.03836,-0.53003 -0.40788,-0.14337 -1.73196,0.0106 -2.21606,0.0136 l 0.058,-0.84806 c 0.62241,0.32054 1.15144,0.49975 1.8526,0.51438 l 49.58723,0.0212 11.4286,-0.0121 c 1.22666,-0.004 3.16003,0.27411 4.27564,-0.13024 0.18677,-0.0697 0.48965,-0.27915 0.63604,-0.37456 0.56032,-4.34579 0.33821,-8.98034 0.3786,-13.36197 l 0.23725,-32.26663 0.70672,0.36345 c 0.16658,0.947 0.26754,1.97123 0.58556,2.87936 l 0.0555,50.29293 c 1.06512,0.74004 1.76679,0.60021 3.00859,0.63655 l 71.68118,-0.0333 -0.0404,-37.2409 c -0.0101,-5.78649 0.48965,-12.14491 -0.16658,-17.85164 -0.14135,-1.15296 -0.76225,-2.24989 -1.23676,-3.30239 z"
         id="path25"
         style="stroke-width:0.504797" /><path
         fill="#fefefe"
         d="m 493.08145,557.28554 0.005,-69.30157 6.19386,0.0363 0.0202,69.6736 c -1.9687,0.0429 -4.38163,0.368 -6.2191,-0.40838 z"
         id="path26"
         style="stroke-width:0.504797" /><path
         fill="#46c8a0"
         d="m 569.76518,431.67689 c 1.7365,0.41696 2.55932,0.76527 3.69511,2.16507 0.64614,1.68199 0.42403,3.64868 0.43413,5.43364 l 0.0303,10.34127 -0.0202,43.69473 -0.0959,13.74866 c -0.0101,1.68652 -0.37355,4.26755 0.43413,5.72439 l -0.39879,1.16003 c 1.60525,0.99596 6.41597,0.38718 8.55126,0.37708 l 19.01066,0.0167 c 3.06916,0.0247 6.37558,-0.20848 9.39932,0.18576 l -37.0723,0.10652 -0.12115,43.09755 -3.8617,-0.21504 z"
         id="path27"
         style="stroke-width:0.504797" /><path
         fill="#fefefe"
         d="m 610.80518,514.52418 c 9.8183,0.0131 18.98037,-0.92781 26.57756,6.5452 4.16963,4.10855 6.83496,9.45233 6.84505,15.37814 0.005,5.96317 -2.07976,11.76026 -6.35034,15.99652 -2.73096,2.71025 -5.88089,4.20142 -9.45485,5.50784 -1.12065,-0.35488 -2.9985,-0.12671 -4.21001,-0.12822 l -8.98539,-0.0167 -41.61547,-0.0787 0.12115,-43.09755 z"
         id="path28"
         style="stroke-width:0.504797" /><path
         fill="#fefefe"
         d="m 423.23975,479.94407 68.07996,-0.14992 0.19687,33.99858 -52.56956,0.0565 -47.85527,-0.0454 22.49982,-25.1924 5.94449,-6.53662 c 0.41191,-0.43463 1.3155,-1.64665 1.81474,-1.89652 0.3362,-0.16861 1.473,-0.18223 1.88895,-0.23423 z"
         id="path31"
         style="stroke-width:0.504797" /><path
         fill="#f8c395"
         d="m 446.70575,209.30318 20.0253,13.32008 0.95406,-0.14488 c 27.00665,15.31403 47.91029,41.3131 56.2344,71.33742 2.18577,7.87938 3.29632,16.12271 3.26603,24.29992 0.0152,20.19744 -5.88593,37.65483 -14.72493,55.6564 -13.86677,28.23532 -33.6952,53.0466 -53.77098,77.07696 l -14.76531,17.34079 c -2.72591,3.09239 -6.31502,6.23778 -8.47555,9.70372 l 38.91986,0.0626 c 5.19436,0.006 11.74663,0.74811 16.7845,-0.18274 -0.14639,0.0954 -0.44927,0.3049 -0.63604,0.37456 -1.11561,0.40435 -3.04898,0.1262 -4.27564,0.13024 l -11.4286,0.0121 -49.58723,-0.0212 c -0.70116,-0.0146 -1.23019,-0.19384 -1.8526,-0.51438 l 17.97683,-21.0662 c 22.59472,-27.29538 44.36662,-55.43529 59.6973,-87.55856 -0.34831,-0.71782 -0.49975,-1.5891 -0.70167,-2.36598 1.24181,-4.00052 3.21556,-7.87787 4.63909,-11.84557 4.39678,-12.259 6.99649,-25.12022 6.68351,-38.17831 -0.81777,-34.04452 -16.20398,-64.44997 -40.65635,-87.68325 -8.02628,-7.55328 -16.88042,-13.47152 -26.43118,-18.88547 z"
         id="path32"
         style="stroke-width:0.504797" /><path
         fill="#20181c"
         d="m 446.70575,209.30318 20.0253,13.32008 c 6.74913,5.85969 13.34683,12.09898 18.97027,19.06265 16.32514,20.22621 25.82542,45.13795 27.66793,71.01132 1.39829,19.6361 -4.19991,38.74873 -12.3221,56.43278 -0.34831,-0.71782 -0.49975,-1.5891 -0.70167,-2.36598 1.24181,-4.00052 3.21556,-7.87787 4.63909,-11.84557 4.39678,-12.259 6.99649,-25.12022 6.68351,-38.17831 -0.81777,-34.04452 -16.20398,-64.44997 -40.65635,-87.68325 -8.02628,-7.55328 -16.88042,-13.47152 -26.43118,-18.88547 z"
         id="path33"
         style="stroke-width:0.504797" /><path
         fill="#46c8a0"
         d="m 150.78664,524.10826 0.0636,-0.0712 c -0.31701,-1.29834 -1.67744,-2.54216 -2.51691,-3.57902 -1.41949,-1.75366 -2.70471,-3.55831 -3.9455,-5.44171 -2.25089,-3.41848 -4.29481,-6.95509 -5.95913,-10.69968 -3.51237,-7.90108 -6.33924,-17.65527 -2.95659,-26.06923 1.4311,-3.56034 4.24029,-6.45181 7.77791,-7.91068 3.29431,-1.35841 6.71128,-1.40636 10.20649,-1.07572 11.61387,1.09995 23.94202,6.62243 33.40444,13.2489 2.18325,1.52853 4.21708,3.1878 6.22314,4.94146 0.92176,0.80616 2.1252,2.18376 3.2721,2.61233 l 0.43362,0.14841 c 5.1459,5.15246 9.05606,11.98186 11.99751,18.60076 3.01263,9.49119 2.10096,19.44478 2.11863,29.31407 0.004,2.11863 -0.38667,5.19436 0.0469,7.21153 l -0.13327,8.26101 c -8.92935,-16.45084 -20.02479,-29.76486 -35.60586,-40.24899 l -0.73549,0.33317 -0.28622,0.93842 c 3.02273,3.0631 7.2711,5.13378 10.58206,7.99901 10.71331,9.2711 20.64115,22.4347 25.92688,35.56649 -3.82232,-0.14185 -6.9985,-0.56235 -10.72189,-1.45079 l -0.47854,-0.0984 c -14.05153,-3.26856 -28.55536,-13.60731 -39.31259,-22.86175 -3.28875,-2.82888 -7.02778,-6.00557 -9.40134,-9.66838 z"
         id="path34"
         style="stroke-width:0.504797" /><path
         fill="#46c8a0"
         d="m 493.06126,435.38765 c 0.18678,-2.49925 0.50985,-4.92682 2.16053,-6.92278 1.25695,-1.51894 3.12975,-2.40688 5.07826,-2.57952 3.75569,-0.33367 7.76378,-0.0717 11.53966,-0.0813 l 23.10961,-0.0313 17.9304,0.0172 c 3.03383,0.007 6.33015,-0.24685 9.33369,0.0944 1.72641,0.19586 2.83191,0.91823 4.14943,2.00455 0.47451,1.0525 1.09541,2.14943 1.23676,3.30239 0.65623,5.70673 0.15648,12.06515 0.16658,17.85164 l 0.0404,37.2409 -71.68118,0.0333 c -1.2418,-0.0363 -1.94347,0.10349 -3.00859,-0.63655 z"
         id="path35"
         style="stroke-width:0.504797" /><path
         fill="#252325"
         d="m 150.03334,480.28764 c 1.09137,-0.158 1.06008,-0.11257 1.92732,0.44877 l 0.0525,8.54975 c 2.50379,0.008 6.81223,-0.54821 8.89401,0.64866 l 0.22666,1.12166 c -1.57497,1.37103 -6.77943,0.76022 -9.05051,0.76325 -0.0121,2.58154 0.52297,6.39225 -0.78496,8.55429 l -1.05149,-0.1166 c -1.1156,-1.27209 -0.5891,-6.55631 -0.58809,-8.48362 -2.27714,-0.0182 -7.41951,0.54568 -9.09392,-0.71732 l 0.17315,-1.12166 c 1.83191,-1.18577 6.59063,-0.6315 8.92077,-0.64715 -0.0338,-2.64413 -0.54518,-6.56993 0.37456,-9.00003 z"
         id="path12"
         style="stroke-width:0.504797" /><path
         fill="#fefefe"
         d="m 493.06126,435.38765 c 0.18678,-2.49925 0.50985,-4.92682 2.16053,-6.92278 1.25695,-1.51894 3.12975,-2.40688 5.07826,-2.57952 3.75569,-0.33367 7.76378,-0.0717 11.53966,-0.0813 l 23.10961,-0.0313 17.9304,0.0172 c 3.03383,0.007 6.33015,-0.24685 9.33369,0.0944 1.72641,0.19586 2.83191,0.91823 4.14943,2.00455 0.47451,1.0525 1.09541,2.14943 1.23676,3.30239 l -0.77234,0.96466 -42.13036,0.0686 c -6.61285,-0.0197 -14.03336,-0.7264 -20.56544,0.0384 -1.30237,0.15194 -2.31197,0.63705 -3.23575,1.57396 -0.67642,0.68652 -1.18627,1.49066 -1.40333,2.43867 -1.44877,6.31198 0.93387,48.32271 -0.61585,49.669 -0.20192,0.17921 -2.33217,0.31601 -2.75115,0.37254 -1.2418,-0.0363 -1.94347,0.10349 -3.00859,-0.63655 z"
         id="path36"
         style="stroke-width:0.504797" /><path
         fill="#46c8a0"
         d="m 499.28036,488.02032 68.21828,0.057 c 1.04493,1.77133 0.38364,60.54789 0.36345,67.84473 l -0.3584,1.55174 c -6.00709,1.03332 -13.4478,0.1893 -19.66185,0.17163 l -48.54129,0.0485 z"
         id="path37"
         style="stroke-width:0.504797" /><path
         fill="#cbe7ea"
         d="m 467.68511,222.47838 c 4.26554,-2.51893 10.67646,-3.66028 15.49223,-4.91975 32.36758,-8.47049 67.70338,-7.56488 100.03563,0.75972 21.72142,5.59265 49.89919,18.34887 61.68115,38.34641 4.22516,7.17367 6.32511,15.49828 4.16963,23.7401 -2.45332,9.36802 -10.944,16.9319 -19.06619,21.54171 -13.66485,7.75721 -29.1066,11.65829 -44.53824,13.93593 -19.56089,2.88693 -38.56145,3.28724 -58.27378,2.23322 0.0303,-8.17721 -1.08026,-16.42054 -3.26603,-24.29992 -8.32411,-30.02432 -29.22775,-56.02339 -56.2344,-71.33742 z"
         id="path38"
         style="stroke-width:0.504797" /><path
         fill="#fefefe"
         d="m 305.18337,425.95502 45.42214,53.68365 c -7.945,-0.12115 -15.52301,-0.9263 -21.72243,5.21102 -3.78496,3.74711 -5.96316,8.42506 -5.90663,13.76985 0.0535,5.01213 2.19385,9.5548 5.76529,13.00257 l 1.9682,1.9677 -4.31853,0.22009 -0.52146,0.81222 0.74609,0.79606 132.45219,-0.0353 32.4534,0.0697 0.10096,21.98744 -0.36345,20.32717 -219.48829,0.0384 -33.61797,0.0757 -6.1767,0.0762 c -0.36598,0.0126 -1.46744,0.18677 -1.77688,0.0717 -0.31045,-0.1156 -0.57295,-0.33367 -0.85967,-0.50025 -5.24838,1.50429 -10.26505,1.89601 -15.64518,2.44725 -4.5356,-0.92731 -9.11663,-0.4104 -13.77793,-1.53458 l 0.0626,-1.7047 c 3.72339,0.88844 6.89957,1.30894 10.72189,1.45079 -5.28573,-13.13179 -15.21357,-26.29539 -25.92688,-35.56649 -3.31096,-2.86523 -7.55933,-4.93591 -10.58206,-7.99901 l 0.28622,-0.93842 0.73549,-0.33317 c 15.58107,10.48413 26.67651,23.79815 35.60586,40.24899 l 0.13327,-8.26101 c -0.43362,-2.01717 -0.0429,-5.0929 -0.0469,-7.21153 -0.0177,-9.86929 0.894,-19.82288 -2.11863,-29.31407 l 1.40132,-1.09743 0.27107,0.64564 0.27562,0.85664 c 1.43867,-1.06664 0.0853,-5.14035 1.1893,-6.93541 0.0722,0.92227 0.36194,1.84352 0.5886,2.74004 l -0.10551,-67.27532 4.52147,-0.84906 c 5.41496,0.29227 10.95157,-0.0379 16.37461,-0.13378 16.97228,-0.29984 33.74619,-2.01414 50.39036,-5.38315 7.34075,-1.48612 14.40186,-2.96215 21.48921,-5.42606 z"
         id="path39"
         style="stroke-width:0.504797" /><path
         fill="#20181c"
         d="m 353.42278,539.52527 1.23777,-0.30338 c 1.04139,0.54669 1.05401,0.55477 1.48208,1.64967 l -0.59213,1.08229 -0.92529,0.3155 c -1.16255,-0.32661 -1.11813,-0.34882 -1.73297,-1.39779 z"
         id="path40"
         style="stroke-width:0.504797" /><path
         fill="#20181c"
         d="m 340.61002,539.52527 1.05352,-0.31903 c 1.25492,0.33013 1.21908,0.32912 1.89601,1.44069 l -0.56991,1.16255 c -0.98385,0.41494 -1.2206,0.30489 -2.24282,0.13225 l -0.64815,-1.07017 z"
         id="path41"
         style="stroke-width:0.504797" /><path
         fill="#20181c"
         d="m 449.86073,531.89728 c 1.05503,-0.13629 1.20142,-0.0495 2.16558,0.4205 l 0.28269,1.37456 -0.7572,1.12317 c -1.20647,0.0328 -1.29228,0.0772 -2.24635,-0.64664 -0.17163,-1.21303 -0.106,-1.2312 0.55528,-2.27159 z"
         id="path42"
         style="stroke-width:0.504797" /><path
         fill="#20181c"
         d="m 366.58941,539.0765 c 1.22413,-0.0368 1.2847,0.17517 2.21959,0.89753 l 0.0227,1.3463 -0.9682,0.89753 c -1.00505,0.0782 -1.1575,-0.13478 -1.99546,-0.64564 l -0.19687,-1.37355 z"
         id="path43"
         style="stroke-width:0.504797" /><path
         fill="#20181c"
         d="m 436.24635,531.89728 c 1.25695,-0.21504 1.30238,-0.30035 2.3675,0.37456 l 0.31298,1.4205 -0.83292,1.17668 c -1.10551,0.25543 -1.15599,0.0853 -2.1151,-0.43412 -0.37355,-1.28067 -0.29278,-1.31046 0.26754,-2.53762 z"
         id="path44"
         style="stroke-width:0.504797" /><path
         fill="#fefefe"
         d="m 216.40572,502.56807 c 7.85615,-16.85821 24.90264,-29.25602 42.02334,-35.50945 7.52855,-2.75013 18.06517,-5.33924 25.71184,-1.75366 3.946,1.85058 7.37458,5.48007 8.85111,9.60073 3.74711,10.45586 -0.0374,23.59119 -4.76175,33.17325 -5.32763,10.80568 -13.0904,20.27164 -22.19895,28.11467 -2.6406,2.2736 -5.40588,4.80769 -8.42355,6.56236 -7.90159,6.48109 -18.46901,11.8804 -28.26813,14.77289 -5.24838,1.50429 -10.26505,1.89601 -15.64518,2.44725 -4.5356,-0.92731 -9.11663,-0.4104 -13.77793,-1.53458 l 0.0626,-1.7047 c 3.72339,0.88844 6.89957,1.30894 10.72189,1.45079 -5.28573,-13.13179 -15.21357,-26.29539 -25.92688,-35.56649 -3.31096,-2.86523 -7.55933,-4.93591 -10.58206,-7.99901 l 0.28622,-0.93842 0.73549,-0.33317 c 15.58107,10.48413 26.67651,23.79815 35.60586,40.24899 l 0.13327,-8.26101 c -0.43362,-2.01717 -0.0429,-5.0929 -0.0469,-7.21153 -0.0177,-9.86929 0.894,-19.82288 -2.11863,-29.31407 l 1.40132,-1.09743 0.27107,0.64564 0.27562,0.85664 c 1.43867,-1.06664 0.0853,-5.14035 1.1893,-6.93541 0.0722,0.92227 0.36194,1.84352 0.5886,2.74004 l 0.24381,5.43969 c 1.28522,-1.19738 2.70319,-6.0722 3.64868,-7.89401 z"
         id="path45"
         style="stroke-width:0.504797" /><path
         fill="#252325"
         d="m 212.71464,557.99276 c 0.28471,0.11005 0.29329,0.12671 0.64664,0.18375 2.01616,0.3256 4.6926,-0.0999 6.74258,-0.35437 13.12169,-1.62948 25.76535,-8.84657 36.49178,-16.19944 l 1.01212,1.13327 c -7.90159,6.48109 -18.46901,11.8804 -28.26813,14.77289 -5.24838,1.50429 -10.26505,1.89601 -15.64518,2.44725 -4.5356,-0.92731 -9.11663,-0.4104 -13.77793,-1.53458 l 0.0626,-1.7047 c 3.72339,0.88844 6.89957,1.30894 10.72189,1.45079 z"
         id="path46"
         style="stroke-width:0.504797" /><path
         fill="#1c1c18"
         d="m 216.40572,502.56807 c 7.85615,-16.85821 24.90264,-29.25602 42.02334,-35.50945 7.52855,-2.75013 18.06517,-5.33924 25.71184,-1.75366 3.946,1.85058 7.37458,5.48007 8.85111,9.60073 3.74711,10.45586 -0.0374,23.59119 -4.76175,33.17325 -5.32763,10.80568 -13.0904,20.27164 -22.19895,28.11467 -2.6406,2.2736 -5.40588,4.80769 -8.42355,6.56236 l -1.01212,-1.13327 c 11.13128,-7.99043 21.20905,-18.14695 27.98241,-30.14547 5.39023,-9.54773 10.58762,-23.45388 7.43011,-34.45089 -1.19788,-4.17012 -3.92782,-7.67544 -7.76378,-9.74258 -6.50532,-3.50481 -14.91271,-1.98587 -21.64166,0.10601 -19.48567,6.05756 -35.66138,18.59016 -45.18034,36.66089 -1.72035,3.96972 -3.72288,8.21506 -4.59517,12.47252 -0.4634,2.25998 -0.2317,5.02576 -0.25139,7.34682 l -0.0333,14.27313 0.0803,14.94402 c 2.21303,-3.84908 4.12066,-7.87787 6.48109,-11.63911 5.11006,-8.14339 11.56742,-15.7638 18.83297,-22.06367 2.26401,-1.96265 4.96669,-4.43111 7.70673,-5.65978 l 0.68451,0.44876 -0.10046,0.81979 c -14.54169,10.93037 -27.32567,25.63612 -33.51297,42.99962 l -2.01364,0.19486 c -5.28573,-13.13179 -15.21357,-26.29539 -25.92688,-35.56649 -3.31096,-2.86523 -7.55933,-4.93591 -10.58206,-7.99901 l 0.28622,-0.93842 0.73549,-0.33317 c 15.58107,10.48413 26.67651,23.79815 35.60586,40.24899 l 0.13327,-8.26101 c -0.43362,-2.01717 -0.0429,-5.0929 -0.0469,-7.21153 -0.0177,-9.86929 0.894,-19.82288 -2.11863,-29.31407 l 1.40132,-1.09743 0.27107,0.64564 0.27562,0.85664 c 1.43867,-1.06664 0.0853,-5.14035 1.1893,-6.93541 0.0722,0.92227 0.36194,1.84352 0.5886,2.74004 l 0.24381,5.43969 c 1.28522,-1.19738 2.70319,-6.0722 3.64868,-7.89401 z"
         id="path47"
         style="stroke-width:0.504797" /><path
         fill="#cbe7ea"
         d="m 200.18608,435.01006 -0.54215,0.0429 c -4.86523,0.21656 -11.17873,-1.99748 -15.92534,-3.18022 -28.42209,-7.08331 -54.08143,-19.05407 -76.04566,-38.7457 -14.639108,-13.12422 -27.283768,-29.84663 -28.332738,-50.16824 -0.65775,-12.74563 4.60678,-26.47964 13.20044,-35.86432 10.081808,-11.01064 22.171188,-18.45387 36.307528,-23.12324 14.44224,-4.77084 30.77041,-5.91875 45.49837,-1.69309 7.01718,2.01364 13.78449,5.37356 20.12676,8.95207 9.52754,5.37508 18.51041,11.12169 28.95516,14.66637 11.59973,3.93641 23.31506,4.58154 35.44483,4.04696 -0.41242,5.60678 -1.2635,13.01064 -0.0318,18.49779 0.55679,17.43266 7.37357,35.14498 15.5104,50.35451 l 10.13279,17.36805 20.6987,29.79111 c -7.08735,2.46391 -14.14846,3.93994 -21.48921,5.42606 -16.64417,3.36901 -33.41808,5.08331 -50.39036,5.38315 -5.42304,0.0959 -10.95965,0.42605 -16.37461,0.13378 1.90712,-0.60071 3.48512,-1.3882 5.20092,-2.41041 l -0.9899,-1.33165 c -4.97781,2.55578 -10.37611,3.71631 -15.85214,1.98536 l -3.33722,-1.25341 0.77789,2.13327 z"
         id="path48"
         style="stroke-width:0.504797" /><path
         fill="#1c1c18"
         d="m 193.66259,401.61168 0.84705,1.58456 c -3.07371,4.70269 -5.03586,9.95864 -3.88442,15.66436 1.03736,5.13833 3.85464,10.32613 8.32108,13.24739 l 3.00455,1.77991 0.77789,2.13327 -2.54266,-1.01111 -2.17921,-1.52903 c -4.88997,-3.57143 -8.35439,-8.89856 -9.20901,-14.9536 -0.89198,-6.31501 1.09137,-11.90665 4.86473,-16.91575 z"
         id="path49"
         style="stroke-width:0.504797" /><path
         fill="#20181c"
         d="m 193.66259,401.61168 c 4.16659,-4.7249 9.17771,-7.62092 15.57955,-8.07978 5.79961,-0.41595 11.35642,1.34225 15.74008,5.18881 4.66634,4.09491 7.39275,9.3761 7.73197,15.61792 0.33721,6.19991 -2.105,12.16863 -6.27765,16.7108 -0.98335,1.07017 -2.96417,2.88491 -4.30643,3.43817 l -0.9899,-1.33165 c 1.72186,-1.03989 3.28875,-2.53762 4.65524,-4.01264 3.5149,-3.79405 5.41041,-9.21406 5.16912,-14.37712 -0.26199,-5.6088 -2.41697,-10.54976 -6.59518,-14.33573 -4.3988,-3.98639 -9.47504,-5.49623 -15.28626,-5.17468 -5.9248,0.32812 -10.76328,3.63505 -14.57349,7.94046 z"
         id="path50"
         style="stroke-width:0.504797" /><g
         id="g68"
         transform="translate(84.888684,-112.49719)"><path
           fill="#ed4c50"
           d="m 126.14144,324.01276 c 2.86775,-0.38011 5.74206,-0.28723 8.37004,1.01414 2.75669,1.36548 4.9465,3.68906 5.89704,6.64262 0.96315,2.99093 0.93185,6.37307 -0.53761,9.20044 -1.86977,3.59819 -4.37255,5.14741 -8.14743,6.36549 -2.27966,0.0848 -4.36599,0.25946 -6.56034,-0.51793 -3.03837,-1.07622 -5.57397,-3.8203 -6.85262,-6.72086 -1.19586,-2.71329 -1.39576,-5.51945 -0.28773,-8.31098 1.57395,-3.9672 4.30491,-6.05403 8.11865,-7.67292 z"
           id="path51"
           style="stroke-width:0.504797" /><path
           fill="#fefefe"
           d="m 126.65381,327.12635 c 1.40333,-0.0878 2.94902,-0.26552 4.33974,-0.0237 2.23019,0.38819 4.31046,1.69007 5.53712,3.60173 1.33619,2.0838 1.80969,4.95862 1.13528,7.35086 -0.86724,3.07825 -3.15498,4.53812 -5.78951,5.99446 -1.22868,0.12216 -2.70016,0.36901 -3.91874,0.16608 -2.32409,-0.38718 -4.42253,-1.91974 -5.7557,-3.82939 -1.41898,-2.03282 -1.97123,-4.85716 -1.34831,-7.26706 0.77183,-2.98385 3.28421,-4.60223 5.80012,-5.99295 z"
           id="path52"
           style="stroke-width:0.504797" /></g><path
         fill="#fefefe"
         d="m 194.50964,403.19624 c 3.81021,-4.30541 8.64869,-7.61234 14.57349,-7.94046 5.81122,-0.32155 10.88746,1.18829 15.28626,5.17468 4.17821,3.78597 6.33319,8.72693 6.59518,14.33573 0.24129,5.16306 -1.65422,10.58307 -5.16912,14.37712 -1.36649,1.47502 -2.93338,2.97275 -4.65524,4.01264 -4.97781,2.55578 -10.37611,3.71631 -15.85214,1.98536 l -3.33722,-1.25341 -3.00455,-1.77991 c -4.46644,-2.92126 -7.28372,-8.10906 -8.32108,-13.24739 -1.15144,-5.70572 0.81071,-10.96167 3.88442,-15.66436 z"
         id="path53"
         style="stroke-width:0.504797" /><path
         id="path54"
         style="fill:#d33236;fill-opacity:1;stroke-width:0.504797"
         d="m 383.90786,195.14152 c -26.10809,0.54506 -50.39225,8.99522 -72.03054,24.58314 -0.86927,-0.52145 -0.80106,-0.48493 -1.06154,-1.47181 -26.63003,19.66687 -45.93243,50.78913 -50.85622,83.62968 l -1.08594,8.06067 c -0.41242,5.60677 -1.26373,13.01046 -0.032,18.49761 0.55679,17.43264 7.37292,35.14491 15.50975,50.35442 l 10.13341,17.36896 20.69847,29.79018 45.42194,53.68393 c -7.945,-0.12115 -15.52247,-0.92571 -21.72188,5.2116 -3.78496,3.74711 -5.96359,8.42471 -5.90709,13.76949 0.0535,5.01213 2.19381,9.55455 5.76525,13.00232 l 1.96903,1.96751 -4.31936,0.22115 -0.52162,0.81141 0.74734,0.79615 132.45128,-0.0351 c 1.54468,-1.65573 23.24055,1.03751 25.67367,-0.76107 -0.98436,-0.82181 -5.13879,-0.37573 -6.61784,-0.37673 l -25.50131,0.0808 c -3.94751,0.0202 -9.98992,0.83307 -13.67493,-0.47586 l -47.85615,-0.0458 22.49972,-25.19323 5.94523,-6.53547 c 0.41191,-0.43463 1.31574,-1.64748 1.81498,-1.89735 0.3362,-0.16863 1.47225,-0.18288 1.8882,-0.23488 1.61838,-0.77133 3.87703,-0.52535 5.65391,-0.53535 -0.67138,-0.51741 -1.4935,-0.40537 -2.3244,-0.28826 -0.78294,0.11005 -0.4738,-0.33188 -1.03866,-0.53077 -0.40788,-0.1434 -1.73202,0.0107 -2.21612,0.0137 l 0.058,-0.84801 17.97751,-21.06604 c 22.5947,-27.29535 44.36713,-55.43535 59.6978,-87.55859 -0.34831,-0.71782 -0.49968,-1.5887 -0.7016,-2.36558 1.24181,-4.00052 3.2146,-7.87852 4.63813,-11.84622 4.39678,-12.25899 6.9964,-25.12069 6.68342,-38.17877 -0.81777,-34.04448 -16.20334,-64.44887 -40.65569,-87.68213 -8.02627,-7.55327 -16.88093,-13.47258 -26.43168,-18.88653 -15.35844,-8.45029 -32.02033,-12.975 -49.37373,-14.77612 -3.80181,-0.24704 -7.56894,-0.33105 -11.29867,-0.25318 z m 3.7947,58.62862 c 3.69681,0.0809 7.38703,0.40129 11.01803,0.95783 16.96571,3.49117 32.48241,13.77342 42.06345,28.2848 8.71783,13.20044 13.15032,30.35865 9.95497,46.04117 -3.28623,16.11614 -10.94826,28.75709 -23.68023,39.22657 -8.00306,6.00658 -17.30272,10.14205 -27.11193,12.13448 -17.36803,3.52702 -35.59269,-0.20631 -50.28579,-10.0236 -13.91876,-9.29936 -23.99702,-24.64851 -27.20954,-41.07207 -3.2095,-16.40538 0.62719,-33.45952 9.93514,-47.23997 10.46847,-15.49825 26.16834,-24.32193 44.26126,-27.82572 3.65447,-0.4056 7.35782,-0.56438 11.05464,-0.48349 z" /><path
         fill="#20181c"
         d="m 371.35671,253.42345 c 9.88948,-2.08986 19.0364,-2.00959 28.96727,-0.31045 18.27416,4.63858 34.08996,15.34028 43.85778,31.77042 8.63708,14.52048 11.66586,32.37162 7.48614,48.84669 -3.48814,13.75975 -12.15046,28.17827 -23.95413,36.36255 -0.0949,-0.60475 -0.42958,-1.23978 -0.65573,-1.81172 12.73199,-10.46949 20.39481,-23.11011 23.68104,-39.22627 3.19536,-15.68253 -1.23676,-32.84209 -9.9546,-46.04254 -9.58105,-14.5114 -25.0975,-24.7926 -42.06323,-28.28378 -7.26201,-1.11307 -14.7638,-1.28571 -22.07275,-0.4745 -1.76376,-0.46442 -3.50683,-0.45281 -5.29179,-0.8304 z"
         id="path55"
         style="stroke-width:0.504797" /><path
         fill="#252325"
         d="m 427.71377,370.09266 c -7.06262,5.43161 -15.43013,9.06666 -24.02178,11.29937 -17.02378,4.42405 -36.22272,1.87381 -51.37825,-7.08179 -15.15249,-8.95359 -26.41855,-23.99149 -30.79363,-41.05061 -4.39425,-17.13483 -1.19081,-34.9582 7.82941,-50.0582 9.09089,-15.21862 25.05106,-25.54222 42.00719,-29.77798 1.78496,0.37759 3.52803,0.36598 5.29179,0.8304 -18.09294,3.50379 -33.79364,12.32664 -44.26212,27.82491 -9.30796,13.78046 -13.14442,30.83553 -9.93492,47.24093 3.21253,16.42358 13.29081,31.77193 27.20958,41.0713 14.69312,9.8173 32.91781,13.55128 50.28586,10.02426 9.80922,-1.99243 19.10808,-6.12773 27.11114,-12.13431 0.22615,0.57194 0.56083,1.20697 0.65573,1.81172 z"
         id="path56"
         style="stroke-width:0.504797" /><path
         fill="#fefefe"
         d="m 311.87799,219.72522 c 24.7295,-17.81479 52.91383,-26.30699 83.32836,-24.33071 17.35341,1.80112 34.01575,6.32662 49.3742,14.77692 9.55076,5.41395 18.4049,11.33219 26.43118,18.88547 l -0.23726,-0.0414 c -2.35235,-0.51641 -5.64868,-3.74307 -7.73349,-5.15398 -5.22465,-3.52954 -10.74208,-6.54217 -16.41095,-9.2812 -37.82142,-18.27062 -83.77713,-19.49829 -120.41631,2.49572 -28.73002,17.24538 -49.21317,44.97489 -57.30305,77.48231 -4.93389,19.82388 -4.85464,40.61042 0.42504,60.35959 1.88491,7.05151 4.45635,14.45386 7.54772,21.06468 l 6.4498,12.74461 5.17517,8.93491 c 0.65372,1.13478 1.9248,2.85614 2.13227,4.15549 0.0429,0.26805 0.0232,0.30136 -0.0126,0.53306 l -4.73954,-7.17468 -1.40384,0.98789 -10.13279,-17.36805 c -8.13683,-15.20953 -14.95361,-32.92185 -15.5104,-50.35451 -1.2317,-5.48715 -0.38062,-12.89101 0.0318,-18.49779 l 1.08633,-8.0606 c 4.92379,-32.84058 24.22622,-63.96334 50.85628,-83.63023 0.26048,0.98688 0.19283,0.95104 1.0621,1.47249 z"
         id="path57"
         style="stroke-width:0.504797" /><path
         fill="#20181c"
         d="m 258.87328,309.94356 1.08633,-8.0606 c 4.92379,-32.84058 24.22622,-63.96334 50.85628,-83.63023 0.26048,0.98688 0.19283,0.95104 1.0621,1.47249 -5.60628,4.48967 -11.21912,9.07373 -16.15503,14.30898 -19.34735,20.52151 -31.86783,47.038 -34.96123,75.11431 l -0.61585,12.05001 c 0.17415,6.04696 0.50429,11.93895 1.60475,17.9001 3.80718,20.62853 13.30594,38.36105 24.13788,56.0774 l -1.40384,0.98789 -10.13279,-17.36805 c -8.13683,-15.20953 -14.95361,-32.92185 -15.5104,-50.35451 -1.2317,-5.48715 -0.38062,-12.89101 0.0318,-18.49779 z"
         id="path58"
         style="stroke-width:0.504797" /><path
         fill="#252325"
         d="m 500.34548,366.76403 c 0.20192,0.77688 0.35336,1.64816 0.70167,2.36598 -15.33068,32.12327 -37.10258,60.26318 -59.6973,87.55856 l -17.97683,21.0662 -0.058,0.84806 c 0.4841,-0.003 1.80818,-0.157 2.21606,-0.0136 0.56486,0.19889 0.25542,0.64008 1.03836,0.53003 0.8309,-0.11711 1.65321,-0.22867 2.32459,0.28875 -1.77688,0.01 -4.03585,-0.23524 -5.65423,0.53609 -0.41595,0.052 -1.55275,0.0656 -1.88895,0.23423 -0.49924,0.24987 -1.40283,1.46189 -1.81474,1.89652 l -5.94449,6.53662 -22.49982,25.1924 47.85527,0.0454 c 3.68502,1.30894 9.72744,0.49672 13.67495,0.47653 l 25.50235,-0.0808 c 1.47905,10e-4 5.63353,-0.44472 6.61789,0.37709 -2.43312,1.79859 -24.1293,-0.89501 -25.67398,0.76072 l -132.45219,0.0353 -0.74609,-0.79606 0.52146,-0.81222 4.31853,-0.22009 -1.9682,-1.9677 c -3.57144,-3.44777 -5.71178,-7.99044 -5.76529,-13.00257 -0.0565,-5.34479 2.12167,-10.02274 5.90663,-13.76985 6.19942,-6.13732 13.77743,-5.33217 21.72243,-5.21102 l -45.42214,-53.68365 -20.6987,-29.79111 1.40384,-0.98789 4.73954,7.17468 c 4.85665,7.92481 10.77237,15.51949 16.39278,22.92334 19.55634,25.76283 41.30552,49.15866 63.57666,72.54086 l 10.15804,10.54571 c 1.38617,1.41444 3.08632,3.57901 4.8097,4.5351 0.91167,0.50581 2.04948,0.71984 3.07068,0.3473 1.75771,-0.64059 3.91016,-3.61182 5.17114,-5.01617 l 12.79762,-14.38974 c 25.82542,-29.31054 52.42317,-58.86792 73.80638,-91.69033 7.43061,-11.4064 13.88697,-23.20098 19.93443,-35.38274 z"
         id="path59"
         style="stroke-width:0.504797" /><path
         fill="#fefefe"
         d="m 352.13858,481.27017 31.39737,32.51853 -27.53668,-0.0439 -13.97531,0.0308 c -3.33469,10e-4 -6.49876,0.46997 -9.46999,-1.38516 -1.07017,-0.66835 -2.05251,-1.30541 -2.95559,-2.19839 -3.08431,-3.05049 -4.98537,-7.13531 -4.99749,-11.49524 -0.0126,-4.59315 1.80011,-9.05556 5.08936,-12.28424 6.35641,-6.2398 14.2999,-5.12117 22.44833,-5.14237 z"
         id="path60"
         style="stroke-width:0.504797" /><g
         id="g65"
         transform="matrix(0.01818871,0,0,0.01818871,525.60909,184.23626)"
         style="fill:#252325;fill-opacity:1"><path
           fill="#010101"
           d="m 6634.5084,10134.403 q 63.0071,-0.407 126.0059,0.652 c 10.7883,13.202 20.2792,28.153 30.0051,42.169 l 58.9592,85.672 q 90.036,128.4 178.5803,257.833 c -18.5879,29.204 -39.4524,57.206 -59.0081,85.784 l -136.6164,199.518 -65.0748,96.375 c -10.0159,14.855 -19.669,32.402 -31.5924,45.677 l -127.9914,0.135 c 11.6573,-21.113 29.294,-43.504 43.2976,-63.453 l 67.3388,-97.737 c 61.0102,-88.807 119.2354,-179.704 182.3923,-267.003 q -34.9315,-49.221 -68.8618,-99.136 -55.6805,-78.999 -110.0106,-158.933 c -12.2634,-17.716 -85.7542,-120.455 -87.4237,-127.553 z"
           id="path64"
           style="fill:#615f60;fill-opacity:1;stroke-width:1.03954" /><path
           fill="#010101"
           d="m 7291.0044,10134.832 q 63.7857,-0.484 127.5818,-0.04 l -178.5917,262.69 c -28.1194,41.488 -57.5486,82.378 -84.3373,124.728 38.6394,57.79 79.5034,114.411 119.6709,171.149 l 96.5935,137.603 61.0518,85.73 c 7.1311,10.177 16.9651,21.019 22.1731,32.236 -17.6719,-1.143 -35.5519,-0.738 -53.2552,-0.769 l -79.9297,-0.115 -145.8152,-210.817 q -49.513,-70.49 -97.8616,-141.771 c -16.6949,-24.563 -34.0967,-48.855 -49.7729,-74.08 51.5713,-78.972 106.4481,-156.007 159.2668,-234.172 l 69.5551,-102.65 c 11.1646,-16.491 21.3833,-34.06 33.6706,-49.719 z"
           id="path65"
           style="fill:#615f60;fill-opacity:1;stroke-width:1.03954" /></g><g
         id="g67"
         transform="matrix(0.01818871,0,0,0.01818871,437.84373,62.368843)"
         style="fill:#252325;fill-opacity:1"><path
           fill="#010101"
           d="m 6634.5084,10134.403 q 63.0071,-0.407 126.0059,0.652 c 10.7883,13.202 20.2792,28.153 30.0051,42.169 l 58.9592,85.672 q 90.036,128.4 178.5803,257.833 c -18.5879,29.204 -39.4524,57.206 -59.0081,85.784 l -136.6164,199.518 -65.0748,96.375 c -10.0159,14.855 -19.669,32.402 -31.5924,45.677 l -127.9914,0.135 c 11.6573,-21.113 29.294,-43.504 43.2976,-63.453 l 67.3388,-97.737 c 61.0102,-88.807 119.2354,-179.704 182.3923,-267.003 q -34.9315,-49.221 -68.8618,-99.136 -55.6805,-78.999 -110.0106,-158.933 c -12.2634,-17.716 -85.7542,-120.455 -87.4237,-127.553 z"
           id="path66"
           style="fill:#615f60;fill-opacity:1;stroke-width:1.03954" /><path
           fill="#010101"
           d="m 7291.0044,10134.832 q 63.7857,-0.484 127.5818,-0.04 l -178.5917,262.69 c -28.1194,41.488 -57.5486,82.378 -84.3373,124.728 38.6394,57.79 79.5034,114.411 119.6709,171.149 l 96.5935,137.603 61.0518,85.73 c 7.1311,10.177 16.9651,21.019 22.1731,32.236 -17.6719,-1.143 -35.5519,-0.738 -53.2552,-0.769 l -79.9297,-0.115 -145.8152,-210.817 q -49.513,-70.49 -97.8616,-141.771 c -16.6949,-24.563 -34.0967,-48.855 -49.7729,-74.08 51.5713,-78.972 106.4481,-156.007 159.2668,-234.172 l 69.5551,-102.65 c 11.1646,-16.491 21.3833,-34.06 33.6706,-49.719 z"
           id="path67"
           style="fill:#615f60;fill-opacity:1;stroke-width:1.03954" /></g><g
         id="g72"
         transform="translate(-142.5489,-278.67836)"><path
           fill="#ed4c50"
           d="m 649.8058,439.01462 c 0.88339,-0.30692 1.17113,-0.18021 2.06967,0 1.94347,1.8097 5.04797,4.0303 6.04747,6.50633 l -0.60576,1.12166 c -0.65624,0.43968 -1.14084,0.4311 -1.89299,0.44876 -2.06967,-1.48461 -5.12369,-4.40486 -6.15347,-6.73046 z"
           id="path69"
           style="stroke-width:0.504797" /><path
           fill="#ed4c50"
           d="m 665.03553,453.82183 c 0.75215,-0.33518 1.07017,-0.26704 1.84251,-0.12317 1.80717,1.77234 5.46695,4.53157 6.05251,6.85414 l -0.67138,1.0742 c -0.71681,0.33065 -1.02978,0.57043 -1.80717,0.24786 -1.59011,-0.66078 -5.47705,-4.77891 -6.00708,-6.44828 -0.14135,-0.4523 0.37859,-1.17466 0.59061,-1.60475 z"
           id="path70"
           style="stroke-width:0.504797" /><path
           fill="#ed4c50"
           d="m 655.57058,453.37357 c 0.20192,-0.0278 0.29783,-0.056 0.51994,0.002 1.04493,0.27107 1.25695,0.66986 1.6305,1.56891 -0.51489,2.20394 -4.41698,5.36145 -6.0929,6.99245 l -1.04493,0.0596 c -0.90864,-0.4735 -1.01464,-0.48158 -1.5043,-1.44321 0.3887,-2.21808 4.63909,-5.79255 6.49169,-7.17923 z"
           id="path71"
           style="stroke-width:0.504797" /><path
           fill="#ed4c50"
           d="m 670.02292,439.01462 c 0.67643,-0.24331 1.30743,-0.19435 2.01414,-0.17567 l 0.91873,1.0732 c -0.37355,2.53812 -4.13933,5.32561 -6.00203,7.17922 l -1.42353,0.27461 -0.89349,-0.60676 -0.2625,-1.4624 c 0.90359,-2.17164 3.95256,-4.57397 5.64868,-6.2822 z"
           id="path72"
           style="stroke-width:0.504797" /></g><g
         id="g78"
         transform="matrix(0.01818871,0,0,0.01818871,-6.9810476,140.93404)"
         style="fill:#252325;fill-opacity:1"><path
           fill="#010101"
           d="m 6634.5084,10134.403 q 63.0071,-0.407 126.0059,0.652 c 10.7883,13.202 20.2792,28.153 30.0051,42.169 l 58.9592,85.672 q 90.036,128.4 178.5803,257.833 c -18.5879,29.204 -39.4524,57.206 -59.0081,85.784 l -136.6164,199.518 -65.0748,96.375 c -10.0159,14.855 -19.669,32.402 -31.5924,45.677 l -127.9914,0.135 c 11.6573,-21.113 29.294,-43.504 43.2976,-63.453 l 67.3388,-97.737 c 61.0102,-88.807 119.2354,-179.704 182.3923,-267.003 q -34.9315,-49.221 -68.8618,-99.136 -55.6805,-78.999 -110.0106,-158.933 c -12.2634,-17.716 -85.7542,-120.455 -87.4237,-127.553 z"
           id="path77"
           style="fill:#615f60;fill-opacity:1;stroke-width:1.03954" /><path
           fill="#010101"
           d="m 7291.0044,10134.832 q 63.7857,-0.484 127.5818,-0.04 l -178.5917,262.69 c -28.1194,41.488 -57.5486,82.378 -84.3373,124.728 38.6394,57.79 79.5034,114.411 119.6709,171.149 l 96.5935,137.603 61.0518,85.73 c 7.1311,10.177 16.9651,21.019 22.1731,32.236 -17.6719,-1.143 -35.5519,-0.738 -53.2552,-0.769 l -79.9297,-0.115 -145.8152,-210.817 q -49.513,-70.49 -97.8616,-141.771 c -16.6949,-24.563 -34.0967,-48.855 -49.7729,-74.08 51.5713,-78.972 106.4481,-156.007 159.2668,-234.172 l 69.5551,-102.65 c 11.1646,-16.491 21.3833,-34.06 33.6706,-49.719 z"
           id="path78"
           style="fill:#615f60;fill-opacity:1;stroke-width:1.03954" /></g></g></g></svg>
